<svg xmlns="http://www.w3.org/2000/svg" viewBox="0 0 287.31 203.9">
  <defs><style>.cls-1{fill:#FFFFFF;}</style></defs>
  <title>Ativo 5</title><g id="Camada_2" data-name="Camada 2"> <g id="Layer_2" data-name="Layer 2"><g id="whvThE.tif">
  <path class="cls-1" d="M144.39,203.9l-3.61-3.21c-31.64-28.14-57.34-52.18-76.19-83.74-10-16.82-7.94-34.93,5.63-48.45s32.54-15.89,49.46-6.18a88.58,88.58,0,0,1,15.12,11.32,105.36,105.36,0,0,1,8.31,8.64c1.59-1.41,3.15-2.84,4.71-4.25,6.17-5.62,12.54-11.43,19.86-15.71a40.81,40.81,0,0,1,39.49-1.42,40.18,40.18,0,0,1,21.4,32.51c.71,8.1-2,18-6.9,25.32a365.08,365.08,0,0,1-32.73,42c-8.87,9.73-18.28,18.49-28.23,27.77-4.26,4-8.56,8-12.85,12.09ZM98.45,66.84c-7.57,0-14.82,3.06-20.84,9.06C67.5,86,66,99,73.57,111.59c17.38,29.1,41.26,51.92,70.57,78.09,3.16-3,6.32-5.93,9.46-8.86,9.8-9.13,19-17.75,27.64-27.16A354.62,354.62,0,0,0,213,112.89c3.54-5.25,5.66-12.88,5.16-18.56-.93-10.63-6.69-19.43-15.8-24.14s-20-4.36-29.42,1.16c-6.37,3.72-12.06,8.91-18.1,14.41C152,88.39,149.06,91,146,93.6L142.2,96.8l-3.38-3.65c-1-1.06-2-2.22-3.07-3.43a100.83,100.83,0,0,0-7.92-8.31,78.58,78.58,0,0,0-13.33-10A32.2,32.2,0,0,0,98.45,66.84Z"/></g><path class="cls-1" d="M83,185.56a30.83,30.83,0,0,1-7.45-.9C64.75,182,58.19,174,55.19,169.44c-13.69,1.28-23.9-1.82-30.38-9.27-9.32-10.69-7.55-27-6.16-34.18C-9.65,104.32.2,72.78,9.73,58.73L13,53.86l4.45,3.86c16,13.91,51.89,23.14,52.25,23.23L67.15,91.07c-1.44-.37-32.53-8.37-51.52-21.6-4.92,10.06-12.53,33.42,11.82,50l3.12,2.13-1,3.63c0,.18-5.13,18.61,3.17,28.11,4.56,5.21,12.83,7,24.54,5.34l3.83-.55,1.64,3.5c0,.08,5.09,10.39,15.42,12.9,8,1.95,17.5-1.14,28.13-9.19l6.3,8.33C102.13,181.58,92.21,185.56,83,185.56Z"/><path class="cls-1" d="M204.33,185.56c-9.23,0-19.15-4-29.59-11.88l6.31-8.33c10.62,8,20.08,11.13,28.13,9.19,10.33-2.51,15.38-12.82,15.43-12.92l1.66-3.45,3.8.52c11.72,1.67,20-.13,24.54-5.34,8.3-9.49,3.22-27.93,3.17-28.12l-1-3.62,3.11-2.13c24.35-16.57,16.74-39.92,11.82-50-19,13.23-50.09,21.23-51.52,21.6l-2.57-10.13c.36-.09,36.25-9.34,52.25-23.23l4.45-3.86,3.3,4.87c9.53,14,19.38,45.59-8.92,67.26,1.39,7.22,3.16,23.49-6.16,34.18-6.49,7.45-16.72,10.55-30.38,9.27-3,4.6-9.56,12.55-20.34,15.21A30.92,30.92,0,0,1,204.33,185.56Z"/><path class="cls-1" d="M143.52,47.31c-25.2,0-50.72-8.13-50.72-23.66S118.32,0,143.52,0s50.71,8.13,50.71,23.65S168.72,47.31,143.52,47.31Zm0-36.86c-24.21,0-40.27,7.95-40.27,13.21s16.06,13.21,40.27,13.21,40.27-7.95,40.27-13.21S167.73,10.45,143.52,10.45Z"/></g></g></svg>
