<?xml version="1.0" encoding="utf-8"?>
<!-- Generator: Adobe Illustrator 21.0.0, SVG Export Plug-In . SVG Version: 6.00 Build 0)  -->
<svg version="1.1" id="Patterns" xmlns="http://www.w3.org/2000/svg" xmlns:xlink="http://www.w3.org/1999/xlink" x="0px" y="0px"
	 width="765.4px" height="1031.8px" viewBox="0 0 765.4 1031.8" style="enable-background:new 0 0 765.4 1031.8;"
	 xml:space="preserve">
<style type="text/css">
	.st0{fill:none;}
	.st1{fill:#FFFFFF;}
	.st2{fill:#EAEAEA;}
	.st3{fill:#D6D6D6;}
	.st4{fill:url(#SVGID_3_);}
	.st5{fill:url(#SVGID_4_);}
	.st6{opacity:0.42;fill:#BCBCBC;}
</style>
<pattern  y="1031.8" width="89" height="89" patternUnits="userSpaceOnUse" id="SVGID_2_" viewBox="0 -94.6 89 89" style="overflow:visible;">
	<g>
		<rect y="-94.6" class="st0" width="89" height="89"/>
		<g>
			<rect y="-94.6" class="st0" width="89" height="89"/>
			<g>
				<polygon class="st0" points="0,-94.6 89,-94.6 89,-5.6 0,-5.6 				"/>
				<g>
					<polygon class="st1" points="89,-5.6 0,-5.6 0,-94.6 89,-94.6 					"/>
					<path class="st2" d="M22.1-79.1c-1.2,1.2-1.4,3.1-0.7,4.8l0,0l0,0c-1.7-0.9-3.6-0.8-4.9,0.3c-1.7,1.5-1.8,4.8,0.4,6.5
						c3.3,2.5,12.3,1.7,12.4,1.7l0,0l0,0l0,0l0,0l0,0l0,0l0,0l0,0c0-0.1,1.5-9-0.8-12.4C27-80.5,23.8-80.6,22.1-79.1z"/>
					<path class="st2" d="M75.8-51.1c-1.4-0.9-3.4-0.6-4.9,0.6l0,0l0,0c0.5-1.9-0.1-3.7-1.5-4.7c-1.9-1.2-5.1-0.5-6.2,2
						c-1.6,3.8,1.3,12.3,1.4,12.4l0,0l0,0l0,0l0,0l0,0l0,0l0,0l0,0c0.1,0,9.1-0.8,11.9-3.9C78.4-46.7,77.7-49.9,75.8-51.1z"/>
					<path class="st2" d="M20.6-36.1c-1.7,0.3-2.8,1.9-3.1,3.8l0,0l0,0c-1-1.7-2.7-2.6-4.3-2.3c-2.2,0.5-4,3.2-3,5.8
						c1.5,3.8,9.6,7.8,9.7,7.9l0,0l0,0l0,0l0,0l0,0l0,0l0,0l0,0c0.1-0.1,5.9-7,5.8-11.1C25.6-34.8,22.9-36.6,20.6-36.1z"/>
					<path class="st2" d="M67.5-12.5c-1.6-0.6-3.4,0.1-4.6,1.6l0,0l0,0c0.1-1.9-0.9-3.6-2.4-4.2c-2.1-0.8-5.1,0.5-5.6,3.3
						c-0.8,4,3.9,11.7,4,11.8l0,0l0,0l0,0l0,0l0,0l0,0l0,0l0,0c0.1,0,8.7-2.7,10.8-6.3C71-8.8,69.7-11.7,67.5-12.5z"/>
				</g>
				<g>
					<path class="st2" d="M67.5-101.5c-1.6-0.6-3.4,0.1-4.6,1.6l0,0l0,0c0.1-1.9-0.9-3.6-2.4-4.2c-2.1-0.8-5.1,0.5-5.6,3.3
						c-0.8,4,3.9,11.7,4,11.8l0,0l0,0l0,0l0,0l0,0l0,0l0,0l0,0c0.1,0,8.7-2.7,10.8-6.3C71-97.8,69.7-100.7,67.5-101.5z"/>
				</g>
			</g>
		</g>
	</g>
</pattern>
<rect x="-1.2" y="-4.5" class="st3" width="766.6" height="1036.3"/>
<pattern  id="SVGID_3_" xlink:href="#SVGID_2_" patternTransform="matrix(0.712 0 0 0.7062 -7043.9683 9349.918)">
</pattern>
<rect y="-4.5" class="st4" width="772" height="1036.3"/>
<pattern  id="SVGID_4_" xlink:href="#SVGID_2_" patternTransform="matrix(0.712 0 0 0.7062 -7043.9683 9349.918)">
</pattern>
<rect x="-41" y="-38" class="st5" width="1048" height="1154"/>
<rect x="-41" y="-38" class="st6" width="1048" height="1154"/>
</svg>
