<svg xmlns="http://www.w3.org/2000/svg" viewBox="0 0 160.14 175.76">
  <defs><style>.cls-1{fill:#878787;}</style></defs>
  <title>Ativo 4</title>
  <g id="Camada_2" data-name="Camada 2"><g id="Layer_2" data-name="Layer 2">
  <path class="cls-1" d="M160.14,175.76H0V15.61H160.14ZM11.36,164.4H148.79V27H11.36Z"/><rect class="cls-1" x="5.68" y="57.76" width="148.79" height="11.36"/><path class="cls-1" d="M47.23,42.58a5.68,5.68,0,0,1-5.68-5.68V5.68a5.68,5.68,0,1,1,11.36,0V36.9A5.68,5.68,0,0,1,47.23,42.58Z"/><path class="cls-1" d="M114,42.58a5.68,5.68,0,0,1-5.68-5.68V5.68a5.68,5.68,0,1,1,11.36,0V36.9A5.68,5.68,0,0,1,114,42.58Z"/><path class="cls-1" d="M75.74,135.3,55.92,117.44a5.68,5.68,0,1,1,7.6-8.44l11.4,10.27,25.86-28.59a5.68,5.68,0,1,1,8.42,7.62Z"/></g></g></svg>
