<?xml version="1.0" encoding="utf-8"?>
<!-- Generator: Adobe Illustrator 21.0.0, SVG Export Plug-In . SVG Version: 6.00 Build 0)  -->
<svg version="1.1" id="Camada_1" xmlns="http://www.w3.org/2000/svg" xmlns:xlink="http://www.w3.org/1999/xlink" x="0px" y="0px"
	 width="86.6px" height="86.6px" viewBox="0 0 86.6 86.6" style="enable-background:new 0 0 86.6 86.6;" xml:space="preserve">
<style type="text/css">
	.st0{fill:#959195;}
</style>
<path id="XMLID_55_" class="st0" d="M43.3,3c22.2,0,40.3,18.1,40.3,40.3S65.5,83.6,43.3,83.6S3,65.5,3,43.3S21.1,3,43.3,3 M43.3,0
	C19.4,0,0,19.4,0,43.3s19.4,43.3,43.3,43.3s43.3-19.4,43.3-43.3S67.2,0,43.3,0L43.3,0z"/>
<g>
	<g>
		<g>
			<path class="st0" d="M68.4,37.7c0.4,0.3,1,0,1-0.6l0,0c0-3.2-2.6-5.7-5.7-5.7c-3.2,0-5.7,2.6-5.7,5.7l0,0c0,0.5,0.6,0.8,1,0.6
				c1.4-0.8,3-1.3,4.7-1.3S67,36.9,68.4,37.7z"/>
		</g>
	</g>
	<g>
		<g>
			<path class="st0" d="M27.6,37.7c0.4,0.3,1,0,1-0.6l0,0c0-3.2-2.6-5.7-5.7-5.7c-3.2,0-5.7,2.6-5.7,5.7l0,0c0,0.5,0.6,0.8,1,0.6
				c1.4-0.8,3-1.3,4.7-1.3C24.6,36.4,26.2,36.9,27.6,37.7z"/>
		</g>
	</g>
</g>
<g>
	<g>
		<g>
			<path class="st0" d="M43.5,63c-7.2,0-14.4-2.8-19.7-7.7c-0.9-0.8-0.9-2.1-0.1-3s2.1-0.9,3-0.1c4.5,4.2,10.6,6.5,16.8,6.5
				c6,0,11.9-2.2,16.3-6.2c0.9-0.8,2.2-0.7,3,0.2s0.7,2.2-0.2,3C57.4,60.4,50.6,63,43.5,63z"/>
		</g>
	</g>
</g>
</svg>
