<?xml version="1.0" encoding="utf-8"?>
<!-- Generator: Adobe Illustrator 21.0.0, SVG Export Plug-In . SVG Version: 6.00 Build 0)  -->
<svg version="1.1" id="Layer_1_1_" xmlns="http://www.w3.org/2000/svg" xmlns:xlink="http://www.w3.org/1999/xlink" x="0px" y="0px"
	 width="86.6px" height="86.6px" viewBox="0 0 86.6 86.6" style="enable-background:new 0 0 86.6 86.6;" xml:space="preserve">
<style type="text/css">
	.st0{fill:#FFCE00;}
	.st1{fill:#562912;}
	.st2{fill:#61C0EB;}
	.st3{fill:#E55725;}
	.st4{fill:#CC342F;}
	.st5{fill:url(#SVGID_1_);}
	.st6{fill:#FFFFFF;}
	.st7{fill:#D24103;}
	.st8{fill:#8D4D21;}
	.st9{fill:#261F11;}
	.st10{fill:#483D23;}
	.st11{fill:url(#SVGID_2_);}
	.st12{fill:#20BEE8;}
	.st13{fill:#0CACC6;}
	.st14{fill:#1CCB32;}
</style>
<g>
	<circle class="st0" cx="43.3" cy="43.3" r="43.3"/>
	<path class="st1" d="M43.3,69.6L43.3,69.6c-4.8,0-8.6-3.9-8.6-8.6v-5.1c0-4.8,3.9-8.6,8.6-8.6l0,0c4.8,0,8.6,3.9,8.6,8.6v5.1
		C51.9,65.7,48,69.6,43.3,69.6z"/>
	<path class="st2" d="M67.2,33.7l-5.7-2v49.6c4.2-1.6,8.1-3.9,11.4-6.8V31.7L67.2,33.7z"/>
	<path class="st2" d="M19.3,33.7l-5.7-2v42.8c3.4,2.9,7.2,5.2,11.4,6.8V31.7L19.3,33.7z"/>
	<path class="st1" d="M14.7,30.9c-0.4-0.3-1,0-1,0.6c0,0,0,0,0,0c0,3.2,2.6,5.7,5.7,5.7c3.2,0,5.7-2.6,5.7-5.7c0,0,0,0,0,0
		c0-0.5-0.6-0.8-1-0.6c-1.4,0.8-3,1.3-4.7,1.3C17.6,32.2,16,31.7,14.7,30.9z"/>
	<path class="st1" d="M62.5,30.9c-0.4-0.3-1,0-1,0.6c0,0,0,0,0,0c0,3.2,2.6,5.7,5.7,5.7s5.7-2.6,5.7-5.7c0,0,0,0,0,0
		c0-0.5-0.6-0.8-1-0.6c-1.4,0.8-3,1.3-4.7,1.3S63.9,31.7,62.5,30.9z"/>
	<path class="st1" d="M71.3,25.3c-0.1,0-0.1,0-0.2,0c-7-1.1-10.6-6.8-10.7-7c-0.4-0.7-0.2-1.5,0.5-1.9c0.7-0.4,1.5-0.2,1.9,0.5
		c0.1,0.1,3.1,4.8,8.7,5.7c0.8,0.1,1.3,0.8,1.2,1.6C72.6,24.8,72,25.3,71.3,25.3z"/>
	<path class="st1" d="M15.3,25.3c-0.7,0-1.3-0.5-1.4-1.2c-0.1-0.8,0.4-1.5,1.2-1.6c5.7-0.9,8.7-5.7,8.7-5.7c0.4-0.7,1.3-0.9,1.9-0.5
		c0.7,0.4,0.9,1.3,0.5,1.9c-0.1,0.2-3.7,5.9-10.7,7C15.4,25.3,15.3,25.3,15.3,25.3z"/>
</g>
</svg>
