<?xml version="1.0" encoding="utf-8"?>
<!-- Generator: Adobe Illustrator 21.0.0, SVG Export Plug-In . SVG Version: 6.00 Build 0)  -->
<svg version="1.1" id="Layer_1_1_" xmlns="http://www.w3.org/2000/svg" xmlns:xlink="http://www.w3.org/1999/xlink" x="0px" y="0px"
	 width="87.3px" height="86.6px" viewBox="0 0 87.3 86.6" style="enable-background:new 0 0 87.3 86.6;" xml:space="preserve">
<style type="text/css">
	.st0{fill:#FFCE00;}
	.st1{fill:#562912;}
	.st2{fill:#61C0EB;}
	.st3{fill:#E55725;}
	.st4{fill:#CC342F;}
	.st5{fill:url(#SVGID_1_);}
	.st6{fill:#FFFFFF;}
	.st7{fill:#D24103;}
	.st8{fill:#8D4D21;}
	.st9{fill:#261F11;}
	.st10{fill:#483D23;}
	.st11{fill:url(#SVGID_2_);}
	.st12{fill:#20BEE8;}
	.st13{fill:#0CACC6;}
	.st14{fill:#1CCB32;}
</style>
<g>
	<circle class="st0" cx="43.7" cy="43.3" r="43.3"/>
	<path class="st6" d="M61.5,68.5H25.8c-2.3,0-4.1-1.8-4.1-4.1v-18c0-2.3,1.8-4.1,4.1-4.1h35.7c2.3,0,4.1,1.8,4.1,4.1v18
		C65.7,66.6,63.8,68.5,61.5,68.5z"/>
	<path class="st6" d="M64.5,54l22.8-11.4v-0.3c0-1.5-0.1-2.9-0.2-4.4L47.2,57.9l37.5,0.6c0.5-1.4,1-2.8,1.4-4.2L64.5,54z"/>
	<path class="st6" d="M0.2,38C0.1,39.4,0,40.8,0,42.3v0.3L22.8,54L1.3,54.3c0.4,1.4,0.8,2.8,1.4,4.2l37.5-0.6L0.2,38z"/>
	<path class="st1" d="M24.7,36.8c-2,0-3.9-0.5-5.6-1.5c-1-0.6-1.3-1.9-0.7-2.9c0.6-1,1.9-1.3,2.9-0.7c2.3,1.4,5.4,1.2,7.6-0.4
		c0.9-0.7,2.3-0.5,3,0.4c0.7,0.9,0.5,2.3-0.4,3C29.4,36.1,27,36.8,24.7,36.8z"/>
	<path class="st1" d="M61.6,36.8c-2.4,0-4.7-0.7-6.6-2.1c-0.9-0.7-1.1-2-0.4-3c0.7-0.9,2-1.1,3-0.4c2.1,1.6,5.3,1.7,7.6,0.4
		c1-0.6,2.3-0.3,2.9,0.7c0.6,1,0.3,2.3-0.7,2.9C65.6,36.3,63.6,36.8,61.6,36.8z"/>
</g>
</svg>
