<?xml version="1.0" encoding="utf-8"?>
<!-- Generator: Adobe Illustrator 21.0.0, SVG Export Plug-In . SVG Version: 6.00 Build 0)  -->
<svg version="1.1" id="Layer_1_1_" xmlns="http://www.w3.org/2000/svg" xmlns:xlink="http://www.w3.org/1999/xlink" x="0px" y="0px"
	 width="86.6px" height="86.6px" viewBox="0 0 86.6 86.6" style="enable-background:new 0 0 86.6 86.6;" xml:space="preserve">
<style type="text/css">
	.st0{fill:#FFCE00;}
	.st1{fill:#562912;}
	.st2{fill:#61C0EB;}
	.st3{fill:#E55725;}
	.st4{fill:#CC342F;}
	.st5{fill:url(#SVGID_1_);}
	.st6{fill:#FFFFFF;}
	.st7{fill:#D24103;}
	.st8{fill:#8D4D21;}
	.st9{fill:#261F11;}
	.st10{fill:#483D23;}
	.st11{fill:url(#SVGID_2_);}
	.st12{fill:#20BEE8;}
	.st13{fill:#0CACC6;}
	.st14{fill:#1CCB32;}
</style>
<g>
	<circle class="st0" cx="43.3" cy="43.3" r="43.3"/>
	<path class="st9" d="M50.8,25.4c-2.8,0.9-6.2,1.1-7.6,1.1c-1.4,0-4.8-0.2-7.6-1.1c-5.3-1.8-13.7-2.9-20.2-2.7
		c-4.8,0.1-9.7,0.8-12.8,1.4c-1.4,0.3-2.2,1.6-1.9,3l0.3,1.4c0.2,0.8,0.8,1.4,1.6,1.7c0.4,0.1,0.8,0.4,1,0.9
		c0.6,1.5,3.5,10.3,5.2,13.6c1.3,2.7,4.9,5,13.3,5c11.9,0,16-7.8,17.9-12.9c0.2-0.5,0.5-1.5,0.8-2.5c0.4-1.4,1.2-2.8,1.6-3
		c0.2-0.1,0.5-0.2,0.7-0.2c0.3,0,0.5,0.1,0.8,0.2c0.4,0.2,1.2,1.6,1.6,3c0.3,1,0.6,2,0.8,2.5c1.9,5.1,6,13,17.9,12.9
		c8.4,0,12-2.3,13.3-5c1.6-3.3,4.6-12.1,5.2-13.6c0.2-0.5,0.6-0.8,1-0.9c0.8-0.3,1.4-0.9,1.6-1.7l0.3-1.4c0.3-1.4-0.6-2.7-1.9-3
		c-3.1-0.6-8-1.3-12.8-1.4C64.6,22.5,56.1,23.6,50.8,25.4z"/>
	<path class="st10" d="M48.9,33.3C49.1,39,54.7,44.6,60,45.9c7.7,1.9,13.5,0.2,16.8-6.9c1-2.1,3.1-6.8,3-9.3
		c-0.2-4.3-5.7-3.6-9.2-3.7C70.2,26,48.5,25.4,48.9,33.3z"/>
	<path class="st10" d="M37.9,33.3C37.7,39,32,44.6,26.8,45.9c-7.7,1.9-13.5,0.2-16.8-6.9c-1-2.1-3.1-6.8-3-9.3
		c0.2-4.3,5.7-3.6,9.2-3.7C16.6,26,38.3,25.4,37.9,33.3z"/>
	<path class="st1" d="M52.5,65.4c-1.1,0-2.3-0.1-3.5-0.3c-1.2-0.2-2-1.3-1.8-2.4c0.2-1.2,1.2-1.9,2.4-1.8c6.7,1,12.6-1.5,15.2-6.5
		c0.5-1,1.8-1.5,2.8-0.9c1,0.5,1.5,1.8,0.9,2.8C65.7,62.1,59.6,65.4,52.5,65.4z"/>
</g>
</svg>
