<?xml version="1.0" encoding="utf-8"?>
<!-- Generator: Adobe Illustrator 21.0.0, SVG Export Plug-In . SVG Version: 6.00 Build 0)  -->
<svg version="1.1" id="Layer_1_1_" xmlns="http://www.w3.org/2000/svg" xmlns:xlink="http://www.w3.org/1999/xlink" x="0px" y="0px"
	 width="86.6px" height="86.6px" viewBox="0 0 86.6 86.6" style="enable-background:new 0 0 86.6 86.6;" xml:space="preserve">
<style type="text/css">
	.st0{fill:#FFCE00;}
	.st1{fill:#562912;}
	.st2{fill:#61C0EB;}
	.st3{fill:#E55725;}
	.st4{fill:#CC342F;}
	.st5{fill:url(#SVGID_1_);}
	.st6{fill:#FFFFFF;}
	.st7{fill:#D24103;}
	.st8{fill:#8D4D21;}
	.st9{fill:#261F11;}
	.st10{fill:#483D23;}
	.st11{fill:url(#SVGID_2_);}
	.st12{fill:#20BEE8;}
	.st13{fill:#0CACC6;}
	.st14{fill:#1CCB32;}
</style>
<g>
	<circle class="st0" cx="43.3" cy="43.3" r="43.3"/>
	<path class="st1" d="M29.9,41.8c0.3,0.2,0.7-0.1,0.6-0.4c-0.5-2.6-3.1-4.6-6.2-4.6c-3.1,0-5.7,2-6.2,4.6c-0.1,0.3,0.3,0.6,0.6,0.4
		c1.6-0.9,3.5-1.4,5.6-1.4C26.3,40.4,28.3,40.9,29.9,41.8z"/>
	<circle class="st6" cx="60.3" cy="36.8" r="11.9"/>
	<circle class="st1" cx="60.3" cy="36.8" r="4.6"/>
	<path class="st1" d="M24.3,54.2c-1.7-0.8-3.4,1.1-2.5,2.7c4.6,7.4,12.4,12.3,21.4,12.3c9,0,16.8-4.9,21.4-12.3
		c1-1.6-0.8-3.6-2.5-2.7c-5.5,2.6-12,4.1-18.9,4.1C36.3,58.4,29.8,56.9,24.3,54.2z"/>
	<path class="st4" d="M43.3,60.5c-3.4,0-6.6-0.4-9.7-1v12.9v2.1v2.1c0,5.3,4.3,9.7,9.7,9.7c5.3,0,9.7-4.3,9.7-9.7v-2.1v-2.1V59.5
		C49.9,60.1,46.6,60.5,43.3,60.5z"/>
</g>
</svg>
