<?xml version="1.0" encoding="utf-8"?>
<!-- Generator: Adobe Illustrator 21.0.0, SVG Export Plug-In . SVG Version: 6.00 Build 0)  -->
<svg version="1.1" id="Layer_1_1_" xmlns="http://www.w3.org/2000/svg" xmlns:xlink="http://www.w3.org/1999/xlink" x="0px" y="0px"
	 width="86.6px" height="86.6px" viewBox="0 0 86.6 86.6" style="enable-background:new 0 0 86.6 86.6;" xml:space="preserve">
<style type="text/css">
	.st0{fill:#FFCE00;}
	.st1{fill:#562912;}
	.st2{fill:#61C0EB;}
	.st3{fill:#E55725;}
	.st4{fill:#CC342F;}
	.st5{fill:url(#SVGID_1_);}
	.st6{fill:#FFFFFF;}
	.st7{fill:#D24103;}
	.st8{fill:#8D4D21;}
	.st9{fill:#261F11;}
	.st10{fill:#483D23;}
	.st11{fill:url(#SVGID_2_);}
	.st12{fill:#20BEE8;}
	.st13{fill:#0CACC6;}
	.st14{fill:#1CCB32;}
</style>
<g>
	<circle class="st7" cx="43.3" cy="43.3" r="43.3"/>
	<ellipse class="st1" cx="28.8" cy="45.7" rx="4.4" ry="6.3"/>
	<ellipse class="st1" cx="62" cy="45.7" rx="4.4" ry="6.3"/>
	<path class="st1" d="M35.9,41.5c-0.5,0-1-0.3-1.2-0.9c-1.3-4.4-5.7-7.8-11-8.4c-0.7-0.1-1.1-0.7-1.1-1.3c0.1-0.7,0.7-1.2,1.3-1.1
		c6.3,0.7,11.5,4.8,13.1,10.2c0.2,0.6-0.2,1.3-0.8,1.5C36.1,41.5,36,41.5,35.9,41.5z"/>
	<path class="st1" d="M55,41.5c-0.1,0-0.2,0-0.3,0c-0.6-0.2-1-0.9-0.8-1.5c1.6-5.4,6.8-9.4,13.1-10.2c0.7-0.1,1.3,0.4,1.3,1.1
		c0.1,0.7-0.4,1.3-1.1,1.3c-5.3,0.6-9.7,4-11,8.4C56,41.2,55.5,41.5,55,41.5z"/>
	<path class="st1" d="M54.1,66.1c-0.5,0-1-0.2-1.3-0.5c-1.8-1.7-4.3-2.7-7-2.8c-3-0.1-5.8,0.9-7.8,2.8c-0.8,0.8-2,0.7-2.8-0.1
		c-0.7-0.8-0.7-2,0.1-2.8c2.7-2.6,6.6-4,10.6-3.8c3.6,0.1,7,1.5,9.5,3.8c0.8,0.7,0.8,2,0.1,2.8C55.2,65.9,54.7,66.1,54.1,66.1z"/>
</g>
</svg>
