<?xml version="1.0" encoding="utf-8"?>
<!-- Generator: Adobe Illustrator 21.0.0, SVG Export Plug-In . SVG Version: 6.00 Build 0)  -->
<svg version="1.1" id="Layer_1_1_" xmlns="http://www.w3.org/2000/svg" xmlns:xlink="http://www.w3.org/1999/xlink" x="0px" y="0px"
	 width="86.6px" height="86.6px" viewBox="0 0 86.6 86.6" style="enable-background:new 0 0 86.6 86.6;" xml:space="preserve">
<style type="text/css">
	.st0{fill:#FFCE00;}
	.st1{fill:#562912;}
	.st2{fill:#61C0EB;}
	.st3{fill:#E55725;}
	.st4{fill:#CC342F;}
	.st5{fill:url(#SVGID_1_);}
	.st6{fill:#FFFFFF;}
	.st7{fill:#D24103;}
	.st8{fill:#8D4D21;}
	.st9{fill:#261F11;}
	.st10{fill:#483D23;}
	.st11{fill:url(#SVGID_2_);}
	.st12{fill:#20BEE8;}
	.st13{fill:#0CACC6;}
	.st14{fill:#1CCB32;}
</style>
<g>
	<circle class="st0" cx="43.9" cy="43.8" r="43.3"/>
	<path class="st1" d="M71.3,40.6c0.4,0.3,1,0,1-0.6c0,0,0,0,0,0c0-3.2-2.6-5.7-5.7-5.7c-3.2,0-5.7,2.6-5.7,5.7c0,0,0,0,0,0
		c0,0.5,0.6,0.8,1,0.6c1.4-0.8,3-1.3,4.7-1.3C68.4,39.3,70,39.8,71.3,40.6z"/>
	<path class="st1" d="M29.1,40.6c0.4,0.3,1,0,1-0.6c0,0,0,0,0,0c0-3.2-2.6-5.7-5.7-5.7c-3.2,0-5.7,2.6-5.7,5.7c0,0,0,0,0,0
		c0,0.5,0.6,0.8,1,0.6c1.4-0.8,3-1.3,4.7-1.3C26.1,39.3,27.7,39.8,29.1,40.6z"/>
	<path class="st1" d="M69.5,27.8c-6.1,0-8.8-4.5-9.4-7.1c-0.2-0.8,0.3-1.5,1.1-1.7c0.8-0.2,1.5,0.3,1.7,1.1c0.1,0.6,1.5,5.8,8.4,4.7
		c0.8-0.1,1.5,0.4,1.6,1.2c0.1,0.8-0.4,1.5-1.2,1.6C70.9,27.8,70.2,27.8,69.5,27.8z"/>
	<path class="st1" d="M21.6,27.8c-0.7,0-1.4-0.1-2.2-0.2c-0.8-0.1-1.3-0.8-1.2-1.6c0.1-0.8,0.8-1.3,1.6-1.2c7,1.1,8.3-4.5,8.4-4.7
		c0.2-0.8,0.9-1.2,1.7-1.1c0.8,0.2,1.2,0.9,1.1,1.7C30.4,23.4,27.7,27.8,21.6,27.8z"/>
	<path class="st1" d="M31,47.4c-2.6-0.7-5.1,1.2-5.2,3.8c0,0,0,0,0,0.1c0,11.3,8.4,20.4,18.7,20.4c10.3,0,18.7-9.1,18.7-20.4
		c0,0,0,0,0-0.1c0-2.6-2.6-4.5-5.2-3.8c-4,1.1-8.6,1.7-13.5,1.7S35,48.5,31,47.4z"/>
	<path class="st6" d="M44.5,71.7c3.7,0,7.1-1.2,10-3.2h-20C37.4,70.5,40.8,71.7,44.5,71.7z"/>
	<path class="st2" d="M83.3,44c1.3,0.8,2.3,1.9,2.8,3.4c0.5,1.4,0.1,3.2-1.1,4.1c-1.1,0.8-2.6,0.7-3.8,0.1c-1.9-1.1-3.2-3.5-3.9-5.5
		c-0.6-1.6-1.5-2.8-2.7-3.8c-0.3-0.2-0.1-0.7,0.3-0.6C77.5,42,80.9,42.5,83.3,44z"/>
</g>
</svg>
