<?xml version="1.0" encoding="utf-8"?>
<!-- Generator: Adobe Illustrator 21.0.0, SVG Export Plug-In . SVG Version: 6.00 Build 0)  -->
<svg version="1.1" id="Layer_1_1_" xmlns="http://www.w3.org/2000/svg" xmlns:xlink="http://www.w3.org/1999/xlink" x="0px" y="0px"
	 width="86.6px" height="86.6px" viewBox="0 0 86.6 86.6" style="enable-background:new 0 0 86.6 86.6;" xml:space="preserve">
<style type="text/css">
	.st0{fill:#FFCE00;}
	.st1{fill:#562912;}
	.st2{fill:#61C0EB;}
	.st3{fill:#E55725;}
	.st4{fill:#CC342F;}
	.st5{fill:url(#SVGID_1_);}
	.st6{fill:#FFFFFF;}
	.st7{fill:#D24103;}
	.st8{fill:#8D4D21;}
	.st9{fill:#261F11;}
	.st10{fill:#483D23;}
	.st11{fill:url(#SVGID_2_);}
	.st12{fill:#20BEE8;}
	.st13{fill:#0CACC6;}
	.st14{fill:#1CCB32;}
</style>
<g>
	<linearGradient id="SVGID_1_" gradientUnits="userSpaceOnUse" x1="43.28" y1="-9.2545" x2="43.28" y2="78.849">
		<stop  offset="0" style="stop-color:#2A97FF"/>
		<stop  offset="0.468" style="stop-color:#75BEBE"/>
		<stop  offset="0.7635" style="stop-color:#D9CA34"/>
		<stop  offset="1" style="stop-color:#FFCE00"/>
	</linearGradient>
	<circle class="st5" cx="43.3" cy="43.3" r="43.3"/>
	<path class="st1" d="M16.9,28.7c-0.4,0-0.8-0.2-1.1-0.5c-0.5-0.6-0.4-1.5,0.2-2c2.8-2.4,6.4-3.9,10.1-4.3c0.8-0.1,1.5,0.5,1.5,1.3
		c0.1,0.8-0.5,1.5-1.3,1.5c-3.1,0.3-6.2,1.6-8.5,3.6C17.5,28.6,17.2,28.7,16.9,28.7z"/>
	<path class="st1" d="M69.2,28.7c-0.3,0-0.7-0.1-0.9-0.3c-2.4-2-5.4-3.3-8.5-3.6c-0.8-0.1-1.3-0.8-1.3-1.5c0.1-0.8,0.7-1.4,1.5-1.3
		c3.7,0.3,7.3,1.9,10.1,4.3c0.6,0.5,0.7,1.4,0.2,2C70,28.6,69.6,28.7,69.2,28.7z"/>
	<ellipse class="st1" cx="25" cy="44.4" rx="4.4" ry="6.3"/>
	<ellipse class="st1" cx="61.1" cy="44.4" rx="4.4" ry="6.3"/>
	<path class="st1" d="M56,68.3c1.1,0.2,1.9-1.4,1.1-2.5c-3.3-4.8-8.4-7.9-14.1-7.9c-5.7,0-10.8,3.1-14.1,7.9c-0.7,1.1,0,2.8,1.2,2.5
		c3.9-0.8,8.3-1.2,12.9-1.2C47.7,67.1,52.1,67.5,56,68.3z"/>
</g>
</svg>
