<?xml version="1.0" encoding="utf-8"?>
<!-- Generator: Adobe Illustrator 21.0.0, SVG Export Plug-In . SVG Version: 6.00 Build 0)  -->
<svg version="1.1" id="Layer_1_1_" xmlns="http://www.w3.org/2000/svg" xmlns:xlink="http://www.w3.org/1999/xlink" x="0px" y="0px"
	 width="86.6px" height="86.6px" viewBox="0 0 86.6 86.6" style="enable-background:new 0 0 86.6 86.6;" xml:space="preserve">
<style type="text/css">
	.st0{fill:#FFCE00;}
	.st1{fill:#562912;}
	.st2{fill:#61C0EB;}
	.st3{fill:#E55725;}
	.st4{fill:#CC342F;}
	.st5{fill:url(#SVGID_1_);}
	.st6{fill:#FFFFFF;}
	.st7{fill:#D24103;}
	.st8{fill:#8D4D21;}
	.st9{fill:#261F11;}
	.st10{fill:#483D23;}
	.st11{fill:url(#SVGID_2_);}
	.st12{fill:#20BEE8;}
	.st13{fill:#0CACC6;}
	.st14{fill:#1CCB32;}
</style>
<g>
	<circle class="st0" cx="43.3" cy="43.3" r="43.3"/>
	<path class="st1" d="M71.9,37.7c0.4,0.3,1,0,1-0.6c0,0,0,0,0,0c0-3.2-2.6-5.7-5.7-5.7c-3.2,0-5.7,2.6-5.7,5.7c0,0,0,0,0,0
		c0,0.5,0.6,0.8,1,0.6c1.4-0.8,3-1.3,4.7-1.3C68.9,36.4,70.5,36.9,71.9,37.7z"/>
	<path class="st1" d="M24,37.7c0.4,0.3,1,0,1-0.6c0,0,0,0,0,0c0-3.2-2.6-5.7-5.7-5.7c-3.2,0-5.7,2.6-5.7,5.7c0,0,0,0,0,0
		c0,0.5,0.6,0.8,1,0.6c1.4-0.8,3-1.3,4.7-1.3C21.1,36.4,22.7,36.9,24,37.7z"/>
	<path class="st1" d="M21.1,49.8c-1.4,0.5-2.2,2-1.6,3.3c3.2,8.2,12.7,15,23.8,15c11.1,0,20.5-6.9,23.8-15c0.5-1.4-0.3-2.9-1.6-3.3
		C52,45.3,34.5,45.3,21.1,49.8z"/>
	<path class="st4" d="M31.4,65.4c3.5,1.7,7.6,2.8,11.9,2.8c4.3,0,8.4-1,11.9-2.8c-3.3-2.5-7.4-4-11.9-4
		C38.8,61.4,34.7,62.9,31.4,65.4z"/>
</g>
</svg>
