<?xml version="1.0" encoding="utf-8"?>
<!-- Generator: Adobe Illustrator 21.0.0, SVG Export Plug-In . SVG Version: 6.00 Build 0)  -->
<svg version="1.1" id="Layer_1_1_" xmlns="http://www.w3.org/2000/svg" xmlns:xlink="http://www.w3.org/1999/xlink" x="0px" y="0px"
	 width="86.6px" height="86.6px" viewBox="0 0 86.6 86.6" style="enable-background:new 0 0 86.6 86.6;" xml:space="preserve">
<style type="text/css">
	.st0{fill:#FFCE00;}
	.st1{fill:#562912;}
	.st2{fill:#61C0EB;}
	.st3{fill:#E55725;}
	.st4{fill:#CC342F;}
	.st5{fill:url(#SVGID_1_);}
	.st6{fill:#FFFFFF;}
	.st7{fill:#D24103;}
	.st8{fill:#8D4D21;}
	.st9{fill:#261F11;}
	.st10{fill:#483D23;}
	.st11{fill:url(#SVGID_2_);}
	.st12{fill:#20BEE8;}
	.st13{fill:#0CACC6;}
	.st14{fill:#1CCB32;}
</style>
<g>
	<circle class="st0" cx="43.3" cy="43.3" r="43.3"/>
	<path class="st4" d="M69.8,18.5C62.7,5,49.6,14.5,51.9,24.6c1.8,7.9,10.5,19.1,10.5,19.1c1.3-0.4,13.3-4.8,19.1-10.5
		C88.8,26,82.9,10.9,69.8,18.5z"/>
	<path class="st4" d="M16.8,18.5c7.1-13.5,20.1-3.9,17.8,6.1c-1.8,7.9-10.5,19.1-10.5,19.1c-1.3-0.4-13.3-4.8-19.1-10.5
		C-2.3,26,3.6,10.9,16.8,18.5z"/>
	<path class="st1" d="M27.5,52c-1.1-0.4-2.1,0.8-1.8,2.1c1.9,7.4,9,12.9,17.6,12.9c8.6,0,15.7-5.5,17.6-12.9
		c0.3-1.3-0.7-2.4-1.8-2.1c-4.8,1.6-10.1,2.5-15.8,2.5C37.6,54.4,32.2,53.5,27.5,52z"/>
	<path class="st4" d="M43.3,59.4c-3.8,0-7,2.3-8.4,5.6c2.5,1.2,5.4,1.9,8.4,1.9c3.1,0,5.9-0.7,8.4-1.9C50.3,61.7,47,59.4,43.3,59.4z
		"/>
</g>
</svg>
