<?xml version="1.0" encoding="utf-8"?>
<!-- Generator: Adobe Illustrator 21.0.0, SVG Export Plug-In . SVG Version: 6.00 Build 0)  -->
<svg version="1.1" id="Layer_1_1_" xmlns="http://www.w3.org/2000/svg" xmlns:xlink="http://www.w3.org/1999/xlink" x="0px" y="0px"
	 width="86.6px" height="86.6px" viewBox="0 0 86.6 86.6" style="enable-background:new 0 0 86.6 86.6;" xml:space="preserve">
<style type="text/css">
	.st0{fill:#FFCE00;}
	.st1{fill:#562912;}
	.st2{fill:#61C0EB;}
	.st3{fill:#E55725;}
	.st4{fill:#CC342F;}
	.st5{fill:url(#SVGID_1_);}
	.st6{fill:#FFFFFF;}
	.st7{fill:#D24103;}
	.st8{fill:#8D4D21;}
	.st9{fill:#261F11;}
	.st10{fill:#483D23;}
	.st11{fill:url(#SVGID_2_);}
	.st12{fill:#20BEE8;}
	.st13{fill:#0CACC6;}
	.st14{fill:#1CCB32;}
</style>
<g>
	<circle class="st0" cx="43.3" cy="43.3" r="43.3"/>
	<path class="st1" d="M68.4,37.7c0.4,0.3,1,0,1-0.6c0,0,0,0,0,0c0-3.2-2.6-5.7-5.7-5.7c-3.2,0-5.7,2.6-5.7,5.7c0,0,0,0,0,0
		c0,0.5,0.6,0.8,1,0.6c1.4-0.8,3-1.3,4.7-1.3C65.4,36.4,67,36.9,68.4,37.7z"/>
	<path class="st1" d="M27.6,37.7c0.4,0.3,1,0,1-0.6c0,0,0,0,0,0c0-3.2-2.6-5.7-5.7-5.7c-3.2,0-5.7,2.6-5.7,5.7c0,0,0,0,0,0
		c0,0.5,0.6,0.8,1,0.6c1.4-0.8,3-1.3,4.7-1.3C24.6,36.4,26.2,36.9,27.6,37.7z"/>
	<path class="st1" d="M43.5,63c-7.2,0-14.4-2.8-19.7-7.7c-0.9-0.8-0.9-2.1-0.1-3c0.8-0.9,2.1-0.9,3-0.1c4.5,4.2,10.6,6.5,16.8,6.5
		c6,0,11.9-2.2,16.3-6.2c0.9-0.8,2.2-0.7,3,0.2c0.8,0.9,0.7,2.2-0.2,3C57.4,60.4,50.6,63,43.5,63z"/>
</g>
</svg>
