<?xml version="1.0" encoding="utf-8"?>
<!-- Generator: Adobe Illustrator 21.0.0, SVG Export Plug-In . SVG Version: 6.00 Build 0)  -->
<svg version="1.1" id="Layer_1_1_" xmlns="http://www.w3.org/2000/svg" xmlns:xlink="http://www.w3.org/1999/xlink" x="0px" y="0px"
	 width="86.6px" height="86.6px" viewBox="0 0 86.6 86.6" style="enable-background:new 0 0 86.6 86.6;" xml:space="preserve">
<style type="text/css">
	.st0{fill:#FFCE00;}
	.st1{fill:#562912;}
	.st2{fill:#61C0EB;}
	.st3{fill:#E55725;}
	.st4{fill:#CC342F;}
	.st5{fill:url(#SVGID_1_);}
	.st6{fill:#FFFFFF;}
	.st7{fill:#D24103;}
	.st8{fill:#8D4D21;}
	.st9{fill:#261F11;}
	.st10{fill:#483D23;}
	.st11{fill:url(#SVGID_2_);}
	.st12{fill:#20BEE8;}
	.st13{fill:#0CACC6;}
	.st14{fill:#1CCB32;}
</style>
<g>
	<circle class="st0" cx="43.3" cy="43.3" r="43.3"/>
	<path class="st1" d="M65.7,48.4c-0.1,0-0.3,0-0.4-0.1l-9.2-2.7c-0.6-0.2-1-0.6-1-1.2c-0.1-0.6,0.2-1.1,0.8-1.4c0,0,7.2-3.7,9.3-4.8
		c0.7-0.4,1.5-0.1,1.9,0.6c0.4,0.7,0.1,1.5-0.6,1.9c-1.2,0.6-4,2.1-6.2,3.2l5.8,1.7c0.7,0.2,1.2,1,1,1.7
		C66.9,48,66.3,48.4,65.7,48.4z"/>
	<path class="st1" d="M20.9,48.4c-0.6,0-1.2-0.4-1.4-1c-0.2-0.7,0.2-1.5,1-1.7l5.8-1.7c-2.2-1.1-5-2.6-6.2-3.2
		c-0.7-0.4-0.9-1.2-0.6-1.9c0.4-0.7,1.2-1,1.9-0.6c2.1,1.1,9.3,4.8,9.3,4.8c0.5,0.3,0.8,0.8,0.8,1.4c-0.1,0.6-0.5,1.1-1,1.2
		l-9.2,2.7C21.1,48.4,21,48.4,20.9,48.4z"/>
	<path class="st1" d="M71.3,30.6c-0.1,0-0.1,0-0.2,0c-7-1.1-10.6-6.8-10.7-7c-0.4-0.7-0.2-1.5,0.5-1.9c0.7-0.4,1.5-0.2,1.9,0.5l0,0
		c0,0,3,4.8,8.7,5.7c0.8,0.1,1.3,0.8,1.2,1.6C72.6,30.1,72,30.6,71.3,30.6z"/>
	<path class="st1" d="M15.3,30.6c-0.7,0-1.3-0.5-1.4-1.2c-0.1-0.8,0.4-1.5,1.2-1.6c5.7-0.9,8.7-5.7,8.7-5.7c0.4-0.7,1.3-0.9,1.9-0.5
		c0.7,0.4,0.9,1.3,0.5,1.9c-0.1,0.2-3.7,5.9-10.7,7C15.4,30.6,15.3,30.6,15.3,30.6z"/>
	<path class="st1" d="M28,68.4c-0.5,0-1.1-0.2-1.5-0.6l-3.8-3.6c-0.8-0.8-0.9-2.1-0.1-3c0.8-0.8,2.1-0.9,3-0.1l2.3,2.2l6.2-5.9
		c0.8-0.8,2.1-0.8,2.9,0l6.1,5.9l6.2-5.9c0.8-0.8,2.1-0.8,2.9,0l6.2,5.9l2.3-2.2c0.8-0.8,2.2-0.8,3,0.1c0.8,0.8,0.8,2.2-0.1,3
		L60,67.8c-0.8,0.8-2.1,0.8-2.9,0l-6.2-5.9l-6.2,5.9c-0.8,0.8-2.1,0.8-2.9,0l-6.1-5.9l-6.1,5.9C29.1,68.2,28.6,68.4,28,68.4z"/>
</g>
</svg>
