<?xml version="1.0" encoding="utf-8"?>
<!-- Generator: Adobe Illustrator 21.0.0, SVG Export Plug-In . SVG Version: 6.00 Build 0)  -->
<svg version="1.1" id="Layer_1_1_" xmlns="http://www.w3.org/2000/svg" xmlns:xlink="http://www.w3.org/1999/xlink" x="0px" y="0px"
	 width="88.9px" height="90.7px" viewBox="0 0 88.9 90.7" style="enable-background:new 0 0 88.9 90.7;" xml:space="preserve">
<style type="text/css">
	.st0{fill:#FFCE00;}
	.st1{fill:#562912;}
	.st2{fill:#61C0EB;}
	.st3{fill:#E55725;}
	.st4{fill:#CC342F;}
	.st5{fill:url(#SVGID_1_);}
	.st6{fill:#FFFFFF;}
	.st7{fill:#D24103;}
	.st8{fill:#8D4D21;}
	.st9{fill:#261F11;}
	.st10{fill:#483D23;}
	.st11{fill:url(#SVGID_2_);}
	.st12{fill:#20BEE8;}
	.st13{fill:#0CACC6;}
	.st14{fill:#1CCB32;}
</style>
<g>
	<circle class="st0" cx="44.6" cy="44.3" r="43.3"/>
	<path class="st1" d="M61.4,61.8c-0.5,0-1-0.2-1.4-0.6c-3.5-3.3-8.3-5.2-13.5-5.4c-5.8-0.2-11.2,1.7-15,5.4c-0.8,0.8-2.2,0.8-3-0.1
		c-0.8-0.8-0.8-2.2,0.1-3c4.6-4.4,11.3-6.8,18.1-6.5c6.2,0.2,12,2.6,16.2,6.5c0.9,0.8,0.9,2.1,0.1,3C62.5,61.5,61.9,61.8,61.4,61.8z
		"/>
	<path class="st1" d="M71.8,49.4c-0.1,0-0.3,0-0.4-0.1l-9.2-2.7c-0.6-0.2-1-0.6-1-1.2c-0.1-0.6,0.2-1.1,0.8-1.4c0,0,7.2-3.7,9.3-4.8
		c0.7-0.4,1.5-0.1,1.9,0.6c0.4,0.7,0.1,1.5-0.6,1.9c-1.2,0.6-4,2.1-6.2,3.2l5.8,1.7c0.7,0.2,1.2,1,1,1.7
		C72.9,49,72.4,49.4,71.8,49.4z"/>
	<path class="st1" d="M19.9,49.4c-0.6,0-1.2-0.4-1.4-1c-0.2-0.7,0.2-1.5,1-1.7l5.8-1.7c-2.2-1.1-5-2.6-6.2-3.2
		c-0.7-0.4-0.9-1.2-0.6-1.9c0.4-0.7,1.2-0.9,1.9-0.6c2.1,1.1,9.3,4.8,9.3,4.8c0.5,0.3,0.8,0.8,0.8,1.4c-0.1,0.6-0.5,1.1-1,1.2
		l-9.2,2.7C20.2,49.4,20,49.4,19.9,49.4z"/>
	<path class="st1" d="M73.9,34.4c-0.1,0-0.1,0-0.2,0c-7-1.1-10.6-6.8-10.7-7c-0.4-0.7-0.2-1.5,0.5-1.9c0.7-0.4,1.5-0.2,1.9,0.5
		c0.1,0.1,3.1,4.8,8.7,5.7c0.8,0.1,1.3,0.8,1.2,1.6C75.1,33.9,74.5,34.4,73.9,34.4z"/>
	<path class="st1" d="M17.8,34.4c-0.7,0-1.3-0.5-1.4-1.2c-0.1-0.8,0.4-1.5,1.2-1.6c5.7-0.9,8.7-5.7,8.7-5.7c0.4-0.7,1.3-0.9,1.9-0.5
		c0.7,0.4,0.9,1.3,0.5,1.9c-0.1,0.2-3.7,6-10.7,7C18,34.4,17.9,34.4,17.8,34.4z"/>
</g>
</svg>
