<?xml version="1.0" encoding="utf-8"?>
<!-- Generator: Adobe Illustrator 21.0.0, SVG Export Plug-In . SVG Version: 6.00 Build 0)  -->
<svg version="1.1" id="Layer_1_1_" xmlns="http://www.w3.org/2000/svg" xmlns:xlink="http://www.w3.org/1999/xlink" x="0px" y="0px"
	 width="86.6px" height="86.6px" viewBox="0 0 86.6 86.6" style="enable-background:new 0 0 86.6 86.6;" xml:space="preserve">
<style type="text/css">
	.st0{fill:#FFCE00;}
	.st1{fill:#562912;}
	.st2{fill:#61C0EB;}
	.st3{fill:#E55725;}
	.st4{fill:#CC342F;}
	.st5{fill:url(#SVGID_1_);}
	.st6{fill:#FFFFFF;}
	.st7{fill:#D24103;}
	.st8{fill:#8D4D21;}
	.st9{fill:#261F11;}
	.st10{fill:#483D23;}
	.st11{fill:url(#SVGID_2_);}
	.st12{fill:#20BEE8;}
	.st13{fill:#0CACC6;}
	.st14{fill:#1CCB32;}
</style>
<g>
	<circle class="st0" cx="43.3" cy="43.3" r="43.3"/>
	<path class="st6" d="M43.8,50.8c-3.3,0-6.3,1.4-8.3,3.6H52C50,52.2,47.1,50.8,43.8,50.8z"/>
	<path class="st1" d="M50.5,70.4c2.7-2,4.4-5.1,4.4-8.7c0-2.8-1.1-5.3-2.8-7.3H35.5c-1.8,1.9-2.8,4.5-2.8,7.3c0,3.6,1.7,6.7,4.4,8.7
		c1.9-1.1,4.2-1.8,6.7-1.8C46.2,68.6,48.5,69.3,50.5,70.4z"/>
	<path class="st4" d="M50.5,70.4c-1.9-1.1-4.2-1.8-6.7-1.8c-2.5,0-4.8,0.6-6.7,1.8c1.9,1.4,4.2,2.2,6.7,2.2
		C46.3,72.6,48.6,71.8,50.5,70.4z"/>
	<path class="st1" d="M17.1,25.3c-0.3,0-0.7-0.1-0.9-0.4c-0.4-0.5-0.4-1.3,0.1-1.7c2.8-2.4,6.4-3.9,10-4.2c0.7-0.1,1.3,0.4,1.3,1.1
		c0.1,0.7-0.4,1.3-1.1,1.3c-3.2,0.3-6.2,1.6-8.6,3.7C17.7,25.2,17.4,25.3,17.1,25.3z"/>
	<path class="st1" d="M69.4,25.3c-0.3,0-0.6-0.1-0.8-0.3c-2.4-2.1-5.5-3.4-8.7-3.7c-0.7-0.1-1.2-0.7-1.1-1.3
		c0.1-0.7,0.7-1.2,1.3-1.1c3.7,0.3,7.2,1.8,10,4.2c0.5,0.4,0.6,1.2,0.1,1.7C70.1,25.1,69.8,25.3,69.4,25.3z"/>
	<ellipse class="st6" cx="61.7" cy="36.6" rx="9.1" ry="9.5"/>
	<ellipse class="st1" cx="61.7" cy="36.6" rx="3.9" ry="4"/>
	<ellipse class="st6" cx="24.8" cy="36.6" rx="9.1" ry="9.5"/>
	<ellipse class="st1" cx="24.8" cy="36.6" rx="3.9" ry="4"/>
</g>
</svg>
