<?xml version="1.0" encoding="utf-8"?>
<!-- Generator: Adobe Illustrator 21.0.0, SVG Export Plug-In . SVG Version: 6.00 Build 0)  -->
<svg version="1.1" id="Layer_1_1_" xmlns="http://www.w3.org/2000/svg" xmlns:xlink="http://www.w3.org/1999/xlink" x="0px" y="0px"
	 width="86.6px" height="86.6px" viewBox="0 0 86.6 86.6" style="enable-background:new 0 0 86.6 86.6;" xml:space="preserve">
<style type="text/css">
	.st0{fill:#FFCE00;}
	.st1{fill:#562912;}
	.st2{fill:#61C0EB;}
	.st3{fill:#E55725;}
	.st4{fill:#CC342F;}
	.st5{fill:url(#SVGID_1_);}
	.st6{fill:#FFFFFF;}
	.st7{fill:#D24103;}
	.st8{fill:#8D4D21;}
	.st9{fill:#261F11;}
	.st10{fill:#483D23;}
	.st11{fill:url(#SVGID_2_);}
	.st12{fill:#20BEE8;}
	.st13{fill:#0CACC6;}
	.st14{fill:#1CCB32;}
</style>
<g>
	<circle class="st0" cx="43.3" cy="43.3" r="43.3"/>
	<path class="st8" d="M58.4,68.2c1.3,0.2,2.2-1.3,1.3-2.3c-3.8-4.4-9.8-7.3-16.5-7.3c-6.7,0-12.7,2.9-16.5,7.3c-0.9,1,0,2.5,1.3,2.3
		c4.5-0.7,9.7-1.1,15.1-1.1C48.7,67.1,53.9,67.5,58.4,68.2z"/>
	<path class="st1" d="M59.2,45.7c-0.3-0.2-0.7,0.1-0.6,0.4c0.5,2.6,3.1,4.6,6.2,4.6c3.1,0,5.7-2,6.2-4.6c0.1-0.3-0.3-0.6-0.6-0.4
		c-1.6,0.9-3.5,1.4-5.6,1.4C62.7,47.1,60.8,46.6,59.2,45.7z"/>
	<path class="st1" d="M16.2,45.7c-0.3-0.2-0.7,0.1-0.6,0.4c0.5,2.6,3.1,4.6,6.2,4.6c3.1,0,5.7-2,6.2-4.6c0.1-0.3-0.3-0.6-0.6-0.4
		c-1.6,0.9-3.5,1.4-5.6,1.4C19.7,47.1,17.8,46.6,16.2,45.7z"/>
	<path class="st1" d="M13.6,38.7c-0.2,0-0.5-0.1-0.7-0.2c-0.7-0.4-0.9-1.3-0.5-1.9c2.4-4,6.7-6.7,10.8-6.6c0.8,0,1.4,0.7,1.4,1.4
		c0,0.8-0.6,1.4-1.4,1.4c0,0-0.1,0-0.1,0c-3.1,0-6.4,2.1-8.2,5.2C14.5,38.4,14,38.7,13.6,38.7z"/>
	<path class="st1" d="M73,38.7c-0.5,0-1-0.2-1.2-0.7c-1.8-3.1-5.2-5.2-8.2-5.2c0,0-0.1,0-0.1,0c-0.8,0-1.4-0.6-1.4-1.4
		c0-0.8,0.6-1.4,1.4-1.4c4.1-0.1,8.5,2.6,10.8,6.6c0.4,0.7,0.2,1.5-0.5,1.9C73.5,38.6,73.3,38.7,73,38.7z"/>
	<path class="st2" d="M76.4,59.5c3.3,1.9,5.8,4.5,7.1,8.1c1.2,3.5,0.5,7.8-2.4,10.1c-2.6,2-6.4,1.9-9.3,0.4
		c-4.8-2.5-7.9-8.3-9.8-13.1c-1.6-3.9-3.7-6.7-6.9-9c-0.7-0.5-0.3-1.7,0.6-1.6C62.2,55.1,70.5,56.1,76.4,59.5z"/>
</g>
</svg>
