<?xml version="1.0" encoding="utf-8"?>
<!-- Generator: Adobe Illustrator 19.0.0, SVG Export Plug-In . SVG Version: 6.00 Build 0)  -->
<svg version="1.1" id="Camada_1" xmlns="http://www.w3.org/2000/svg" xmlns:xlink="http://www.w3.org/1999/xlink" x="0px" y="0px"
	 width="1061.7px" height="1080.5px" viewBox="1204.8 -142.9 1061.7 1080.5"
	 style="enable-background:new 1204.8 -142.9 1061.7 1080.5;" xml:space="preserve">
<style type="text/css">
	.st0{fill:#F5CF41;}
	.st1{fill:#F8E085;}
	.st2{fill:#FBEFBF;}
	.st3{fill:#F8DE7A;}
	.st4{fill:#7E5537;}
	.st5{fill:#90469C;}
	.st6{fill:#F2BF02;}
	.st7{fill:#ADDEF1;}
	.st8{fill:#774E3A;}
	.st9{fill:#AEDEF1;}
	.st10{fill:#9F55A7;}
	.st11{fill:#FEECD5;}
	.st12{fill:#EC8151;}
	.st13{fill:#FEDAAB;}
	.st14{fill:#F6C28D;}
	.st15{fill:#EC6F3A;}
	.st16{fill:#BEEDFE;}
	.st17{fill:#D7EDF5;}
	.st18{fill:#ADDBEE;}
	.st19{fill:#EFEDEB;}
	.st20{fill:#E7E3E7;}
	.st21{fill:#A56DAA;}
	.st22{fill:#FADF86;}
	.st23{fill:#F4A29A;}
	.st24{fill:#7F5537;}
	.st25{fill:#FDFDFD;}
	.st26{fill:#FEFDFD;}
	.st27{fill:#F1DFC1;}
	.st28{fill:#E8E4D3;}
	.st29{fill:#f2e3fc;}
</style>
<g>
	<g>
		<path class="st0" d="M1752.4-142.8c9.2,0,18.5,0,27.7,0c0.2,0.6,0.1,1-0.4,1.3c-5.7,1.6-11.5,0.6-17.3,0.7
			c-3.2,0.1-6.5,0.6-9.6-0.7C1752.2-141.8,1752.1-142.2,1752.4-142.8z"/>
		<path class="st1" d="M1752.4-142.8c0,0.3,0,0.5-0.1,0.7c-2.2,1.7-4.4,1.7-6.5,0c0.1-0.2,0.1-0.5,0.1-0.7
			C1748-142.8,1750.2-142.8,1752.4-142.8z"/>
		<path class="st2" d="M1789.9-142.8c0,0.2,0,0.5,0,0.7c-1.7,1.6-3.5,1.4-5.4,0.6c-0.5-0.3-0.6-0.7-0.3-1.3
			C1786.1-142.8,1788-142.8,1789.9-142.8z"/>
		<path class="st3" d="M1784.2-142.8c0,0.2,0,0.5,0.1,0.7c-1.4,1.3-2.7,1.3-4,0c0-0.2-0.1-0.5-0.1-0.7
			C1781.5-142.8,1782.8-142.8,1784.2-142.8z"/>
		<path class="st4" d="M1590,478.4c-21.8-16.1-41.3-34.4-57.8-55.9c-16.8-21.9-29.8-45.7-35.2-73.1c-0.7-3.4-2.6-1.9-4.1-1.6
			c-15.2,2.4-28.7-0.8-39.3-12.6c-18.9-21-12.3-54.3,13.2-66.4c0.7-0.3,1.4-0.7,2.6-1.2c-9-9.1-13.8-20-15.3-32.2
			c-2.7-22.3,2.8-41.9,19.2-58c8.2-8,18-12.3,29.2-13.9c1.6-0.2,2.8-0.1,2.2-2.5c-6.7-25.1,0.8-47.4,15-67.6
			c16.8-23.9,39.1-40.5,68.2-46.9c20.8-4.6,41-2.4,60.3,7.1c2.6,1.3,3.9,1.3,6-1.1C1682.1,20,1718.3,3.3,1760-3.1
			c20-3,40.1-3.4,60.1,0.1c70.8,12.6,121.8,49.9,147,119c0.6,1.6,0.7,3.3,3.3,3.3c21.6-0.2,40.3,8.1,57.2,20.7
			c29.4,22,48.4,51.1,55.7,87.2c3.8,18.8,2.7,37.3-8.1,54.2c-0.4,0.7-1.3,1.4,0,2.3c9.4,6.9,12.7,17.2,14.1,27.9
			c2.2,18.2-0.5,35.6-11.3,50.9c-6.5,9.2-14.7,17.2-24.3,23.3c-2.5,1.6-2.4,2.3-0.4,4.2c12,11.6,15.9,25.7,11.4,41.7
			c-4.5,16.1-15.6,26-31.6,29.7c-10.8,2.5-21.4,0.4-30.8-5.7c-3-1.9-4.1-1.4-5.9,1.3c-4,6-9,11.2-13.7,16.6
			c-1.5,3.4-4.7,5.2-6.9,7.9c-3.7,3.6-8,6.5-11.8,9.9c-29.5,22-62.7,35.6-98.3,43.8c-7.3,1.7-14.7,2.8-22,4.1
			c-4,0.7-4.2,1.2-2.3,4.7c10.5,19.1,22.5,37.2,36.7,53.7c8,9.3,16.7,17.8,26.4,25.3c6.6,5.3,13.6,10.1,21.3,13.9
			c2.1,1.4,4.8,1.8,6.3,4.1c11,5.9,22.9,8.9,35.1,11.1c19.5,3.4,38.9,2.2,58.2-2.1c2.6-0.6,3.5-1.3,3.4-4.5
			c-0.2-6.8,3.1-12.6,8-17.3c9.5-9.1,21.1-12.4,33.8-9.8c13.4,2.7,19.3,15.4,13.7,27.9c-7.1,16-29.9,24.3-45.4,16.4
			c-1.1-0.5-2.4-1.1-3-2c-3.6-5.6-8.3-4-13.4-2.9c-31.8,6.6-62.6,4-92.4-9.4c-0.4-0.2-0.8-0.2-1.2-0.3c-3-0.1-5.4-1.7-7.9-3.2
			c-7.2-3.7-13.8-8.4-20.4-13.1c-23.9-18.7-42.6-41.8-58.3-67.5c-0.7-1.2-1.4-2.3-2.3-3.3c-2.9-4.4-5.4-9.1-7.5-13.9
			c-2.1-4.9-5.4-6.2-10.2-5.6c-1.2,0.2-2.4,0.4-3.6,0.7c-28,2.8-55.8,0.7-83.4-4.4c-18.4-3.4-36.7-7.6-54.5-13.4
			c-3.9-1.6-7.9-2.7-12-0.5c-0.9,0.3-1.9,0.6-2.8,0.9c-3.2,0.9-6.2,2.3-9.3,3.5c-26.7,8.7-53.9,15.2-81.9,18
			c-25.4,2.6-50.5,0.8-75-7c-14.2-4.5-27.5-11-39.2-20.4c-7.4-6-15.1-11.7-20.9-19.4c-2-2.2-4.4-4.2-5.2-7.3
			c-9.1-12.4-16.9-25.6-22.9-39.7c-0.7-1.5-1.6-1.9-3-2.3c-11-2.6-17.2-10.3-20.7-20.4c-2.9-8.5-2.7-16.9,0.5-25.4
			c4.7-12.5,18.6-15.9,28.5-10.1c14.7,8.6,20.5,31.7,11.8,46.3c-2,3.3-4.6,6.1-8.1,7.7c-1.5,0.7-2,1.4-1.2,3.1
			c6.2,13.5,13.2,26.4,22.9,37.8c2.4,1.2,3.8,3.5,5.8,5.3c5.3,6.8,12,12,18.7,17.1c19.6,14.4,41.7,22,65.7,24.4
			c27.7,2.8,55,0,82.1-6.3c11.5-2.7,23-5.6,34.3-9c3.5-1,7-2.3,10.5-3.4c-0.3-1.4-1.8-1-2.6-1.6c-22-8.6-42.6-19.7-62-32.9
			C1592.6,481.4,1590.7,480.5,1590,478.4z"/>
		<path class="st5" d="M1668.2,523.2c3.8-3,7.7-2,11.6-0.1c-2.3,4.7-5.4,9-7.7,13.7c-17.9,30.6-33.9,62.2-45.2,95.9
			c-6.8,20.3-13,40.9-16.2,62.1c-1.2,7.5-2.6,15-3.6,22.5c-0.7,4.9-0.5,5.4,4,7.6c30.9,15,62.9,26.3,97,31.2
			c16.6,2.4,33.2,4,49.9,3.1c22.8-1.2,45.3-4.9,67.3-11.6c18.7-5.7,36.4-13.5,53.8-22.3c3.3-1.6,4.1-3.6,3.5-7.1
			c-4.9-28.6-12.3-56.5-22.4-83.8c-10.6-28.9-23.4-56.8-35.8-84.8c-1.4-3.1-2.9-6.2-5.2-8.7c2.9-1.3,6.1-0.5,9.1-0.7
			c1.7-0.1,2.2,1.3,2.8,2.5c3.1,5.9,6.3,11.9,9.4,17.8c11.6,25.6,23.2,51.1,32.6,77.6c1.6,5.1,3.5,10.1,4.9,15.3
			c0.8,2.7,1.7,5.4,1.7,8.3c1.6,5.9,3.1,11.9,4.7,17.8c3.8,14.9,6.4,30,9.3,45c0.4,2.2-0.1,3.9-2.3,5.1
			c-15.4,8.3-30.9,16.2-47.4,22.1c-1.5,0.5-2.8,1.5-4.2,2.2c-2.4,2.1-5.3,2.4-8.3,2.6c-7.1,1.8-14.1,3.7-21.3,5.4
			c-10.1,2.4-20.2,4.4-30.6,5.2c-1.3,0.7-2.9-0.1-4.3,0.6c-1,0.1-2.1,0.1-3.1,0.2c-1.6,0.7-3.4-0.1-5.1,0.6
			c-2.6,0.1-5.2,0.2-7.9,0.3c-7.6,0.4-15.1,0.4-22.7,0c-2.3-0.1-4.7-0.2-7-0.2c-1.6-0.8-3.5,0.1-5.1-0.6c-1.3-0.1-2.6-0.2-3.9-0.3
			c-1.4-0.6-2.9,0.1-4.3-0.5c-0.7-0.1-1.5-0.1-2.2-0.2c-1.3-0.7-2.9,0.1-4.3-0.6c-11.4-0.9-22.4-3.5-33.4-6.2
			c-7.1-1.8-14.2-3.8-21.1-6.4c-0.8-0.1-1.5,0.3-2.3,0.2c-2.6-0.8-5.2-1.5-7.5-3.1c-13.7-6.1-27.8-11.3-41.3-18
			c-1.8-0.9-3.7-1.5-5.4-2.5c-2-1.1-3.4-2.9-3-5.3c1.7-10,2.8-20.1,4.6-30.2c2.1-11.7,5.2-23.2,8-34.7c0.2-0.8,0.4-1.5,0.3-2.3
			c-0.6-3,0.9-5.7,1.5-8.5c1.2-3.5,2.4-7,3.5-10.5c11.8-37.2,28.7-72,48.2-105.7c1.4-2.5,2.6-5.1,4.2-7.4
			C1666.5,524.6,1667.1,523.7,1668.2,523.2z"/>
		<path class="st6" d="M1780.2-142.1c1.3,0,2.7,0,4,0c1.9,0,3.8,0,5.7,0c54.6,4.1,107.1,16.9,157.2,39.2
			c18.2,8.1,35.6,17.6,50.9,30.4c6,5,11.3,10.6,15,17.6c7.4,14.1,3.8,28.3-9.7,36.8c-11.5,7.3-24.4,10.4-37.6,12.4
			c-27.8,4.2-55.7,4.4-83.7,1.3c-15.7-1.7-31.4-3.5-46.7-6.9c-47.4-10.5-93.2-25.1-134.3-51.8c-9.7-6.3-18.7-13.6-25.5-23.2
			c-9.8-13.9-8.2-31.7,9.2-41.7c11.4-6.6,24-9.3,36.7-11.3c8-1.3,16.1-2.5,24.3-2.7c2.2,0,4.4,0,6.5,0
			C1761.6-142,1770.9-142.1,1780.2-142.1z"/>
		<path class="st7" d="M1611,649.5c-0.8,2.7-1.6,5.5-2.4,8.2c-13.9,3.1-27.9,3.9-41.9,0.6c-9.6-2.2-17-7.4-20.9-17
			c-1.4-3.4-1.8-6.8-1.6-10.3c0.1-2.1-0.7-3.1-2.9-2.6c-8.8,2-17.8,1.9-26.7,1.4c-11-0.6-21.7-2.6-31-9.3
			c-8.4-6.1-12.6-17.8-9.5-27.8c1.5-4.9,1.5-4.7-3.5-4.5c-10.4,0.4-20.8-0.2-31.1-2.3c-10-2-19.8-4.4-28.9-9.2
			c-12.4-6.7-20-16.5-20.4-30.9c-0.3-9.7,3.9-18.1,9.8-25.7c8.4-11,19.4-18.8,31.2-25.7c1.2-0.7,2.5-1.1,3.2-2.4
			c1.8,2.2,3.7,4.4,5.5,6.6c-0.8,1.6-2.4,2.1-3.8,2.9c-10.9,6.3-21,13.5-28.8,23.6c-2.9,3.7-5.1,7.7-6.8,12
			c-3.7,9.6-1.1,19.2,7.2,26.9c5.8,5.4,12.9,8.6,20.4,10.7c12.5,3.5,25.2,5.5,38.2,5.1c10.6-0.3,21.1-1.7,31.5-4
			c1.3-0.3,2.6-0.7,4-0.7c2.4,0,4.3,1,4.9,3.5c0.7,2.6-0.5,4.6-2.9,5.6c-3.3,1.5-6.8,2-10.3,2.4c-5.5,0.6-9.9,2.1-11.1,8.5
			c-1.3,7,0,13,5.7,17.6c5.5,4.5,12.1,6.8,19,7.8c17,2.5,33.6,0.5,49.9-4.5c2.2-0.7,4.4-1.4,6.7-1.6c2.4-0.2,4.4,0.3,5.3,2.8
			c1,2.6-0.4,4.5-2.5,5.8c-2.3,1.5-5.1,1.8-7.7,2.5c-5.6,1.6-6.2,2.4-6,8.3c0.2,5.1,2.5,9.1,6.7,12c5.7,3.8,12,5.7,18.8,5.9
			c9.8,0.2,19.6,0.3,29.2-2.3C1608.6,649.1,1609.9,648.7,1611,649.5z"/>
		<path class="st7" d="M1931.8,640.8c-2.4-0.7-4.5-1.7-6.5-3.1c-0.9-1.3-1.1-2.8-1-4.3c0.2-3.6-1.5-5.5-5-6.3
			c-2.5-0.6-5-1.5-7.3-2.5c-3.3-1.4-4.7-3.8-3.7-6.3c1-2.6,3.4-3.6,6.8-2.5c10.1,3.3,20.5,5.7,31,6.9c12,1.4,23.9-0.4,35.3-4.2
			c3.2-1.1,6.1-3,8.6-5.3c5.1-4.8,6.1-10.7,4.7-17.2c-1-4.5-3.2-7.6-8.4-7.9c-3.9-0.3-7.8-1.1-11.6-2.4c-2.6-0.8-5-2.2-4.3-5.5
			c0.7-3.2,3.4-3.8,6.1-3.5c6.2,0.6,12.3,2.1,18.5,2.8c19.7,2.3,39.1,1.6,58-5c6.3-2.2,12.3-5,17.2-9.9c8.5-8.5,10.3-19,5-29.9
			c-4.9-9.9-12.4-17.5-21.1-23.9c-14.1-10.5-29.8-17.9-46.7-22.6c-9.2-2.5-18.3-5.2-27.9-6c-1.6-0.1-3.3-0.4-4.4-1.7
			c2.4-2.4,4.9-4.8,7.3-7.2c7.9,1.9,15.8,3.6,23.6,5.7c23.4,6.2,44.8,16.6,62.7,33c8.4,7.7,15.1,16.8,17.6,28.6
			c3.1,15-5.7,29.6-18.8,36.7c-12.2,6.6-25.4,9.1-38.8,11c-8.9,1.3-17.8,0.5-27,0.8c2.4,5.9,3.2,12.2,1.5,18.4
			C2000,619.4,1991,625,1980,628c-14.3,3.9-29,3.5-43.5,1.4c-3.3-0.5-3.8,0.4-3.6,3.2C1932.9,635.4,1932.8,638.2,1931.8,640.8z"/>
		<path class="st8" d="M1831.3,756.6c2.5-1.8,5.4-2.1,8.3-2.6c2.3,15.2,3.4,30.5,1.1,45.8c-3.4,22.3-14.6,39.1-40,43.4
			c4.5,8,7.3,16.6,8.3,25.6c2.1,17.4,1.9,34.7-5.6,51.1c-1.4,3.1-3.2,6-5.2,8.7c-5.4,7.2-16.7,7-22.1-0.5c-5.7-8-8.8-17.1-10.3-26.7
			c-2.7-17.2-1.6-34.1,4.5-50.5c1.1-3.1,2.7-5.9,4.5-8.6c3.4-4.9,7.8-7.8,14-7.5c6,0.3,11.9-0.1,17.7-2
			c14.5-4.6,21.9-15.4,24.8-29.6C1834.6,787.7,1833.4,772.1,1831.3,756.6z"/>
		<path class="st8" d="M1645.4,750.8c3-0.2,5.4,1.9,8.3,2.4c0.8,4-0.2,8.1,0.6,12c0.9,10.2,3,20.2,8.8,28.9
			c9.2,13.7,22.9,19.2,38.6,20.1c15.4,0.8,20.2,4,25.3,18.9c4.8,14.1,5,28.5,3.7,43.1c-1,10.5-3.6,20.6-9.5,29.5
			c-3.2,4.8-7.2,7.9-13.5,7.5c-4.9-0.3-8.1-2.9-10.7-6.5c-5.3-7.1-8-15.4-9.3-24c-2.6-16.6-2.5-33,2.7-49.1c1.2-3.8,3.1-7.2,5.1-11
			c-3.1-0.7-6-1.2-8.8-1.9c-22.8-5.9-35.1-21.3-39.4-43.8C1645.4,768.2,1645.4,759.5,1645.4,750.8z"/>
		<path class="st7" d="M1660.3,517.6c-3.6,1.2-7.2,2.4-10.8,3.6c-4.3-2.3-7.9-5.6-11.9-8.4c-12.2-8.4-25.2-15.4-39.1-20.7
			c-20.2-7.3-41.1-10.5-62.5-12.2c-29.3-2.3-57,3.1-84,13.7c-1.6,0.6-3.2,1.6-5.1,0.9c-1.9-1.7-3.7-3.4-4.9-5.7
			c17.8-8.8,36.6-14,56.2-16.5c10.4-1.4,20.8-1.5,31.2-1.5c20.1,0,39.9,1.7,59.1,7.8c0.4,0.1,1-0.2,1.5-0.3
			c20.8,14.8,43.3,26.7,66.8,36.5C1657.8,516,1659.6,516.1,1660.3,517.6z"/>
		<path class="st9" d="M1879.6,661.8c-1.4-2.6-1.9-5.4-2.4-8.2c0.6-2.2,2.3-1.2,3.6-1.2c6,0,11.8,1.4,17.8,0.8
			c8.4-0.8,16.1-3.3,22.6-9c2.4,1.3,4.9,2.5,7.3,3.8c-6,8.5-14.9,11.5-24.6,13.1c-6.6,1.1-13.2,0.6-19.7,0
			C1882.7,660.9,1880.9,660.4,1879.6,661.8z"/>
		<path class="st10" d="M1736.5,768.8c7.6,0,15.1,0,22.7,0C1751.6,769.7,1744.1,769.7,1736.5,768.8z"/>
		<path class="st10" d="M1654.3,765.2c-1.3-4-0.5-8-0.6-12c0.5,0.2,1,0.4,1.5,0.6C1653,757.4,1655,761.4,1654.3,765.2z"/>
		<path class="st11" d="M2097.8,501.9c0.7,1.2,0.6,2.4,0.1,4.1C2096.8,504.2,2098,503.1,2097.8,501.9z"/>
		<path class="st10" d="M1724.4,768c1.7,0,3.5-0.6,5.1,0.6C1727.8,768.7,1726,768.9,1724.4,768z"/>
		<path class="st10" d="M1767.1,768.6c1.6-1.2,3.4-0.6,5.1-0.6C1770.5,768.8,1768.8,768.7,1767.1,768.6z"/>
		<path class="st10" d="M1709.7,766.4c1.4,0,3-0.6,4.3,0.6C1712.5,767.1,1711.1,767.2,1709.7,766.4z"/>
		<path class="st10" d="M1775.2,767.8c1.3-1.2,2.8-0.6,4.3-0.6C1778.1,768,1776.7,767.9,1775.2,767.8z"/>
		<path class="st10" d="M1716.2,767.2c1.5,0,3-0.6,4.3,0.5C1719,767.9,1717.6,768,1716.2,767.2z"/>
		<path class="st12" d="M1463.6,239.1c-5.5-21.5,2.5-49.6,23.7-61.8c6.5-3.7,13.5-5.6,20.9-5.9c7.1-0.3,8.6-2.2,6.1-8.7
			c-5.9-15.4-4.2-30.5,1.9-45.2c11.9-28.6,32.7-48.5,61.5-59.3c23.7-8.9,47.4-7.7,70,4.5c5.4,2.9,6.1,2.7,9.8-1.8
			c18.2-22,41-37.4,67.8-46.9c16.5-5.9,33.4-8.9,50.8-10.1c35.2-2.4,68.7,4,100.1,20c41,20.9,69,53.3,83.2,97.3c2,6.1,2,6.2,8.1,6.3
			c22.4,0.3,41.8,8.8,58.8,22.7c23.4,19.1,39.3,43.4,46.8,72.7c4.3,16.8,4.7,33.6-3.5,49.6c-1.7,3.3-3.7,6.3-6.1,9.1
			c-2.6,3.2-1.9,6.6,2,7.7c6.8,1.9,9.7,6.9,11.9,12.8c8,22,1.3,50.6-15.1,64.4c-3,1.2-5.6-0.6-8.2-1.4c-12.6-3.8-24.5-9-34.8-17.3
			c-12.4-10-15.9-23.5-9.7-38.3c1.8-4.2,1.8-4.3-2.6-5.9c-17.8-6.5-33.6-16.2-47-29.5c-9.1-9-16.6-19.4-22.6-30.8
			c-10.7-20-17-41.4-20.4-63.8c-0.7-4.9-0.8-4.9-5.2-2.8c-19,9.5-38.8,16.5-59.6,20.4c-34.5,6.6-67.9,2.9-99.9-11.8
			c-24.1-11.1-44.5-27-62.7-46c-5.2-5.4-4.9-5.5-8.6,1.3c-9.7,17.9-21.1,34.7-35.3,49.2c-16.4,16.8-35.9,28.2-59.8,30.6
			c-8.9,0.9-17.7-0.1-26.3-2.2c-2.9-0.7-4.1,0.1-4.5,2.8c-0.8,4.6-2.3,8.9-4.5,13c-6.6,12-17.6,16.7-30.4,17.4
			c-18.9,1.1-36.6-4.2-54-10.6C1465.2,240.5,1464.3,239.9,1463.6,239.1z"/>
		<path class="st13" d="M1510.8,283.3c7.5,1.1,15,2.2,22.6,2.1c21.1-0.2,36-12.2,40.1-32.8c1.1-5.6,1.1-5.5,6.9-4.8
			c18,2.1,35.8,1.6,53.2-4c26-8.4,43.2-26.2,54.2-50.7c0.9-2.1,1.8-4.2,2.9-6.7c6.8,6.6,13.2,13.4,20.4,19.4
			c18.3,15.3,38.6,26.6,61.7,32.9c24.9,6.7,49.8,6.6,74.9,0.8c14.5-3.3,28.5-7.8,42.1-13.7c2.9-1.2,3.3-0.4,3.7,2.3
			c4.8,27.7,16.1,52.3,35.7,72.7c11.6,12.1,25.2,21.5,40.2,28.8c3.3,1.6,4.7,2.9,4.2,7.1c-1.7,15.8,5.1,28.2,16.8,38.2
			c5.5,4.7,11.6,8.5,18.1,11.8c6.1,3.1,6.1,3.1,4,10.1c-3.2,0.2-5.2,2.1-7.1,4.5c-15.6,20.1-35.3,35.8-56.9,49
			c-32.5,19.9-68.2,30.8-105.7,36.5c-13.4,2-27,3.1-40.6,3.2c-23.1,0.2-46.1-2.1-69-5.6c-32-4.9-62.7-13.9-91.6-28.3
			c-18.2-9.1-35-20.2-50.4-33.6c-25.8-22.5-46-49.2-60.8-79.9c-8.3-17.2-14.9-35-19.7-53.5C1510.5,287,1509.4,285.1,1510.8,283.3z"
			/>
		<path class="st14" d="M1510.8,283.3c3.1,14.6,8,28.7,13.6,42.5c7.5,18.5,17,36.1,28.6,52.4c11,15.5,23.8,29.4,38.1,42.1
			c15.3,13.6,32.2,24.9,50.3,34.1c23.5,11.9,48.5,20.2,74.4,25.5c13.4,2.7,26.8,4.7,40.4,6.4c8.3,1,16.7,1.2,25.1,1.8
			c6.8,0.5,13.5,1,20.3,0.8c28.3-1,56.3-4.3,83.6-12.4c17.6-5.3,34.7-11.6,50.9-20.2c14.7-7.7,28.2-17.1,41.1-27.6
			c11.5-9.4,21.9-19.8,30.5-31.9c2.2-3,3.4,0.2,5.1-0.1c-2.8,16.7-9.1,32-17.7,46.5c-13.4,22.5-32.6,39.1-54.8,52.4
			c-29.5,17.8-61.7,28-95.5,33.3c-19.2,3-38.5,5-57.9,4.7c-18-0.3-35.6-3.2-53.3-6.4c-32.5-5.8-63.9-15.1-93.7-29.3
			c-33.4-15.9-62.8-37.3-87.7-64.6c-20.1-22-36.2-46.5-44.4-75.5c-6.7-24-6.1-48-0.1-72C1508,284.1,1508.1,282,1510.8,283.3z"/>
		<path class="st15" d="M1463.6,239.1c8.5,2.4,16.6,5.7,25.2,7.8c10.6,2.5,21.3,4.5,32.1,3.6c18-1.6,29.1-10.1,33.2-28.6
			c0.3-1.2,0.6-2.4,0.8-3.6c0.2-2.2,1.5-2.2,3.2-1.7c7.7,2.3,15.6,3.2,23.6,2.9c14.7-0.5,28.2-4.8,40.7-12.4
			c19.1-11.5,33-28.2,45.2-46.4c5.5-8.2,10.7-16.6,15.1-25.5c1.3-2.7,2.5-2.2,4.2-0.4c4.7,4.9,9.4,9.8,14.4,14.4
			c12.4,11.4,25.8,21.4,40.6,29.6c16.5,9.2,34.1,15.2,52.7,18.3c12.9,2.1,26,2.5,39.2,1.4c20.3-1.7,39.6-7,58.5-14.1
			c7.5-2.8,14.8-6,21.9-9.9c2.7-1.5,3.5-1.1,3.9,2.2c4.1,30.7,13.4,59.5,32.3,84.4c15.2,20.1,35.3,33.8,59,42
			c3.3,1.1,3.7,2.1,2.2,5.3c-7.7,15.8-3.6,30.3,12,41.2c11.9,8.3,25.2,13,38.9,17c-4.8,5.7-10.6,10.1-16.8,14
			c-2.1,1.3-4,1.6-6.5,0.7c-7.6-2.9-15.4-4-23.4-1.4c-0.7,0.2-1.6-0.1-2.3-0.4c-10.6-5.5-20.5-11.8-26.6-22.6
			c-4.4-7.7-5.5-15.9-3.9-24.4c0.7-3.9-0.2-6-3.8-7.7c-17-7.7-32.3-17.7-45.1-31.5c-15.2-16.3-24.7-35.6-29.8-57.1
			c-1-4.3-2-8.7-2.4-13.2c-0.5-5.6-6.5-9.1-11.6-6.7c-17.8,8.3-36.5,13.8-55.9,16.9c-17,2.7-34,2.3-50.9-1.3
			c-26.7-5.6-49.7-18.2-70.1-36.1c-6.9-6.1-13.6-12.5-19.6-19.5c-3.4-3.9-7.6-2.6-9.7,3.2c-2.5,6.9-5.5,13.6-9.2,19.9
			c-13.5,23.3-34.1,35.9-60.3,39.8c-12.7,1.8-25.4,1.6-38.1-0.7c-0.4-0.1-0.8-0.1-1.2-0.1c-7.7-0.6-7.7-0.4-9,7.1
			c-4.1,24.3-20.3,32.8-42.4,30.8c-1.9-0.2-3.8-0.2-5.7-0.6c-4-0.8-7.7-1.5-11.4-4.3c-5.6-4.3-12.6-6.8-19.9-6
			c-5.8,0.6-9.7-1.8-13.1-5.7C1468.6,253.7,1464.8,247,1463.6,239.1z"/>
		<path class="st10" d="M1671.6,536.1c2.2-4.7,4.2-9.5,8.2-13.1c10.9,2.9,21.7,5.9,32.6,8.5c16.5,4,33.1,6.7,49.9,8.8
			c14.5,1.8,29,1.6,43.5,1.5c4.5,0,8.9-0.6,13.4-0.9c2.3-0.2,2.9,1.6,3.7,3.2c6.1,13.6,12.4,27.2,18.3,40.8
			c8.9,20.2,17.6,40.6,24.5,61.6c8,24.4,14.6,49.3,18.5,74.7c0.3,2.2-0.4,2.9-2,3.8c-28.5,14.9-58.1,26.4-90.1,31.6
			c-18.1,2.9-36.3,4.7-54.6,3.9c-10.9-0.5-21.7-2.1-32.6-3.7c-18.2-2.6-35.7-7.5-53-13.4c-15-5.1-29.5-11.7-43.8-18.6
			c-3.3-1.6-2.9-4-2.5-6.4c1.2-8,2.6-16,4-24c1.8-0.4,2.8,0.9,3.8,1.9c16,16,36,24.4,57.7,29.4c25.5,5.9,51.5,7.4,77.4,5.6
			c24.3-1.8,47.3-9,68.5-21.9c14-8.5,16.2-21.3,15.6-35.8c-1.3-27.6-12.4-52.4-21.5-77.8c-3.4-9.6-7.2-19.1-11-28.5
			c-2.7-7-7.3-10.5-14.8-11.4c-14.3-1.7-28.6-2.5-43-3.1c-17.4-0.8-34.7-1.8-51.6-6.3c-6-1.6-11.5-4.2-16.8-7.3
			C1672.7,538.5,1671.3,537.9,1671.6,536.1z"/>
		<path class="st16" d="M1904,623.7c-10.2-7.1-18.7-16-26.8-25.4c-14.8-17.1-27.2-35.9-37.9-55.7c-1.5-2.8-1.8-3.8,2-4.4
			c31.1-4.4,60.8-13.3,88.9-27.4c11.7-5.9,22.5-13.1,33.2-20.4c1.5-0.6,3.1-1,4.8-0.7c14.3,2.4,28.2,6,41.2,12.4
			c8.1,4,14.8,9.7,17.1,19.1c3,11.9-2.9,25.7-14.1,32.6c-9,5.6-19,8.1-29.4,8.7c-6.1,0.3-12.2,0.6-18.3-0.4c-6-0.9-12.1-1.5-18.3-3
			c3.5,3.4,6.7,7.1,9.3,11.3c4.8,7.7,6.9,15.6,1.6,24.1c-8.8,14-23.1,20.1-39.2,16.5c-4.9-1.1-9.7-2.2-14.8-4.2
			c-0.1-0.1,0.2,1,0.3,0.4c0.1-0.2,0.2-0.2,0.4,0C1906.9,610.9,1906.9,618.9,1904,623.7z"/>
		<path class="st16" d="M1662.6,532.9c-5,9.4-10,18.8-15,28.2c-9.9,18.4-18.4,37.4-25.8,57c-2.6,6.9-5,14-7.4,20.9
			c-1.1,1.2-2.5,1.5-4,1.8c-4.2,0.8-8.4,1.1-12.6,0.9c-8-0.4-14-4-17.1-11.7c-2.6-6.6-4.8-13.4-1.5-21c-4.1,0.9-7.8,1.9-11.4,3
			c-15.6,5.1-27.8-0.1-38-12.1c-7.2-8.4-8.2-15.1-3.5-24.7c2.3-4.7,5.3-8.8,9-12.6c0.6-0.6,1.3-1,1.7-2.1c-12,2.6-23.9,4.2-36,3.5
			c-12-0.7-23.4-3.5-33-11.3c-8.8-7.1-12.4-16.6-11.1-27.8c0.3-2.8,0.7-5.7,3.3-7.6c11.3,8.1,23.3,15,36.5,19.5
			c25.7,8.7,52,10.5,78.8,7.8c27-2.7,53.2-9,79-17.2c0.8-0.2,1.6-0.3,2.4-0.5C1659.4,528.4,1661.4,530.2,1662.6,532.9z"/>
		<path class="st17" d="M1460.2,517.5c-6.4,14.7,0.1,29.5,10.9,36.5c6.8,4.4,14.3,7.1,22.3,8.2c10,1.4,19.9,1.3,29.9-0.3
			c5.4-0.9,10.8-1.7,17.1-3.3c-3.3,4.4-6.9,6.9-9.2,10.6c-2.9,4.6-5.9,9.1-6.6,14.7c-1,7.9,3.5,13.1,8.4,18c2.8,2.9,6.2,5.3,9.5,7.6
			c7,4.8,14.7,3.8,22.3,2.1c5.4-1.2,10.8-2.5,16.9-4.9c-5.6,9.1-2.7,17,0.9,24.9c2.7,6.1,8.1,8.5,14.4,9c5.8,0.5,11.6-0.5,17.3-1.6
			c-1.1,3.5-2.2,7-3.3,10.6c-15,4-30.2,5.5-45.2,0.7c-10.6-3.3-14.6-9.7-14.2-20.1c0.1-2.7,1.1-4.3,3.8-4.9c3-0.7,6-1.6,9-2.4
			c2.6-0.7,4.6-2.2,3.8-5.2c-0.8-3-3.5-2.7-5.7-2c-9.6,3-19.3,5.1-29.3,6.5c-6.1,0.9-12.2,0.7-18.3,0.3c-6.7-0.4-13.5-1.1-19.7-4.1
			c-5.5-2.6-10.8-5.5-13.3-11.8c-2.7-6.7-1.2-12.8,2.3-18.6c1.3-2.2,4.2-1.5,6.3-2c3.5-0.9,7.2-1.2,10.7-2c2.6-0.6,5.3-1.6,4.5-5
			c-0.8-3.5-3.6-3.2-6.2-2.5c-10.4,2.6-21,4-31.6,4.4c-11.5,0.5-22.9-1-34.2-3.6c-8.9-2-17.5-4.7-24.5-10.4
			c-14-11.5-15.5-23.7-5.3-39.3c7.1-10.9,17.1-18.7,28.3-25.2c2.4-1.4,4.6-3.4,7.6-3.8C1446.1,505.4,1453,511.7,1460.2,517.5z"/>
		<path class="st17" d="M1904,623.7c0-2.8,1-5.6,1-8.5c0-3.2-0.4-6.2-2.5-9.6c4.9,1.4,9.2,2.7,13.6,3.7c8.5,2,17,3.6,25.2-1.5
			c5.8-3.7,11.1-8.1,14.9-13.7c5.5-8.1,4.3-14.9-3.1-25.8c-2.6-3.8-6.2-6.8-9.2-10.2c0.4-1.1,1.2-0.8,1.8-0.7
			c12.1,3.3,24.5,4.8,37,3.9c13.4-1,26.3-3.7,36-14.4c10.5-11.5,11.1-30.6-4.1-40.6c-11.9-7.8-25.4-11.2-39-14.2
			c-3.9-0.9-7.9-2-12-1.8c3.9-3.2,7.8-6.5,11.6-9.7c29.5,3.6,57.1,12.4,81.1,30.5c8,6.1,14.9,13.3,19.6,22.4
			c8.4,16,0.8,30.3-12.2,37.5c-11.1,6.1-23.1,8.8-35.7,10.1c-16.7,1.8-33.2,0.3-49.6-3.2c-0.7-0.1-1.3-0.1-2-0.2
			c-2.3-0.1-4.7-0.1-5.2,2.7c-0.6,2.9,1.7,3.7,3.9,4.2c3.4,0.8,6.8,1.6,10.3,2.1c7.2,1,10.3,4.8,11,12.1
			c1.2,12.1-8.4,19.4-18.7,22.1c-16.2,4.3-32.3,4.2-48.5-0.1c-5-1.3-10-2.6-14.8-4.2c-2.7-0.9-4.7-0.4-5.5,2.3
			c-0.8,2.6,1,3.9,3.3,4.6c2.7,0.9,5.3,2.1,8.1,2.6c3.9,0.7,5.2,2.9,5,6.5c-0.1,1.6-0.1,3.3-0.1,4.9
			C1917.5,634,1910.5,629.3,1904,623.7z"/>
		<path class="st16" d="M1599.7,491.3c12.7,5.5,25.1,11.5,36.5,19.5c4.6,3.2,9.7,5.9,13.3,10.5c-24.1,7.5-48.6,13.3-73.8,15.8
			c-21.1,2.1-42,1.7-62.7-3.4c-17.4-4.2-33.7-10.9-47.9-22.2c-0.2-2.3,1.6-3.3,3.1-4.4c5.1-3.8,10.8-6.3,16.7-8.3
			c15.5-5.4,31.4-8.5,47.8-9.6c10.7-0.8,21.4-2.4,32.1-2.2c11.1,0.2,22.3,0.8,33,4.4C1598.5,491.6,1599.1,491.8,1599.7,491.3z"/>
		<path class="st17" d="M1599.7,491.3c-3.5,1.2-6.7-0.9-10.1-1.2c-11.5-0.8-22.9-2.7-34.7-1.6c-8.4,0.8-17,1.2-25.4,2.1
			c-21.3,2.3-42.4,5.6-60.9,17.6c-1.4,0.9-2.6,1.9-3.5,3.3c-6.8-4.8-13-10.4-18.2-16.9c16.7-7.4,34.1-12.2,52.1-14.9
			c9.7-1.4,19.4-1.9,29.2-1.4c17.3,0.8,34.5,2.4,51.3,6.8C1586.4,486.9,1592.9,489.5,1599.7,491.3z"/>
		<path class="st13" d="M1451.4,306c0.5-25.3,25.3-38.2,46.3-30c2.7,1,3.4,2.1,2.5,5c-3.6,11.6-5.2,23.5-5.7,35.6
			c-1,1.1-2.3,1.5-3.6,1.7c-12.8,1.2-25.1,0.1-35.9-7.9C1453.3,309.2,1452.1,307.9,1451.4,306z"/>
		<path class="st13" d="M2013.5,426c3.3-10,6.9-20,8.6-30.5c0.1-0.8,0.3-1.6,0.4-2.4c1-6.8,1.2-7,8.1-5.5
			c15.8,3.3,27.1,17.2,27,33.3c0,1.5,0.1,3-0.8,4.3c-0.5,0.8-1,1.6-1.9,2c-11.5,4.9-23.3,8-35.8,3.8c-2-0.7-4.1-1.4-5.5-3.2
			C2013.1,427.3,2013,426.6,2013.5,426z"/>
		<path class="st16" d="M1872.3,638.2c-5.5-14-10.7-28.1-16.9-41.9c-5-11-9.7-22.2-14.5-33.3c-0.3-0.7-1.4-1.5-0.4-2.4
			c4.3,6.4,8.5,12.8,12.9,19.2c13.3,19.3,28.9,36.6,47.4,51.2c-0.8,4.7-4.6,6.8-8.4,7.9C1885.8,640.8,1878.9,641.4,1872.3,638.2z"/>
		<path class="st14" d="M2013.5,426c3.6,4.6,8.8,5.2,14,5.6c10.4,0.8,20-2.2,29.3-6.5c-1.7,12.8-9.2,21.2-20.8,25.9
			c-10.7,4.3-21,2.4-30.6-3.6c-1.3-0.8-1.9-1.7-0.9-3.3C2008.1,438.4,2010.5,432.1,2013.5,426z"/>
		<path class="st13" d="M1402.3,399.8c4.8-1.7,9.2-1.1,13.2,2.3c9.6,8.1,12.6,24.2,6.4,34.8c-3.1,5.2-8.2,7.1-13.9,5.3
			c-5.7-5.7-7.7-13.2-9.1-20.8c-1.1-5.6-0.7-11.3,0.6-16.8C1400,402.7,1400.7,401,1402.3,399.8z"/>
		<path class="st13" d="M2036.2,642.9c1-5.9,4.7-9.9,9.4-13.1c6.8-4.6,14.5-5.8,22.5-4.6c10.2,1.5,13.9,11.8,7.4,20.3
			c-11.7,7.5-24.2,7.6-37,3.3C2035.7,647.9,2035.5,645.5,2036.2,642.9z"/>
		<path class="st14" d="M1451.4,306c11.8,10.8,25.8,13.1,41,10.7c0.7-0.1,1.3-0.1,2-0.1c0.1,6.5,0.1,13,0.5,19.5
			c0.2,2.5-1.3,2.7-2.8,3.1c-17,4.7-37-8.1-40-25.6C1451.6,311.2,1450.9,308.7,1451.4,306z"/>
		<path class="st17" d="M1872.3,638.2c3.8,0.5,7.7,0.7,11.6,0.9c7.3,0.4,12.8-2.4,17-8.1c6.6,4.7,13.3,9.2,20.4,13.2
			c-1.9,4.7-6.4,6.2-10.4,7.6c-7.4,2.6-15.1,3.6-23,2.2c-3.5-0.6-7.1-0.3-10.6-0.4C1875.6,648.4,1873.9,643.3,1872.3,638.2z"/>
		<path class="st14" d="M2036.2,642.9c-0.5,3.4,1.4,4.6,4.3,5.5c10.9,3.3,21.5,2.3,32-1.9c1-0.4,2-0.7,3-1
			c-6.9,11.2-20.7,14.7-31.6,11.4C2038.8,655.3,2033.7,648.1,2036.2,642.9z"/>
		<path class="st14" d="M1402.3,399.8c-5.4,14.2-2.7,27.5,4.7,40.3c0.4,0.7,0.7,1.4,1,2.2c-10.3-3.7-13.3-12.3-14.7-21.9
			c-0.8-5.3,0-10.5,2.8-15.3C1397.5,402.5,1399.1,400.2,1402.3,399.8z"/>
		<path class="st18" d="M1662.6,532.9c-2.2-1.7-4.2-3.5-5.7-5.8c2.8-1.6,5.9-2.5,8.9-3.3c0.8,0.3,1.2,0.8,1,1.7
			C1665.3,528,1664,530.4,1662.6,532.9z"/>
		<path class="st19" d="M1660.3,517.6c-1.6-0.4-2.7-1.3-3.4-2.7c1.4,0.5,3.1,0.7,4.3,1.6C1662.4,517.5,1660.7,517.3,1660.3,517.6z"
			/>
		<path class="st20" d="M1666.7,525.5c-0.3-0.6-0.6-1.1-1-1.7c0.6-0.8,1.5-0.7,2.4-0.6C1667.7,524,1667.2,524.7,1666.7,525.5z"/>
		<path class="st21" d="M1671.6,536.1c8.6,6.7,18.8,9.5,29.2,11.4c16.7,3,33.5,3.6,50.4,4.3c12.1,0.5,24.3,1.3,36.3,3.2
			c5.3,0.8,9.6,3,12,8.4c4.9,10.9,9,22.1,13.1,33.3c5.2,14.1,10.1,28.3,14.9,42.6c3.4,10,4.5,20.5,5.8,31c0.8,6.3,0.2,12.4-0.4,18.6
			c-0.9,10.3-7.6,16.7-15.8,21.8c-19.5,12.2-41.1,18.4-63.7,21.4c-13.8,1.9-27.7,1.3-41.5,0.6c-19.3-1-38.4-3.7-56.9-10.1
			c-16.5-5.7-31.6-13.6-43.6-26.5c-0.5-0.6-1.2-1-1.9-1.5c3-18.1,8-35.6,13.3-53c8.6-28,20.8-54.4,34.3-80.3
			C1661.6,552.6,1665.8,543.9,1671.6,536.1z"/>
		<path class="st22" d="M1765.6-136.9c26.1-0.1,51.9,3,77.6,7.8c36.8,6.9,72.4,17.7,106.4,33.6c16.2,7.5,31.7,16.2,45.3,27.9
			c4.7,4,8.7,8.5,12.1,13.7c8.1,12.3,3.4,24.4-8,31.3c-10.7,6.5-22.8,9.3-35,11.2c-16.7,2.5-33.4,3.8-50.3,3.2
			c-18.7-0.7-37.3-2.5-55.8-5.2c-8.3-1.2-16.6-2.4-24.8-4c-8-1.5-16-4-23.9-6.2c-29.2-8.1-57.9-17.8-84.7-32.3
			c-14.5-7.8-28.7-16.1-39.9-28.5c-4.1-4.5-7.3-9.4-8.7-15.4c-1.6-6.6,0.2-12.3,4.7-17.2c6.1-6.6,14.1-10.1,22.5-12.5
			c14.7-4.1,29.7-6.1,44.9-6.8C1753.9-136.7,1759.8-136.9,1765.6-136.9z"/>
		<path class="st13" d="M1773.7,874.8c0.6-9.4,2.6-18.5,7.6-26.6c3.8-6.1,8.3-6.1,12.3,0c5.3,8.1,6.8,17.4,7.5,26.7
			c0.7,8.4,0.8,16.8-0.8,25.1c-1.2,2.9-2.9,5.5-5.4,7.5c-4.4,3.6-8.6,3.1-11.8-1.6c-5-7.5-7.2-16-8.7-24.8
			C1774.1,879.1,1774.1,876.9,1773.7,874.8z"/>
		<path class="st14" d="M1773.7,874.8c2.1,7.8,3.3,15.8,6.4,23.3c1.1,2.6,2.3,5.2,4,7.5c2.9,4.1,6.5,4.6,10.2,1c2.1-2,4-4.4,6-6.5
			c-0.6,5.6-2,10.9-4.3,16c-1.8,3.9-3.4,8.9-8.4,9c-5.1,0.1-6.7-5-8.5-8.8c-3.2-6.5-4.6-13.6-5.3-20.7
			C1773.1,888.6,1773,881.7,1773.7,874.8z"/>
		<path class="st13" d="M1696.2,881.3c-3-16-2.5-31.8,2.9-47.3c1.1-3.2,2.7-6.2,5-8.8c2.7-2.9,5.7-3.1,8.5-0.4
			c2.6,2.5,4.2,5.6,5.3,9c2.1,6.1,3.5,12.4,4.1,18.9c-0.1,7.8-1.5,15.3-4.2,22.6c-0.7,1.8-1.4,3.5-2.3,5.2
			C1711.2,888.6,1701.9,889.8,1696.2,881.3z"/>
		<path class="st14" d="M1696.2,881.3c0.7,0.5,1.3,1,2,1.5c8.6,6.7,14.3,2.8,17.7-5.4c3-7.1,4.6-14.7,5.5-22.4
			c0.1-0.8,0-1.6,0.7-2.2c1.7,14.4,0.7,28.6-4.7,42.2c-0.6,1.6-1.5,3.2-2.4,4.7c-4,6.4-8.3,6.4-12.5,0.3c-1.4-2-2.4-4.2-3.2-6.5
			C1697.9,889.5,1696.7,885.5,1696.2,881.3z"/>
		<path class="st23" d="M1646.9,381.3c-15.6-1.7-30.3-4.5-41.2-16.6c-6.4-7-7.2-16.3-1.2-21.9c4.4-4.2,10.2-6.3,16.1-7.2
			c15.7-2.6,30.2,0.7,43.3,9.6c5,3.4,9.6,7.5,11.1,14c1.3,5.8-0.9,11.9-5.8,15.4C1662.4,379.3,1654.4,380,1646.9,381.3z"/>
		<path class="st23" d="M1862.6,381.9c12.2,0,23.6,2.9,33.9,9.6c3.6,2.3,6.5,5.4,9,8.8c6.4,8.6,2.9,19.2-7.3,23.7
			c-18.3,8.1-45.3,2.7-59.1-12.1c-8.1-8.7-7.7-16.9-0.6-23.1c5.1-4.4,11.5-6.5,18.3-6.9C1858.8,381.8,1860.7,381.9,1862.6,381.9z"/>
		<path class="st24" d="M1812.7,410.5c0.1,5.5-0.5,10.9-2,16.1c-4,14-13.4,22-27.4,25.5c-15.9,4-27.9-1.7-37.5-14
			c-5-6.3-8.6-13.5-11.8-20.8c-1.2-2.7-0.7-4.8,1.1-6.7c2-2.3,4.5-1.4,6.7-0.4c6.7,3.2,13.8,4.7,21.3,4.6
			c13.1-0.1,22.5-7.1,30.6-16.3c3-3.3,5.5-7,7.7-11c1.2-2.2,2.9-3.7,5.6-3.1c2.5,0.6,3,2.7,3.5,5
			C1811.7,396.5,1812.7,403.5,1812.7,410.5z"/>
		<path class="st24" d="M1688,295.3c5.8-2.9,11.2-1.3,16.1,2c5.4,3.6,7.7,9.2,7.3,15.5c-0.6,9.2-8.3,16.5-17,16.7
			c-9.3,0.2-17.3-6.8-18.1-16.3c-0.5-5.6,1.2-10.7,6-14.3c1.1,1,0.6,2.3,0.8,3.4c0.5,3,3.2,5.6,6,5.7c2.7,0.1,5.4-2.5,5.8-5.3
			c0.3-2.7-1.4-5.1-4.6-6.1C1689.3,296.2,1688.4,296.1,1688,295.3z"/>
		<path class="st24" d="M1853.7,333.9c2-1.1,1.6,0.9,1.8,1.6c2,6.2-0.7,14.2-6.2,18.6c-5.2,4.1-13.8,4.6-19.6,1.2
			c-6.2-3.7-9.6-10.4-8.7-17.1c1-6.8,4.3-12.2,10.9-14.5c6.1-2.2,12.2-1.9,17.5,2.8c-0.9,1.1-2.2,0.9-3.3,1.1
			c-2.9,0.7-4.9,2.5-5,5.5c-0.1,2.6,1.3,4.6,4,5.4c2.9,0.9,5.3,0.3,7-2.5C1852.5,335.2,1852.7,334.3,1853.7,333.9z"/>
		<path class="st25" d="M1688,295.3c5.1,0.1,8.2,2.8,7.9,7c-0.2,3.6-3.9,6.8-7.4,6.6c-4.3-0.3-6.9-3.9-6.3-9c0-0.4,0-0.8,0-1.2
			C1684.2,297.7,1685.2,295.1,1688,295.3z"/>
		<path class="st26" d="M1853.7,333.9c-1.1,4.9-3.4,6.6-7.9,5.9c-3.8-0.5-6-3.1-5.8-7c0.1-3.8,3.2-6.3,7.8-6.4c0.5,0,1.1,0,1.6,0
			C1852.1,328.2,1854,330.4,1853.7,333.9z"/>
		<path class="st27" d="M2046.7,506.8c-0.6,4.3-4.3,6.9-5.7,10.7C2042.4,513.7,2043.7,509.8,2046.7,506.8z"/>
		<path class="st28" d="M2034.8,527.9c1-2,2-4,3-6c0.3,0.1,0.6,0.3,0.9,0.4c-1,2-2,4.1-3,6.1
			C2035.3,528.3,2035.1,528.1,2034.8,527.9z"/>
		<path class="st6" d="M1796.2-118.5c43.3,0.2,84.4,9.8,122.9,29.8c11.3,5.9,22.2,12.6,30.5,22.8c8.3,10.1,6.7,22.2-4.3,29.5
			c-8.2,5.5-17.7,7.4-27.3,8.7c-10.8,1.5-21.6,2.1-32.5,1.7c-36.4-1.4-71.5-8.5-104.9-23.3c-13.5-6-26.3-12.9-37.5-22.6
			c-6.6-5.7-11.7-12.4-11.3-22c0.2-5.5,2.5-9.6,6.7-12.8c7.9-6.1,17.4-8,26.9-9.8C1775.6-118.6,1785.9-118.6,1796.2-118.5z"/>
		<path class="st29" d="M1744.9,420.8c24.8,8.5,43.1-0.8,58.5-20.5c1,11.9,1.1,22.5-5,32.1c-8.6,13.3-27.2,16.4-39.7,6.6
			C1752.7,434.3,1748.6,428.2,1744.9,420.8z"/>
		<path class="st29" d="M1891.3-31.9c-45-1-87.9-10.5-127.6-32.6c-7-3.9-13.7-8.4-19.3-14.2c-1.3-1.4-2.6-2.8-3.6-4.4
			c-6-8.5-4.4-16,4.5-21.2c8-4.7,17-6.3,26-7.4c32.3-3.9,63.9,0,95,8.5c22.9,6.2,44.8,14.8,64.6,28.1c5.3,3.6,10.4,7.5,14.2,12.7
			c6.3,8.6,4.9,16-4.3,21.5c-9.1,5.4-19.4,7-29.6,7.9C1904.7-32.3,1898-31.4,1891.3-31.9z"/>
	</g>
</g>
</svg>
