<?xml version="1.0" encoding="utf-8"?>
<!-- Generator: Adobe Illustrator 19.0.0, SVG Export Plug-In . SVG Version: 6.00 Build 0)  -->
<svg version="1.1" id="Camada_1" xmlns="http://www.w3.org/2000/svg" xmlns:xlink="http://www.w3.org/1999/xlink" x="0px" y="0px"
	 width="1063.1px" height="1082.7px" viewBox="1202.9 -143.4 1063.1 1082.7"
	 style="enable-background:new 1202.9 -143.4 1063.1 1082.7;" xml:space="preserve">
<style type="text/css">
	.st0{fill:#7E5537;}
	.st1{fill:#8B4098;}
	.st2{fill:#F2BF02;}
	.st3{fill:#ADDEF1;}
	.st4{fill:#C0E3F0;}
	.st5{fill:#774E3A;}
	.st6{fill:#D2EBF5;}
	.st7{fill:#9E55A7;}
	.st8{fill:#FDD8A9;}
	.st9{fill:#EC8151;}
	.st10{fill:#A56DAA;}
	.st11{fill:#EC6F3A;}
	.st12{fill:#BEEDFE;}
	.st13{fill:#D7EDF5;}
	.st14{fill:#A35BAA;}
	.st15{fill:#FEDAAB;}
	.st16{fill:#F6C28D;}
	.st17{fill:#7D308E;}
	.st18{fill:#8F459B;}
	.st19{fill:#FEE595;}
	.st20{fill:#F2D369;}
	.st21{fill:#C2E5F3;}
	.st22{fill:#F4A29A;}
	.st23{fill:#7F5537;}
	.st24{fill:#f2e3fc;}
</style>
<g>
	<g>
		<path class="st0" d="M1542.2,471.1c-12.2-10.4-24.1-21.2-34.3-33.6c-11.6-14.1-21.1-29.3-27.3-46.5c-0.9-2.5-1.7-2.9-4.2-2
			c-25.3,9.4-51.9-5.4-56.2-32.1c-2.8-17.1,3.3-31.3,17.7-41.5c2-1.4,2.3-1.9,0.2-3.6c-17.5-14.9-22.8-34.5-20.6-56.5
			c1.9-18.7,10.4-33.9,26.4-44.3c3.9-2.5,8.1-4.3,12.6-5.5c1.5-0.4,2.7-0.6,1.7-2.9c-9.6-21.2-7-42.5,1.7-62.9
			c13.7-31.8,36.4-54.9,70-65.6c17.9-5.7,36.2-5.4,54.2,0.2c2.5,0.8,3.7,0.5,5.1-1.8c24.2-39.4,60.3-62.2,104-73.9
			c30.2-8.1,61.1-9.6,91.7-3.2c53.6,11.2,95.5,39.4,122.1,88.2c2.2,4,4.3,5,8.7,4.7c24-2,45.8,4.9,65.8,17.7
			c28.6,18.3,49.8,42.9,60.3,75.6c5.5,17,6.6,34.1-0.7,51.1c-0.4,1-1.1,1.9,0.4,2.7c11.8,6.3,16.3,17.6,19.2,29.4
			c7.4,29.7-2.7,53.9-24.1,74.3c-2.3,2.2-2.4,2.9,0.2,5c14.1,11.1,20.7,25.6,16.5,43.5c-4.1,17.2-15.2,28.4-32.7,31.9
			c-8.6,1.7-17.4,0.6-25.5-3.3c-1.3-0.6-2.5-1.7-3.5,0.6c-10.2,21.7-25.7,39.2-43.5,54.9c-2.4,4.2-6.8,6.3-10.3,9.3
			c-3,2.3-6.2,4.4-9.2,6.7c-19.9,13.2-41.2,23.6-63.6,32c-7.7,2.9-15.7,5.1-24.1,8c2.5,1.5,4.6,2.3,6.7,3.3
			c21.9,10.6,43.6,21.6,62.8,36.9c3.9,3.1,7.1,6.7,9.9,10.8c6.6,9.7,4.2,19.8-6.1,25.6c-1.9,1.1-3.8,2-5.9,2.8
			c-1.4,0.5-2.7,1.1-4.1,1.7c-12.8,4.2-25.9,6.2-39.3,6.9c-3.1,1-6.4,0.5-9.6,0.7c-21.1,1.8-42.3,0.2-63.5,0.7
			c-5.2,0.1-10.3,0-15.5,0c-1.8,0-3.5,0.1-5.3,0.5c-12.3,2.7-23.4-5.8-24.1-18.6c-1.8,11.2-11.9,18.6-22.6,16.6
			c-2.5-0.5-4.9-0.2-7.3-0.2c-17.4,0-34.8,0.4-52.2-0.1c-10-0.3-20.1-0.6-30.1-1.5c-2.7,0.1-5.4-0.5-8.1-0.8
			c-16.1-1.9-32.2-3.6-47-11c-3-1.5-5.5-3.4-7.8-5.8c-4.1-4.3-4.9-9.3-2.9-14.7c2.4-6.6,6.9-11.6,12.2-16
			c13.7-11.2,29.1-19.6,44.8-27.5c7.9-3.9,15.9-7.7,24.5-11.3c-30.3-8.4-58.6-20.3-84.7-37.3c-4.2-2.8-8.5-5.5-12.6-8.4
			c-2.4-2.2-5-4-7.6-5.9C1544.1,473.9,1542.4,473.1,1542.2,471.1z"/>
		<path class="st1" d="M1855.8,615c3-0.3,6.1,0.3,9.1-0.7c3.1,2.9,3.7,7.1,5.2,10.8c1.7,4.1,3.1,8.3,4.6,12.5
			c1.7,4.9,3.1,9.9,4.7,14.8c0.6,3,2.6,5.8,1.9,9.1c5.4,20.4,10.7,40.9,13.8,61.8c0.4,1.5,0.5,2.9,0,4.4c-3.2,4-8.2,5.3-12.4,7.6
			c-12,6.5-24.6,12.1-37.5,16.8c-0.5,0.4-0.6,1-1.2,1.4c-2.6,0.9-5,2.6-8,1.9c-9.7,2.5-19.1,5.8-29,7.7c-12.8,2.4-25.5,4.9-38.6,5.4
			c-2.4,0.8-5.1-0.2-7.5,0.6c-7.9,0-15.8,0-23.7-0.1c-2.2-0.7-4.5,0.2-6.7-0.5c-24.5-1.3-48.3-6.2-71.6-13.9c-3.3,0.3-6.3-0.6-9-2.5
			c-15.5-6.9-31.5-12.8-46.8-20.4c-6.3-3.1-6.3-4-5.3-11.2c1.4-9.2,2.7-18.3,4.3-27.5c1.8-10.5,4.7-20.7,7.2-31
			c0.2-1,0.4-2.1,0.6-3.2c-0.4-3.2,0.8-6,1.5-9c1.1-3.5,2.4-7,3.4-10.6c2.3-8,5.3-15.9,8.4-23.6c0.6-1.5,1.1-3.1,2.7-3.9
			c2.8,0.2,5.7,0.5,8.5,0.7c1.1,2-0.1,3.7-0.7,5.4c-9.3,24.5-16.8,49.6-21.4,75.4c-1.3,8.6-2.8,17.2-4,25.8
			c-0.4,2.7,0.5,4.4,2.9,5.5c29.7,14,60.2,25.7,92.9,30.9c11.4,1.8,22.9,3.1,34.4,4c7.3,0.7,14.6,0.6,21.9,0
			c11.5-0.7,23-2.1,34.4-4.1c23.7-4.2,46.4-11.5,68.3-21.4c5.9-2.7,11.8-5.5,17.7-8.4c3.1-1.6,4.2-3.6,3.6-7.2
			c-5.6-33.5-15.2-66-27.3-97.7C1856.4,619,1855.1,617.2,1855.8,615z"/>
		<path class="st2" d="M1906.3-82.9c-0.1,10.6-5.7,18.2-13.5,24.4c-12.3,9.8-26.7,15.7-41.4,20.6c-24.7,8.3-50.2,13.1-76.1,15.7
			c-13.3,1.4-26.5,2.5-39.8,2.9c-16.4,0.6-32.8-0.3-49.1-1.7c-23-1.9-45.9-5.2-68.3-11.3c-17.3-4.7-34.5-10-49.5-20.3
			c-8.3-5.7-15-12.5-16.3-23.2c-0.9-7.4,1.3-13.7,5.7-19.4c8-10.4,19.3-16.2,30.9-21.2c27.4-12,56.2-18.3,85.7-22.1
			c28.7-3.7,57.5-4.5,86.3-3c36.5,1.8,72.5,7.2,106.7,20.9c12.4,5,24.4,10.9,33,21.8C1904.2-94.1,1906.3-88.9,1906.3-82.9z"/>
		<path class="st3" d="M1612.1,650c-0.2,3.1-1.1,6.1-2.2,9c-2.8-1.7-5.5,0.2-8.2,0.5c-12.5,1.8-24.9,2-37-2
			c-11.6-3.9-17.9-12.1-19.4-24.2c-0.2-1.7,1.8-4.1-0.1-4.8c-1.8-0.7-4.2,0.4-6.3,0.7c-17,2.4-33.5,1.4-49.4-5.8
			c-11.2-5-18.4-19.2-13.6-31.7c1.3-3.5-0.1-3.9-3-3.8c-16.1,0.7-32-0.9-47.4-5.7c-12.3-3.8-23.6-9.2-30.1-21.3
			c-6.7-12.6-4.1-28.8,6-41c16.5-20,38.3-31.6,62.4-39.7c22.6-7.6,45.8-10,69.4-9.1c3,0.1,6,0,9,0c3.7,3.1,8,5.5,11.4,8.9
			c-2.9,1.7-5.8,0.3-8.7,0.1c-41.7-3.1-81.2,3.2-116.6,26.9c-9.1,6.1-17.2,13.3-23.1,22.8c-8.7,13.7-5.9,27.8,7.3,37.1
			c10.8,7.7,23.4,10,36.1,11.6c16.8,2.2,33.4,0.6,49.9-2.7c1.6-0.3,3.2-0.5,4.9-0.4c2.4,0.1,4.3,1.1,4.7,3.6c0.4,2.7-1,4.5-3.4,5.4
			c-3.2,1.2-6.6,1.5-10,2.2c-3.8,0.8-8.4,0.1-10.1,5.3c-2,6-2.6,11.7,1.4,17.1c4.2,5.7,10.3,8.5,16.8,10.1
			c11.5,2.8,23.2,2.7,34.9,1.4c7.4-0.8,14.8-2.3,21.9-4.8c1.3-0.5,2.6-0.8,3.9-1.1c3.5-0.8,6,0.1,6.9,2.6c0.9,2.7-0.5,5-4.1,6.4
			c-2.3,0.9-4.6,1.7-7,2.2c-3.3,0.7-4.7,2.6-4.7,6.1c-0.1,7.9,4.6,14.5,13,17.3c12.2,4.1,24.6,3.6,37.1,1.1
			C1607,649.9,1609.5,648.6,1612.1,650z"/>
		<path class="st4" d="M1881.2,661.6c-0.9-3-1.8-6-2.7-9c6.6,0.2,13.2,0.7,19.9,0.5c6.6-0.2,12.9-1.6,18.8-4.7
			c5.7-3,8.5-7.9,9.1-14.1c0.4-3.8-0.8-5.5-4.5-6.7c-2.7-0.9-5.5-1.5-8.2-2.6c-2.6-1.1-4.4-2.8-3.8-5.9c0.5-2.6,3.2-4.1,6.6-3.1
			c6.3,1.8,12.6,3.3,19,4.6c14.5,2.9,28.9,3.6,43.2-0.5c5.5-1.6,10.9-3.7,14.6-8.4c3.1-3.9,4.8-8.2,3.8-13.3
			c-1.4-7.2-3.2-9-10.5-10.3c-3.5-0.6-7-1.1-10.4-2.3c-2.6-0.9-4.7-2.4-4.3-5.6c0.4-2.7,2.8-4.2,6.3-3.7c7.3,1.1,14.4,2.8,21.8,3.5
			c2.8,0.2,5.7,0.2,8.5,0.8c5,0.8,10,0.7,15,0.1c12.1-1.1,24-3,35.4-7.6c3.7-1.5,7.1-3.5,10.3-5.8c11.5-8.5,14.1-22.7,6.7-35.3
			c-4.6-7.9-11.2-14-18.2-19.6c-15.1-12-32.3-19.4-50.7-24.7c-20.3-5.9-41.1-7.8-62.2-7.3c-2.5,0.1-5.1,1.6-7.5-0.3
			c3.6-2.9,7.1-5.8,10.7-8.7c0.8,0.7,1.8,0.6,2.7,0.6c22-0.6,43.5,2.4,64.4,9c19.6,6.3,37.9,15.2,53.4,29.2
			c7.8,7,14.5,14.5,18.3,24.4c1,2.7,1.8,5.4,1.7,8.3c0.5,2.5,0.5,5,0,7.5c-1.1,11.3-7.1,19.6-16.5,25.2
			c-14.5,8.6-30.4,12.5-47.2,13.2c-6,0.5-12.1,0.6-18.1,0c-1.1,0-2.1,0-3.7,0c2.8,6.7,3.6,13.1,1.4,19.8
			c-2.3,7.2-6.9,12.2-13.3,15.7c-8.6,4.7-18.1,6.5-27.7,6.8c-8.7,0.3-17.3,0.4-25.9-1.5c-1.8-0.4-3.4-0.6-3,2.8
			c0.8,8-2.3,15.1-8.5,20c-7.4,5.8-16.1,8.8-25.6,8.9C1894,661.6,1887.6,661.6,1881.2,661.6z"/>
		<path class="st5" d="M1649.9,752.2c3.1,0.3,6.1,1.2,9,2.5c-2.9,16.7-4.3,33.4-0.2,50.2c4.9,19.7,17.6,30,38,30.1
			c11.6,0.1,16.6,0.2,22.7,16.5c8.6,23,8.4,46.3-1.1,69.2c-1.4,3.3-3.2,6.3-5.6,9c-5.9,6.5-15,6.6-20.7-0.2
			c-6.2-7.4-9.3-16.2-10.7-25.6c-2.7-18-2.4-35.7,4.2-53c1-2.5,3.9-5.3,2.8-7.2c-1-1.7-4.9-1.5-7.4-2.3
			c-19.4-6.1-28.3-20.8-31.9-39.6c-2.7-14.3-1.5-28.7,0.3-43C1649.6,756.5,1649.8,754.4,1649.9,752.2z"/>
		<path class="st5" d="M1836,755.5c2.7-1.1,5.3-2.2,8.2-2.6c0.9,2.7,0.4,5.4,0.3,8.2c-0.2,8.6-1.4,17-4,25.3
			c-6.4,19.7-20.1,31.1-40.1,35.3c-1.6,0.3-3.2,0.6-4.8,1c-0.1,0-0.2,0.1-0.6,0.5c4.5,7.6,6.9,16,8.1,24.9c1.9,14.6,1.5,29-2.2,43.3
			c-1.4,5.4-4,10.4-7,15.1c-5.9,9.2-17.3,9.5-23.9,0.7c-4.9-6.6-7.7-14-9.2-22c-3-15.8-2.9-31.6,1.1-47.3c1.3-5,3.4-9.7,6-14.2
			c3.7-6.3,8.9-9.6,16.4-9.2c10.4,0.6,20.3-1.8,29.2-7.2c13.9-8.5,19.7-22,21.8-37.4C1835.9,765,1836.4,760.3,1836,755.5z"/>
		<path class="st6" d="M2006.8,588.9c6,0,12.1,0,18.1,0C2018.9,590.1,2012.8,590.1,2006.8,588.9z"/>
		<path class="st7" d="M1844.5,761.1c-0.1-2.7-0.2-5.4-0.3-8.2c0.3-0.2,0.6-0.5,0.9-0.7C1844.4,755.1,1845.6,758.2,1844.5,761.1z"/>
		<path class="st6" d="M2088.6,550.5c0-2.5,0-5,0-7.5C2089.8,545.5,2089.8,548,2088.6,550.5z"/>
		<path class="st7" d="M1761,769.2c2.4-1.3,5-0.6,7.5-0.6C1766,769.6,1763.5,769.3,1761,769.2z"/>
		<path class="st7" d="M1730.5,768.6c2.3,0,4.6-0.7,6.7,0.5C1735,769.3,1732.7,769.5,1730.5,768.6z"/>
		<path class="st7" d="M1895,727.8c0-1.5,0-2.9,0-4.4C1895.9,724.9,1896.2,726.4,1895,727.8z"/>
		<path class="st8" d="M1646.6,198.5c8.1,6.1,16.1,11.7,24.5,16.7c28.4,17,59,25.5,92.3,22.9c24.1-1.9,46.4-9.9,67.7-20.9
			c6.2-3.2,12.3-6.4,18.1-10.3c2.7-1.8,3.7-1.4,4.8,1.6c5.5,15.9,13.1,30.7,23.7,43.9c17.7,22,40.6,36.3,67.4,44.4
			c3.4,1,4.5,2.4,4.7,6c0.9,15.9,9.5,27.1,22.5,35.3c6.7,4.2,14,7.3,21.6,9.5c3,0.8,4.1,2,4,5.3c-0.6,35.4-12.8,66.1-36.2,92.5
			c-25.8,29.1-58.1,48.3-93.9,62.4c-15.3,6-31.1,10.3-47.1,14.2c-30.8,7.6-61.8,8-93.2,6.5c-21.2-1-42.2-4-62.9-8.6
			c-34.6-7.6-66.8-21.1-96.3-40.7c-25.2-16.7-47.6-36.3-64.5-61.5c-14.2-21.1-22.1-44.3-23.4-69.9c-0.4-7.2,0.1-14.4,0.5-21.6
			c0.2-2.8,1.3-4,4.3-3.8c7.6,0.4,15.2-0.1,22.7-1.9c21-5.1,31.8-18.2,33-40.4c0.2-3,1.1-3.4,3.8-3.5c17.8-0.5,35.1-3.4,51.5-10.9
			c26.4-12.2,41.2-33.7,48.7-60.9C1645.5,202.8,1646,200.9,1646.6,198.5z"/>
		<path class="st9" d="M1430.1,286.5c-8.3-22.1-6.1-42.8,9.5-61c6.6-7.8,15.7-11.9,25.9-13.4c4.5-0.7,6.2-3.7,3.8-7.5
			c-11.4-18.9-10.1-38.6-2.9-58.1c9.2-24.8,25.6-44,48.8-57c22.5-12.6,46.2-13.8,70.4-5.7c3.9,1.3,6,0.6,8-2.8
			c14.4-24.6,34-43.8,59.3-57.3c15.7-8.4,31.9-15.2,49.3-19c21.5-4.7,43.3-5.2,65.2-3.4c22,1.8,42.6,8.2,62.1,18.2
			c31.7,16.2,56,39.9,71.9,72c3,6,3,6.3,9.9,5.5c27.6-3.3,51.8,5.3,73.6,21.5c22.4,16.7,39.5,37.7,48.4,64.6
			c4.6,13.9,6.2,28.1,1.2,42.3c-1.2,3.4-3.1,6.7-4.7,10c-1.5,3.2-0.7,6.3,2.6,6.6c9.8,1,13.9,8.1,16.9,15.7
			c6.2,15.8,7.1,32,0.6,48.1c-1.8,4.5-4.2,8.8-7.3,12.7c-1.5,1.1-3.3,1.2-5.1,1c-14.1-1.8-27.9-4.7-40.4-12
			c-5.5-3.2-10.1-7.2-13.4-12.8c-4.4-7.8-4.1-15.9-2.5-24.2c0.8-4.3,0.9-4.2-3.2-5.1c-26.7-5.1-49.8-17.2-68.7-36.8
			c-14.2-14.8-24.6-32.2-32.5-51c-2.9-6.9-5.5-13.9-7.9-21c-1.3-3.9-1.6-4-5-1.6c-15.8,10.7-32.3,20.2-50.2,27.1
			c-22.7,8.8-46.2,13.7-70.7,12.4c-26.3-1.5-51.1-9-74.2-21.8c-11.8-6.5-23.1-13.9-33.8-22.1c-2.7-2.1-3.1-1.9-4.4,1.6
			c-6.4,18.1-14.3,35.6-24.7,51.8c-10.1,15.7-22.6,29-39.3,37.7c-12.4,6.5-25.6,9.8-39.7,9.2c-8.5-0.3-8.5-0.1-9.5,8.1
			c-2,16-12.2,26.9-29.5,30.8c-10.3,2.3-20.7,2.4-31.2,1.4c-7.3-0.7-14.6-1.4-21.8-3C1433.4,287.9,1431.5,287.8,1430.1,286.5z"/>
		<path class="st10" d="M1611.4,693.4c1.4-11.4,4.3-22.5,7.3-33.5c4.3-16,9.9-31.7,15.6-47.3c27.1,1.8,54.3,1.6,81.4,1.6
			c3.6,0,7.2-0.3,10.9,0.6c5,1.2,9.3-1.3,12.9-4.6c3.1-2.9,5.7-7.8,7.1-12.8c2,5.5,3.5,10.8,7.7,14.7c4.7,4.3,9.5,6.3,16.2,4.4
			c6.7-1.9,13.8-0.5,20.7-0.5c8.7,0.6,17.4,0.3,26.1,0.2c3.7,0,5.5,1.1,6.9,4.7c5.7,15.2,10.5,30.7,11.8,47
			c0.7,8.2,0.8,16.3-0.8,24.4c-1.3,6.4-4.5,11.2-9.6,15.1c-8.5,6.5-17.8,11.5-27.8,15.2c-15.9,5.9-32.3,10.2-49.1,11.7
			c-10.5,1-21.2,0.6-31.8-0.1c-11.3-0.7-22.5-1.8-33.6-3.7c-20.6-3.4-40.2-9.8-57.5-21.9c-4.4-3.1-8.5-6.4-12.1-10.3
			C1612.2,696.9,1610.6,695.6,1611.4,693.4z"/>
		<path class="st11" d="M1430.1,286.5c6.5,1,13.1,2.1,19.6,2.9c14.9,1.7,29.7,2.5,44.2-2.5c14.2-4.9,22.7-16.7,22.7-31.8
			c0-5.4,0-5.5,5.2-5.3c12.7,0.4,25.1-0.8,37.1-5.7c9.4-3.9,17.9-9.2,25.3-15.9c17-15.3,28-34.7,37.1-55.4
			c3.4-7.7,6.7-15.4,9.2-23.5c1-3.1,2.4-2.2,4-0.9c6.4,5.5,13.4,10.1,20.5,14.7c19.2,12.4,39.7,21.8,62.1,26.7
			c14.1,3,28.4,4.8,42.8,3.5c20.3-1.8,40.1-6.3,58.9-14.5c16.1-7,31.4-15.6,45.7-25.7c3.3-2.4,4.1-1.5,5.2,1.9
			c6.6,21.3,15.8,41.3,29.1,59.3c13.6,18.4,30.6,32.4,51.8,41.4c9.8,4.2,19.8,7.4,30.3,8.8c2.5,0.3,2.7,1.8,2.1,3.7
			c-1.2,3.7-1.5,7.4-1.6,11.2c-0.6,12.5,5.8,20.8,15.9,26.8c11.1,6.6,23.4,9.7,36.1,11.5c3.1,0.4,6.2,0.8,9.3,0.7
			c-4.1,6.8-9.9,12.2-15.6,17.6c-1.3,1.2-2.6,1.6-4.4,1.2c-6.3-1.3-12.7-1.3-19-0.1c-0.7,0.1-1.5-0.1-2,0.3
			c-4.3,3.7-8.5,1.2-12.5-0.4c-9.7-3.9-18.5-9.2-24.7-18c-4.6-6.5-6.4-13.8-6.4-21.5c0-4.1-1.4-6-5.5-7.1
			c-22.1-6.1-42.1-16.4-58.6-32.5c-13.6-13.3-23.3-29.3-30.1-47c-1.2-3-2.2-6.1-3.3-9.2c-2.1-6-7.3-7.8-12.6-4.3
			c-14,9-28.6,16.7-44.3,22.3c-20.3,7.3-41.2,11.1-62.8,9.4c-16.7-1.2-32.6-5.6-47.9-12.3c-16.5-7.3-31.5-17-45.4-28.6
			c-3.6-3-7.4-1.7-8.5,3.1c-2,8.9-4.3,17.6-8.1,26c-11,24.6-29.9,39.7-55.9,46.3c-12.4,3.2-25,4.7-37.8,4.7c-4,0-5.2,2.1-5.1,5.6
			c0.1,5.6,0.1,11.1-1.5,16.6c-3.9,13.3-13.9,19.1-26.4,22c-6.5,1.5-13.2,1.8-19.8,1.6c-1.2,0-2.3,0-3.5-0.8
			c-8.3-5.7-17.7-5.4-27.1-4.5c-1.3,0.1-2.7,0.8-4,0.1C1440.4,304.1,1433.4,297,1430.1,286.5z"/>
		<path class="st12" d="M1625.9,611.8c-3.4,9.2-6.9,18.4-10.3,27.6c-7.9,3-15.8,4-23.8,0.6c-9-3.9-11.3-12-12.3-20.6
			c-0.4-3.6-0.7-7.4,1.8-10.7c-8.1,2.1-16.1,4.8-24.7,4.9c-6.7,0.1-12.2-2.3-17.3-6.2c-3.7-2.8-7-6.1-10-9.6
			c-5.6-6.6-5.5-13.9-2.2-21.4c2.6-6.1,7.1-10.9,11.7-16c-11,2.4-21.8,4.5-32.7,4c-12.3-0.5-24.3-2.8-34.8-10.1
			c-16.7-11.6-20.5-38.3,3.2-50.4c16.9-8.6,35.1-12.4,53.7-14.4c10-1.1,20-2,30.1-2.5c2.6-0.1,5.2,0.1,7.6,1.1
			c12.1,7.1,24.1,14.2,36.9,20c14.2,6.4,28.7,11.6,43.6,15.9c2.1,0.6,4.1,1.3,6.7,2.1c-9.1,4.2-17.7,8.1-26.2,12.3
			c-15.8,7.9-31.4,16.3-45.1,27.7c-4,3.3-7.7,7-10.2,11.6c-4.8,8.7-3,16,5.4,21.4c7.9,5,16.9,7.5,26,9.2
			C1610.5,609.7,1618.2,610.7,1625.9,611.8z"/>
		<path class="st12" d="M1908,606c2.4-1.3,4.9-2.4,7.1-3.9c8.6-5.7,10.2-13.6,4.6-22.5c-3.7-5.9-8.8-10.3-14.2-14.4
			c-19.3-14.6-41-25-62.7-35.6c-1.4-0.7-3.1-1-4.2-2.7c19.8-5.7,39-12.9,57.4-22c11.1-5.4,21.7-11.9,32.2-18.3
			c4.5-1.9,9.2-0.3,13.7,0c9.8,0.6,19.5,1.4,29.2,3.1c14.1,2.5,28,5.8,40.8,12.6c9.6,5,16.7,12,17.2,23.5c0.5,12.1-4.7,21.7-15,28.2
			c-8.4,5.3-17.9,8-27.9,8.3c-12.8,0.4-25.5-0.1-38.7-3.6c5.5,5.2,9.6,10.4,12.4,16.5c3.9,8.5,2.7,16.2-3.7,22.9
			c-2.4,2.6-5,4.9-7.7,7.3c-7.5,6.8-16.2,7.7-25.6,6.2c-3.9-0.6-7.7-1.7-11.5-2.7C1910,608.4,1908.2,608.2,1908,606z"/>
		<path class="st7" d="M1611.4,693.4c3.1,5.8,8.4,9.5,13.4,13.2c16.2,11.8,34.6,18.3,54.2,21.9c11.4,2.1,23,3.4,34.6,4.2
			c6.1,0.4,12.2,0.5,18.3,0.7c19.9,0.7,39-3.4,57.8-9.5c12.1-3.9,23.3-9.4,33.8-16.6c8.7-5.9,11.2-14.4,11.6-23.8
			c0.9-20.3-3.2-39.9-10.9-58.7c-3.4-8.3-3.4-8.2-12.4-8.4c-6.9-0.2-13.8,0.9-20.6-0.6c21.5-0.3,43,0.6,64.5-0.9
			c6.6,15.9,12.2,32.2,17.1,48.7c4.4,15.1,8.2,30.3,11,45.7c0.6,3.5,1.3,6.9,2,10.3c0.5,2.7-0.2,4.7-2.8,6
			c-17.9,9.2-36.3,17.2-55.6,23c-10.5,3.2-21.1,6-31.9,7.7c-11.5,1.8-22.9,3.9-34.6,3.8c-7.6,0.6-15.2,0.6-22.9,0
			c-17-0.4-33.6-3.1-50.1-6.8c-25.1-5.6-49-14.6-72.2-25.8c-9.1-4.4-9-4.3-7.7-14.6C1609,706.5,1609.9,699.9,1611.4,693.4z"/>
		<path class="st13" d="M1565.9,488.2c-23.2,0.6-46.2,2.3-68.8,8.3c-8.6,2.3-16.9,5.3-24.5,9.9c-16.8,10-17.9,29.1-5.7,42.8
			c4,4.5,9.2,7.6,14.9,9.6c10.2,3.7,20.8,5.4,31.6,4.6c9.4-0.7,18.7-2.2,28.1-4.4c-3.7,4.1-7.5,8.1-10.5,12.7
			c-4.7,7-7.6,14.7-2.8,22.4c5.1,8.1,12,14.8,21.5,17.7c5.8,1.8,11.8,0.9,17.7-0.5c5.2-1.3,10.4-2.7,15.5-4
			c-4.8,9.4-2.8,18.6,2.8,26.6c4.6,6.7,12,8.2,20,6.7c3.3-0.6,6.6-0.7,9.9-1.1c-0.6,3.7-1.9,7.2-3.4,10.6
			c-9.8,2.2-19.7,4.1-29.8,3.3c-8.5-0.7-17-1.7-23.7-8.1c-4.8-4.6-5.7-10.2-5.1-16.4c0.2-2.1,1.7-2.9,3.5-3.4c3.3-0.9,6.5-2,9.7-3
			c2.6-0.8,3.7-2.6,2.8-5c-0.8-2.1-2.8-2.7-5.1-1.9c-9,3.1-18.2,5.7-27.6,6.3c-15,1-30.2,2-44.2-5.4c-10.5-5.6-13.9-16.9-7.9-27.3
			c1.1-1.8,2.4-2.6,4.5-2.8c5-0.6,9.9-1.5,14.8-2.5c2.3-0.4,3.6-2.2,3.4-4.4s-2-3.2-4.2-2.8c-6.3,0.9-12.5,1.9-18.8,2.7
			c-10.8,1.4-21.5,1.8-32.4,0.7c-10.6-1.1-20.9-2.8-30.8-6.9c-7.3-3.1-13.9-7.3-18.3-14.3c-6.1-9.9-4.7-19.7,1.1-29.2
			c7.3-12.1,18.2-20.4,29.9-27.6c17-10.5,35.6-16.7,55-20.7c17.8-3.7,35.9-2.9,54-2.6c3.6,0.1,7.2,0.9,10.8,1.4
			C1557.7,482.8,1561.8,485.5,1565.9,488.2z"/>
		<path class="st6" d="M1908,606c13.6,8.3,32.4,5.9,43.8-4.9c6.7-6.4,11.6-13.1,8.3-22.8c-2-5.8-5.5-10.9-9.8-15.3
			c-1.8-1.8-3.8-3.3-5.3-5.5c14.1,3.4,28.2,4.3,42.2,3.4c12.2-0.8,23.7-4.1,32.7-13.4c10.9-11.3,12.6-32.5-5.9-42.9
			c-13.8-7.7-28.8-11.4-44.3-13.9c-13.8-2.2-27.7-2.7-41.5-4.1c3-2.2,6.1-4.3,9.1-6.5c6.9-1.2,13.8-0.8,20.7-0.8
			c23.7,0.2,46.5,5,68.4,13.9c15.1,6.1,29,14.3,40.6,25.8c7.5,7.5,14.2,15.7,14.2,27.4c-0.1,9.5-4.3,16.6-11.8,22
			c-9,6.6-19.4,9.3-30.2,11.3c-5.1,0.9-10.1,1.9-15.3,1.7c-5.2,0.6-10.3,0.6-15.5,0c-9.7,0.1-19.1-1.7-28.5-3.7
			c-0.9-0.2-1.9-0.3-2.8-0.4c-2.5-0.3-4.1,0.9-4.4,3.2s1.4,3.5,3.3,4c3.8,1,7.6,1.8,11.5,2.5c2.7,0.5,5.9-0.2,7.6,2.8
			c2.5,4.6,4.5,9.2,3.1,14.7c-2.8,10.6-11.2,14.4-20.6,16.8c-12,3.1-24,3.3-36.2,1.1c-8.3-1.5-16.5-2.8-24.5-5.5
			c-2.4-0.8-5.2-1-6.2,2c-0.9,2.9,1.2,4.4,3.9,5.1c3,0.8,5.9,2.1,9,2.6c2.5,0.5,3.3,1.8,3.7,4c1.3,5.9-2.2,14.4-7.7,17.7
			c-6.3,3.7-13.2,5.9-20.5,5.8c-6.9-0.2-13.9,1.4-20.6-1.5c-1.5-4.9-3.1-9.8-4.6-14.7c2.4-1.2,4.8-0.2,7.1,0.1
			c13.1,2,21.8-4.4,24.2-17.3c0.9-4.6,0.3-8.8-0.7-13.2C1905.6,606.7,1906.7,606.2,1908,606z"/>
		<path class="st10" d="M1818.1,607.5c-11.7,0.4-23.4-0.1-35-0.5c-3.1-0.1-2.4-1.5-1.7-3.4c3.6-9.6,3.4-19.1-0.1-28.7
			c-1.9-5.3-5.3-9.6-10.2-12.3c-7.5-4.2-16.4-0.5-21,8.2c-1.2,2.2-2,4.6-3.4,7.9c-1.4-6.3-3.7-11-7.8-14.9
			c-7.8-7.4-18.4-6.5-24.6,2.4c-7.8,11.2-7.1,23.3-2.7,35.4c1.2,3.3,0.8,3.8-2.5,3.8c-17.5-0.2-35.1,0-52.6-0.4
			c-5.9-0.1-11.9-0.5-17.9-0.8c-1.2-1.4-0.1-2.6,0.4-3.8c9-20.8,19.5-40.9,30.6-60.7c0.9-1.6,1.6-3.6,3.9-3.8c1,0,1.9,0.4,2.7,0.9
			c12.1,8.1,26,9.9,39.9,11.6c18.1,2.1,36.3,2,54.4,3.4c6.6,0.5,13.3,0.9,19.8,2.3c5.8,1.2,9.9,4.1,12.4,9.5
			c5.9,13.2,10.8,26.7,15.4,40.3C1818.3,605.1,1818.7,606.3,1818.1,607.5z"/>
		<path class="st14" d="M1818.1,607.5c-5.1-14.1-10-28.4-16.1-42.2c-2.5-5.7-6.1-9.1-12.5-10.1c-12.9-2-25.8-2.6-38.7-3.2
			c-18.5-0.9-37-1.6-55.1-5.6c-8.3-1.8-15.7-5.6-23-9.9c-0.7-2.8,0.6-4.3,3.3-5c11.1,1.5,22.3,3.1,33.4,4.5c4,0.5,8.1,1,12.1,1.2
			c16.8,0.8,33.7,1.5,50.5,0.8c15.8-0.7,31.5-2.7,47-6.2c1.7,0.7,2.3,2.2,3,3.7c10.7,22.3,20.4,45.1,30.2,67.8
			c0.5,1.1,1.3,2.2,0.2,3.4C1841,606.8,1829.6,608.1,1818.1,607.5z"/>
		<path class="st12" d="M1829.6,533.2c11.2,4.3,21.7,9.9,32.4,15.3c13.9,7.1,27.6,14.7,39.9,24.4c3.6,2.9,7,6,9.7,9.9
			c3.7,5.4,3,9.5-2.6,13c-5.6,3.5-12.1,4.8-18.4,6.2c-9.6,2-19.3,3.3-29.1,3.8c-1.8-0.8-2.2-2.7-2.9-4.3
			c-7.8-18.1-15.6-36.1-23.6-54.2c-1.5-3.5-3.4-6.8-4.7-10.4C1829.8,535.8,1828.9,534.7,1829.6,533.2z"/>
		<path class="st12" d="M1629.4,603.3c-13.9-1.5-27.8-3.1-41.1-7.9c-11.8-4.3-13.3-10.4-4.6-19.5c8.3-8.6,18.5-14.7,28.8-20.4
			c17.2-9.5,35.1-17.7,53.3-25.3c0.8,1.8-0.4,3.1-1.2,4.5c-8.2,14.7-15.8,29.7-23.3,44.7c-2.9,5.8-5.5,11.8-8.1,17.7
			C1632.2,599.4,1631.5,601.8,1629.4,603.3z"/>
		<path class="st15" d="M1428.6,355.1c-1.6-17.5,5.8-30.2,21.3-36.3c6.6-2.6,13.5-2.5,20.5-0.9c2.3,0.5,2.6,1.8,2.4,3.9
			c-1,8.7-1.3,17.3-0.9,26.1c0.2,3.5,0.5,7,0.7,10.6c-3,3.1-7.2,3.1-10.9,3.8c-10,1.6-19.8,1.1-29-3.7
			C1431,357.7,1429.3,356.9,1428.6,355.1z"/>
		<path class="st15" d="M2002.7,387c2.6-12.8,4.3-25.7,3.9-38.8c0-1.6,0-2.8,2.2-3.1c19.8-2.9,35.4,13.2,36.6,27.1
			c0.9,6.9,0.8,7.1-5,10.3c-6.7,3.7-13.7,6.6-21.3,7.7C2013.2,391.1,2007.7,390.3,2002.7,387z"/>
		<path class="st12" d="M1904.5,607.4c4,4.3,2.6,9.4,1.6,14.2c-2.6,13.5-12.2,19.7-25.9,17.2c-2.1-0.4-4.3-0.2-6.4-1
			c-3-7.8-6.1-15.6-9.1-23.5C1878.3,613.4,1891.5,611.2,1904.5,607.4z"/>
		<path class="st16" d="M2002.7,387c0.4,0,0.9-0.1,1.2,0.1c14.9,5.8,27.4-0.8,39.8-7.8c3-1.7,1-4.7,1.7-7c1.9,9.8-0.4,18.8-6.5,26.3
			c-9.9,12.5-24.9,15.4-39.3,10c-2.6-1-3.5-2.1-2.3-5.1C1999.3,398.1,2000.9,392.5,2002.7,387z"/>
		<path class="st16" d="M1428.6,355.1c14.1,8.7,28.8,7.9,43.9,3.2c1.2,6.1,2.2,12.3,3.6,18.4c0.5,2.1,0.3,3.2-1.8,4
			C1452.3,389.2,1431.7,375.2,1428.6,355.1z"/>
		<path class="st17" d="M1829.6,533.2c11,24,21.5,48.4,31.8,72.7c-3,0.2-6,0.5-9.1,0.7c-4.4-10.3-8.5-20.8-13.2-31
			c-6.7-14.7-12.7-29.6-20.2-43.9C1822.8,530.5,1826.4,530.4,1829.6,533.2z"/>
		<path class="st17" d="M1629.4,603.3c10.2-23.8,22-46.8,34.6-69.5c0.7-1.2,1.2-2.4,1.8-3.6c3.5-0.9,6.8,0.5,10.1,1.2
			c-1.6,1.4-2.7,3-3.3,5c-10,16.4-18.6,33.6-26.8,50.9c-2.6,5.5-5.5,10.8-7.4,16.7C1635.5,603.1,1632.4,603.8,1629.4,603.3z"/>
		<path class="st15" d="M1716.8,590.4c-1.8-6.9-0.7-13.5,3.1-19.4c3.7-5.8,9.7-6.4,14.3-1.3c5.9,6.6,7.3,14.6,5.5,23.1
			C1733.9,600.7,1722.5,599.5,1716.8,590.4z"/>
		<path class="st15" d="M1754.6,597.7c-1.5-6-1.9-12.1-0.2-18.1c0.4-1.3,0.7-2.6,1.4-3.8c1.9-3.6,4-7.5,8.8-7.3s7.5,3.7,9.1,7.7
			c2.2,5.3,3.3,10.9,2.5,16.7C1772.8,601.2,1760.2,604.4,1754.6,597.7z"/>
		<path class="st16" d="M1716.8,590.4c2.9,2.4,5.6,5.2,9.4,6.2c5.1,1.4,9.5-0.4,13.5-3.7c-0.9,5.3-2.1,10.4-7.2,13.5
			c-3.2,2-6.2,1.6-9-0.8C1718.8,601.6,1716.6,596.5,1716.8,590.4z"/>
		<path class="st16" d="M1754.6,597.7c8.7,5.1,15.6,2,21.7-4.9c-0.8,5.9-1.5,11.4-7.4,15.2c-3.7,2.4-6.1,1.1-8.6-0.8
			C1757.2,605,1755.5,601.5,1754.6,597.7z"/>
		<path class="st18" d="M1738.1,760.4c7.6,0,15.2,0,22.9,0c-5.2,1.8-10.6,0.5-15.9,0.7C1742.8,761.2,1740.3,762,1738.1,760.4z"/>
		<path class="st19" d="M1559-72.8c-3.9-10.1,1.4-17.3,8.2-23.6c9.2-8.6,20.6-13.5,32.2-18.1c27-10.5,55.2-15.9,83.9-19.1
			c25.4-2.8,50.8-3.2,76.2-2.1c35.4,1.4,70.3,6.6,103.6,19.4c11.1,4.2,21.9,9.1,30.3,17.8c3.2,3.3,5.7,6.9,6.5,11.5
			c0.9,2.7,0,4.8-2.5,6.1c-16,8.8-32.6,12.3-50.4,6c-1.8-0.6-3.6-1.2-4.8-2.8c-0.2-0.5-0.5-1-0.4-1.5c1.5-9.4-4.2-15-11-19.8
			c-8.8-6.2-18.9-9.7-29.1-12.5c-17.3-4.8-35-7.5-53-8.7c-20.5-1.4-40.8-0.2-60.9,2.9c-20.2,3.2-39.9,8.4-57.9,18.8
			c-3.7,2.2-6.8,5-9.6,8.2c-3.7,4.2-4.3,9.3-3.2,14.6c0.3,1.5,0.9,2.9,0.9,4.4c-0.3,2.3-2,3.1-3.8,3.8c-16.9,7.2-33.7,7.8-50.2-1.4
			C1562.1-69.9,1560.4-71.1,1559-72.8z"/>
		<path class="st20" d="M1559-72.8c6.3,3.3,12.5,6.9,19.6,8.5c12.8,2.8,24.9,0.4,36.6-4.7c1-0.4,2-1,2-2.3c0.8-0.1,1.3,0.3,1.7,0.9
			c6.8,9.6,17.1,14,27.7,17.8c18.7,6.7,38.1,9.9,57.8,11.4c30.4,2.4,60.3-0.2,89.7-7.9c10-2.6,19.8-5.9,29-10.8
			c7.3-3.9,14-8.4,17.7-16.2c0.4-0.7,0.9-1.4,1.7-1.7c14.4,6.9,28.9,6.5,43.6,1c3.4-1.3,6.6-3.1,10-4.5c2.5-1.1,4-2.7,3.7-5.6
			c1.8,7.8-1.2,14.1-6.2,19.6c-8.2,8.9-18.8,14.3-29.8,18.7c-22.9,9.2-46.7,14.8-71.1,18.3c-17.6,2.5-35.2,3.9-53,5
			c-18.6,1.1-37.1-0.7-55.6-1.7c-20.2-1.1-40.1-4.5-59.7-9.3c-18-4.3-35.7-9.5-51.4-19.9C1567-60.3,1561.2-65.1,1559-72.8z"/>
		<path class="st21" d="M2008.5,581.5c5.2,0,10.3,0,15.5,0C2018.8,582.8,2013.7,582.8,2008.5,581.5z"/>
		<path class="st15" d="M1689.9,900.9c-2.2-10.3-1.8-20.7-0.4-31.1c0.9-6.5,2.4-12.8,5.4-18.7c0.8-1.6,1.8-3.1,2.9-4.4
			c3.3-3.8,6.3-3.8,9.5,0c4.8,5.6,6.2,12.6,7.8,19.4c0.7,3,1.3,6.1,1,9.3c0,9.8-3,18.9-7.1,27.7c-1.7,3.6-4,7.1-8.7,6.9
			c-4.9-0.3-7.7-3.6-9.7-7.6C1690.4,901.8,1690.2,901.3,1689.9,900.9z"/>
		<path class="st16" d="M1689.9,900.9c1.8,2,3.5,4,5.5,5.9c3.8,3.6,8,3.2,10.9-1.2c5.2-7.8,6.8-16.9,8.8-25.8c0.3-1.4,0.6-2.9,1-4.3
			c1.8,15.7,0.6,31-7.2,45c-3.9,7.1-8.6,6.9-12.8,0.1C1692.5,914.5,1690.4,907.9,1689.9,900.9z"/>
		<path class="st15" d="M1768.2,852.4c0.1-7.7,2.5-14.9,5.5-21.9c1.4-3.3,3.4-7,7.6-7.1c4.5-0.1,6.4,3.8,8,7.2
			c3.9,8.3,5.6,17.3,6,26.4c0.3,8.4,0.8,16.8-1.6,25c-5.2,7.5-13.8,7.1-18.8-1.1c-4.1-6.7-5.7-14.3-6.5-22.1
			C1768.2,856.8,1767.4,854.6,1768.2,852.4z"/>
		<path class="st16" d="M1768.2,852.4c1.1,7.6,2.4,15.2,5,22.4c0.7,1.9,1.5,3.8,2.5,5.5c3.8,6.4,9,7.6,15.2,3.4
			c0.9-0.6,1.8-1.2,2.7-1.8c-0.6,6.4-2.4,12.5-5.8,18c-3.9,6.3-8.6,6.3-12.6,0.1c-5.4-8.3-6.9-17.9-7.6-27.5
			C1767.2,866,1766.8,859.2,1768.2,852.4z"/>
		<path class="st22" d="M1901.3,383.7c-10.9,1.1-20.8-2-29.9-8c-3.5-2.3-6.3-5.2-7.9-9.1c-2.9-6.9-0.8-13.5,5.2-18
			c11.5-8.6,24.7-9.2,38.1-7.8c8.2,0.9,16.1,3.1,23,8.4c11.8,9,11,22.1-2,29.1C1919.6,382.8,1910.7,384.4,1901.3,383.7z"/>
		<path class="st22" d="M1597.4,374.8c-10.1,0.6-20.3-1.8-29.2-8.2c-5.1-3.7-9.5-7.8-9.3-15.2c0.2-5.4,2.9-9,6.7-11.9
			c6.8-5.1,14.6-7.6,23.1-7.9c11.3-0.4,22.5-0.1,32.9,5.5c2.4,1.3,4.6,2.9,6.7,4.6c8.7,6.9,8.1,19.7-1.5,25.9
			C1619.4,372.4,1611,374.8,1597.4,374.8z"/>
		<path class="st23" d="M1789.5,439.7c-19,0.3-31-8.7-40.8-21.7c-2.9-3.8-5.2-8-7.5-12.1c-1.6-2.9-2.7-5.8-0.3-8.7
			c2.3-2.7,5.2-1.5,7.9-0.5c7.6,2.8,15.3,4.6,23.4,4.7c17.1,0.3,30.7-7.1,42.2-19c2.7-2.8,5.2-5.9,7.6-9.1c1.3-1.8,2.9-2.2,4.9-2.1
			c2.2,0.2,3,1.7,3.5,3.4c3.1,11.3,4.6,22.7,2.1,34.2c-3.4,15.7-15.7,26.6-32.7,29.6C1795.8,439.2,1791.8,439.8,1789.5,439.7z"/>
		<path class="st23" d="M1850.9,325.7c0.1,3.9-3.2,5.7-6.5,3.9c-6.1-3.4-12.6-5.7-19.7-6c-10.8-0.4-19.4,4.2-26.9,11.5
			c-1.2,1.2-2.2,2.9-4.3,2.7c-1.8-0.1-3.1-1.1-3.8-2.7c-0.8-1.8-0.1-3.3,1.1-4.8c10.1-12.7,27.9-18.4,43.7-14
			c4.6,1.3,9,3.1,13.2,5.4C1849.3,322.7,1851,323.7,1850.9,325.7z"/>
		<path class="st23" d="M1664.8,312.6c13-0.5,23.7,4.3,33.1,12.3c0.7,0.6,1.4,1.3,1.9,2.1c1.3,1.9,1.5,3.8-0.3,5.5
			c-1.9,1.7-3.7,1.9-5.7,0.1c-14.4-13.2-30.7-14.2-48.2-7.7c-2.9,1.1-5.4,1.5-7-1.5c-1.4-2.5,0.2-5,3.9-6.4
			C1649.8,314.2,1657.2,312.1,1664.8,312.6z"/>
		<path class="st2" d="M1842.7-77.9c-2.7,8.9-9.6,13.9-17.2,18c-16,8.6-33.3,13.1-51,16.2c-20.4,3.6-41,5.2-61.6,4
			c-27.6-1.6-54.8-5.6-80-17.9c-6.5-3.2-11.9-7.6-15.5-13.9c-3.9-11-1.4-18.7,8.6-25.8c11.2-7.9,23.9-12.1,36.9-15.8
			c17.4-5,35.2-7.3,53.3-8.4c33.3-2,65.8,1.4,97.4,12.4c8.4,2.9,16.4,6.6,23,12.8C1841.8-91.1,1844.3-85.2,1842.7-77.9z"/>
		<path class="st24" d="M1752.3,407.2c28.4,7.9,51.9-0.1,71.1-21.8c5.8,27.3-7.6,41.6-28.5,45.2
			C1777.6,433.5,1761,423.7,1752.3,407.2z"/>
		<path class="st24" d="M1723.9-44.9c-27.2-0.8-54.8-3.8-81.1-14.2c-5.8-2.3-11.4-5.1-16-9.5c-7.3-7-7.4-14.6,0-21.6
			c8.1-7.7,18.4-11.3,28.8-14.7c30-9.6,60.8-12.5,92.2-10.8c21.6,1.2,42.7,4.6,63.1,11.7c7.7,2.7,15.2,5.9,21.3,11.7
			c7.1,6.7,7,14.5-0.2,21.1c-7.7,7.1-17.2,10.9-26.9,14.1C1778.9-48.5,1751.9-45.5,1723.9-44.9z"/>
	</g>
</g>
</svg>
