<?xml version="1.0" encoding="utf-8"?>
<!-- Generator: Adobe Illustrator 19.0.0, SVG Export Plug-In . SVG Version: 6.00 Build 0)  -->
<svg version="1.1" id="Camada_1" xmlns="http://www.w3.org/2000/svg" xmlns:xlink="http://www.w3.org/1999/xlink" x="0px" y="0px"
	 width="975.8px" height="1082.2px" viewBox="1128.2 -143.5 975.8 1082.2"
	 style="enable-background:new 1128.2 -143.5 975.8 1082.2;" xml:space="preserve">
<style type="text/css">
	.st0{fill:#7F5537;}
	.st1{fill:#7D308D;}
	.st2{fill:#F2BF02;}
	.st3{fill:#774E3A;}
	.st4{fill:#ADDEF1;}
	.st5{fill:#FEE2BE;}
	.st6{fill:#EC8151;}
	.st7{fill:#FEDAAB;}
	.st8{fill:#A56DAA;}
	.st9{fill:#F6C28D;}
	.st10{fill:#EC6F3A;}
	.st11{fill:#A35BAA;}
	.st12{fill:#BEEDFE;}
	.st13{fill:#D7EDF5;}
	.st14{fill:#FDD8A9;}
	.st15{fill:#ABBFC2;}
	.st16{fill:#C4567E;}
	.st17{fill:#FEE595;}
	.st18{fill:#F2D15C;}
	.st19{fill:#F4A29A;}
	.st20{fill:#C65981;}
	.st21{fill:#BE638C;}
	.st22{fill:#DF455A;}
	.st23{fill:#F5C92A;}
	.st24{fill:#F2C830;}
	.st25{fill:#F2C935;}
	.st26{fill:#980033;}
	.st27{fill:#FEFEFE;}
	.st28{fill:#CB0033;}
	.st29{fill:#989898;}
	.st30{fill:#980000;}
	.st31{fill:#F5CF40;}
	.st32{fill:#f2e3fc;}
</style>
<g>
	<g>
		<path class="st0" d="M1374.7,370.8c-1.3-3.4-2.8-6.7-3.9-10.2c-0.6-1.9-1.3-1.6-2.7-1c-19.2,7-37.2,0.5-46.7-17.6
			c-6.3-12-4.3-28.2,4.7-38.9c2.4-2.9,5-5.7,8.3-7.6c1.5-0.9,1.8-1.3,0.2-2.6c-14.1-11.6-19.4-27-18.9-44.8
			c0.4-14.6,5.4-27.4,16-37.8c5.4-5.3,11.9-8.8,19.1-10.7c1.5-0.4,2-0.7,1.2-2.3c-7.7-15.6-6.8-31.8-1.5-47.6
			c10.3-30.7,30.1-52.8,60.9-64c16.7-6.1,33.6-6.2,50.5-1c2.2,0.7,3.2,0.4,4.5-1.7c21.7-34.9,53.9-55,92.9-65.2
			c26.5-6.9,53.3-7.7,80-1.9c45.8,9.9,81.7,34.1,104.6,75.8c2.5,4.5,4.6,5.8,9.8,5.4c26.3-1.8,48.7,8.2,68.6,24.3
			c18,14.5,32,32.3,39.5,54.5c5.4,15.9,6.8,31.8-0.1,47.7c-0.3,0.7-1,1.5,0.2,2.1c10.5,5.1,14.5,14.9,17.1,25.2
			c6.3,25-1.5,46-19.4,63.8c-1.4,1.4-2.8,2.9-4.2,4.4c8.6,5.3,14.6,12.8,17.1,22.7c4.2,16.5-2.5,31.6-17.6,40.6
			c-0.4,0.2-0.7,0.5-1,0.7c-1.9,2.8-5.3,2.5-7.9,3.8c-7.6,1.7-15,1.4-22.3-1.5c-3.6-1.4-3.6-1.4-5.5,1.9c-2.5,4.2-4.7,8.6-7.4,12.7
			c-6.2,8.7-12.8,17-20.5,24.3c-14.2,13.6-30,25-47.3,34.2c-8.6,4.6-17.4,8.8-26.5,12.2c-0.3-0.2,0.1,0.1-0.3,0c-0.3,0-0.2,0,0.1,0
			c1.5-0.1,3-0.4,4.4-0.8c15.4-1.2,30.7-3.1,45.7-6.8c21.4-4.9,41.5-13.2,60.6-24c14.3-8.1,27.6-17.8,40-28.6
			c2.3-1.4,3.7-3.9,6.4-4.8c9.9-8.9,18.6-19,26.9-29.4c0.5-0.7,1.2-1.3,0.3-2.2c-4.3-4.4-4.4-9.9-3.3-15.3
			c3.1-15.1,21.4-29.5,36.7-29.2c7.9,0.2,15.1,5,16.3,11.5c0.9,4.8,0.4,9.6-1.6,14.2c-6.2,14.7-21.1,24.8-36.5,24.5
			c-0.9,0-1.9,0.2-2.5-0.2c-3.3-1.8-5,0-7,2.5c-8.9,11.5-19,21.8-29.5,31.8c-1.9,3.5-5.5,5.2-8.2,7.8
			c-12.1,10.1-25.3,18.9-39.1,26.4c-16.3,8.9-33.5,15.5-51.2,20.7c-17,4.6-34.3,7.2-51.9,8.7c-7.1,0.6-14.1,0.4-21.2,0.5
			c-3.4,0-6.6,0.5-9.8,1.5c-5.4,1.8-10.8,3.3-16.5,4.3c-2.6,0.8-5.3,1.3-7.9,2c-12.1,3-24.5,4.4-36.9,5.2
			c-5.6,0.3-11.1,0.6-16.7,0.6c-24.4,0-48.7-1.7-72.7-6.4c-1.1-0.3-2,0.1-2.8,0.8c-0.4,0.3-0.9,0.5-1.4,0.7
			c-3.2,0.7-6.5-0.2-9.7,0.6c-8.5,0.7-16.9,0.2-25.3-0.5c-12.1-1-24-2.7-35.9-5.3c-13.6-3.1-26.9-7.2-40-12.1
			c-11.4-4.7-22.7-9.7-33.6-15.5c-21-11.1-40.9-24.1-59.7-38.6c-2-1.6-4.2-3-6.1-4.7c-1.8-1.8-4.4-2.7-5.6-5.2
			c-0.7-0.9-1.3-1.7-2.5-0.5c-5.6,5.3-12.6,6-19.6,5.2c-12.6-1.5-23.3-6.9-30.7-17.7c-8.3-12-1.2-23.7,11.1-25.7
			c15.3-2.5,32.8,5.5,40.9,18.7c2.2,3.6,3.1,7.5,2.6,11.7c0.9,2.6,3.4,3.7,5.3,5.3c21.1,16.8,43.1,32.1,67.2,44.5
			c12.6,6.5,25.3,12.6,38.7,17.3c28.3,10.5,57.7,15.4,86.5,15.8c-4.5-0.8-10.1-2.8-15.7-4.7c-22.6-7.6-44-17.6-63.8-31
			c-17.9-12.2-34-26.4-47.9-43.1c-0.7-0.8-1.5-1.6-2.1-2.4c-5.1-7-10-14.2-13.9-22C1376.2,375,1374.6,373.2,1374.7,370.8z"/>
		<path class="st1" d="M1527.3,486.5c3.4-0.7,6.8,0,10.2-0.5c0.7,1.7-0.4,2.9-1.1,4.2c-12.1,21.4-23.2,43.3-32.3,66.2
			c-8.9,22.4-16,45.3-19.9,69.2c-1.2,7.2-2.3,14.4-3.4,21.6c-0.4,2.5,0.4,3.8,2.6,4.8c15.6,7.6,31.4,14.3,48,19.5
			c17.8,5.6,36,9,54.5,10.7c13.5,1.3,27,1.1,40.5-0.2c19.2-1.8,38-5.9,56.2-12.3c13.7-4.8,26.9-10.7,39.8-17.3
			c2.2-1.2,2.2-2.8,1.9-4.9c-2.4-12.8-5-25.5-8.2-38.1c-8.1-31.5-20.9-61.3-34-91c-4.4-10.1-9.1-20.2-13.6-30.3
			c-0.5-1.1-1.2-2.1-0.8-3.4c2.4-0.6,4.7-1.3,7.1-1.9c0.8,0.6,1.3,1.4,1.7,2.2c8.9,19.7,17.5,39.6,25.9,59.5c1.2,3,2.7,5.9,3.9,8.8
			c1.7,4.2,3.3,8.4,4.8,12.6c0.6,2.1,2,4,1.7,6.3c3.1,10.2,6.3,20.4,9.2,30.7c4.5,15.6,7.9,31.5,10.7,47.6c0.5,2.9-0.2,4.7-3,6.2
			c-13.5,7.4-27.5,13.8-42,19.3c-1.5,1.4-3.2,2.5-5.4,1.9c-12.6,3.7-25.3,7.3-38.3,9.3c-19,3-38.1,4-57.4,2.5
			c-26.3-2.1-51.5-8.3-76.1-17.5c-2.2,0.3-4-0.6-5.4-2.2c-8.7-3.8-17.5-7.5-26.1-11.6c-6.9-3.3-7.1-2.4-6.1-10.4
			c3.1-25.5,8.6-50.4,16.7-74.7c0.5-1.6,1-3.2,1.5-4.9c-0.2-2.1,0.9-3.9,1.5-5.9c1.3-3,2.5-6.1,3.7-9.2
			c5.3-13.5,11.3-26.7,17.8-39.6c3.9-7.8,7.9-15.5,12.3-23C1527.2,489.6,1527.9,488.2,1527.3,486.5z"/>
		<path class="st2" d="M1586.8-105.5c42.4,0,79.1,4,114.9,14.4c17.1,5,33.8,11,48.8,21c4.5,3,8.6,6.4,11.9,10.7
			c8.6,10.9,7.3,24.2-3.3,33.2c-9.2,7.9-20.2,12.4-31.6,16.1c-18.7,6-37.9,9.2-57.4,11c-13.9,1.3-27.8,2.1-41.8,1.8
			c-23.4-0.4-46.5-2.7-69.6-6.7c-21.8-3.8-43.1-9.6-63.5-18.3c-9.8-4.2-19.1-9.3-27.2-16.4c-13-11.4-13.1-27.3-0.3-38.7
			c4-3.6,8.6-6.3,13.5-8.6c16.1-7.6,33.3-11.8,50.8-14.7C1551.9-104.1,1571.9-106,1586.8-105.5z"/>
		<path class="st3" d="M1505.1,670.3c2,0.3,3.6,1.6,5.4,2.2c-19.8,32.6-46.6,58.2-79.2,77.7c-16.9,10.1-34.7,18.3-53.7,23.5
			c-1.1,0.3-2.1,0.8-2.9,1.9c-3.3,4.5-7.8,5.6-13.1,4.7c-8.4-1.5-15.8-5.5-22.5-10.6c-12.6-9.5-23.5-20.4-29.1-35.6
			c-0.8-2.2-1.4-4.5-1.8-6.8c-1.1-7.2,4.1-13.1,11.4-13.3c6.3-0.2,11.9,1.9,17.1,4.9c16.7,9.4,29.9,22.1,37.8,39.9
			c0.9,2.1,1.9,4.2,2,6.4c0.1,2.9,1.3,2.6,3.4,2c15.7-4.9,30.7-11.4,44.9-19.8c16.6-9.8,32.1-21.1,45.9-34.5
			C1484,700,1495.2,685.7,1505.1,670.3z"/>
		<path class="st3" d="M1682.3,678.3c1.8-0.6,3.6-1.3,5.4-1.9c19.7,36.5,45.5,68,78.6,93.2c9.1,6.9,18.7,12.9,29.2,17.4
			c2.1,0.9,2.9,0.7,3.8-1.6c2.9-7.5,8.2-13.3,14.3-18.3c11.4-9.6,23.9-17,38.7-20.1c4-0.9,8.2-1,12.2-0.1c8.7,1.9,12,8.9,8.5,17.2
			c-2.8,6.8-7.6,12.2-12.9,17.1c-10.2,9.4-22,16.2-35.4,20.3c-5.1,1.6-10.3,2.1-15.6,1.8c-4.7-0.3-8.4-2.5-10.2-7.1
			c-0.4-1.1-0.8-2.1-2.1-2.6c-16.1-6.2-30.1-15.8-43.3-26.7c-29.5-24.5-52.6-54.3-70.9-87.9C1682.4,678.7,1682.4,678.5,1682.3,678.3
			z"/>
		<path class="st4" d="M1493.2,563c-0.6,2-1.1,4-2.2,5.7c-12.9,1.5-25.7,0.2-38.2-2.7c-13.5-3.1-25.9-8.3-35.6-18.7
			c-6.3-6.7-8.1-17.5-3.5-25.3c2-3.4-0.2-3.5-2.2-4c-11.2-3.1-21.5-8-30.7-15.1c-6.5-5-12.1-10.8-13.6-19.5
			c-1.3-7.3,1-13.5,5.9-18.8c2.9-3.1,2.9-3.1-1.1-4.7c-14.3-5.7-27.2-13.7-38.2-24.4c-6-5.9-10.9-12.7-12.6-21.3
			c-0.6-2.9-0.3-5.8-0.3-8.6c2.1,1.3,4.1,2.8,5.8,4.6c1.6,2.5,1.8,5.5,3.1,8.1c4.5,9.3,11.7,16,20,21.9c14.5,10.2,30.5,17,47.8,20.7
			c3.8,0.8,5.7,2.6,5.3,4.9c-0.5,2.6-3,3.6-6.9,2.7c-3.1-0.7-6.3-1.4-9.3-2.5c-2.7-1-4.7-0.3-6.8,1.5c-7.1,6.2-8.2,14.8-2.6,22.5
			c6.1,8.4,14.9,13.1,24,17.3c9.1,4.2,18.9,6.4,28.8,7.8c1.8,0.3,3.6,0.5,5.3,1.2c1.7,0.8,2.8,2.1,2.4,4.1c-0.4,1.8-1.8,2.6-3.5,2.7
			c-2.8,0.3-5.5-0.5-8.3-1c-3.8-0.7-4.7-0.2-6.4,3.2c-3,6.1-1.9,11.7,2.1,16.9c3.1,4,7,7,11.4,9.3c11.8,6.4,24.5,9.5,37.9,10.6
			c6.3,0.5,12.6,0.9,18.9,0C1491.1,561.9,1492.4,561.9,1493.2,563z"/>
		<path class="st4" d="M1712.8,572.6c-0.8-1.9-1.5-3.9-2.3-5.8c2.5-1.6,5.2-0.7,7.8-0.8c14.4-0.7,28.3-3.4,41.3-10
			c4.4-2.3,8.5-5.1,11.8-8.8c5.3-5.8,6.5-13.2,3.3-19c-1.2-2.3-2.8-3.3-5.5-2.7c-2.5,0.5-5.1,0.9-7.6,1.2s-4.5-1-4.9-3.1
			c-0.4-2.1,0.9-3.9,3.7-4.4c6.8-1.1,13.6-2.2,20.2-4c13.2-3.7,25.3-9.5,34.9-19.7c7.4-7.9,6.9-18.3-1.2-24.9
			c-1.8-1.5-3.6-2-5.9-1.3c-3.1,0.9-6.2,1.8-9.3,2.5c-0.9,0.2-1.9,0.4-2.9,0.4c-2.1,0.1-4-0.4-4.5-2.7c-0.5-2.4,0.9-3.8,3.1-4.5
			c2-0.6,4.1-1.1,6.2-1.6c13.6-3.3,26.3-8.5,38.1-16c8.1-5.2,15.5-11.1,21.5-18.7c1.8-2.3,3.2-4.8,4.5-7.4c2.8-2.4,5.5-4.7,8.3-7.1
			c-0.1,7.8-3.9,14.2-8.7,19.9c-11.9,14.2-27.5,23.4-44.4,30.3c-0.4,0.2-0.8,0.4-1.1,0.6c-0.1,0-0.1,0.2-0.2,0.4
			c5.7,4.8,8.9,10.9,8.7,18.6c-0.1,6.3-2.8,11.4-6.9,15.8c-10.5,11.3-23.8,17.7-38.3,21.9c-2.4,0.7-3.3,1-1.8,3.8
			c4.6,8.2,2.9,18.9-3.6,25.9c-8.1,8.7-18.6,13.4-29.6,16.6C1736.1,571.3,1724.5,573.1,1712.8,572.6z"/>
		<path class="st4" d="M1374.7,370.8c1,2,2,3.9,2.9,5.9c-0.6,1.5-2,1.3-3.3,1.4c-9.7,0.8-19,2.7-28,6.7c-7.8,3.4-14.2,8.2-17.5,16.4
			c-0.3,0.7-0.6,1.4-1.4,1.7c-1.4-1-2.7-2-4.1-3c-0.9-0.7-1.7-1.4-0.6-2.6c4.1-7.8,10.1-13.7,18.1-17.4c7.3-3.4,15-5.6,22.8-7.2
			C1367.4,372,1371.2,372.2,1374.7,370.8z"/>
		<path class="st4" d="M1846.1,386.3c2.6-1,5.2-2.1,7.8-3.1c5.2,3.4,10.8,6.5,14.3,12c2.2,3.3,3.5,7,5,10.6
			c-1.7,1.9-3.6,3.7-5.7,5.2c-0.6-0.4-0.8-1-0.9-1.6c-1.2-10.8-8.6-16.4-17.3-20.8C1848.2,388,1846.6,387.8,1846.1,386.3z"/>
		<path class="st5" d="M1959.8,354.1c0.5,0.8,1.5,1.6,0.4,2.8C1959.1,356.1,1959.9,355,1959.8,354.1z"/>
		<path class="st6" d="M1326.7,271.1c-4-7.6-4.9-15.9-4.3-24.3c0.7-10.1,3.9-19.5,10.3-27.6c6.2-7.7,14.1-12.4,23.9-13.9
			c5.3-0.9,6.3-3,3.5-7.6c-6.8-11.6-8.1-24.3-5.3-37c7.7-34.6,28.5-58.1,61.9-69.6c15.2-5.2,30.8-4.1,46.1,1.2
			c4.5,1.6,4.9,1.4,7.2-2.6c17.1-29,42.4-47.7,73.4-59.7c13.7-5.3,27.8-8.7,42.3-10c16.5-1.5,32.9-1,49.3,2.1
			c24.7,4.6,46.9,14.7,66.8,30c14.4,11.1,25.8,24.7,34.8,40.5c1.7,3,3.4,6,4.8,9.1c1.2,2.8,2.9,3.8,5.8,3.2
			c5.5-1.1,11.1-0.7,16.7-0.6c10,0.1,19.4,2.9,28.5,6.9c13.7,6,26.1,14.1,36.3,25c13.8,14.6,24.7,31,29.4,50.9
			c3.1,13.4,2.3,26.4-4.9,38.5c-1.8,3-0.4,5.9,2.4,6.1c6.1,0.3,9.4,4.2,12.1,8.9c4.3,7.4,6.1,15.4,6.5,23.9c0.4,9-0.4,17.7-4.7,25.8
			c-1.7,3.2-3.8,6.2-5.8,9.2c-5,0.4-9.8-0.8-14.6-1.8c-9.2-1.9-18.2-4.4-26.2-9.4c-11.7-7.4-16-17.6-13.1-31.1
			c0.1-0.5,0.2-1.1,0.4-1.6c0.8-2.2,0-3.1-2.2-3.5c-5.7-0.9-11.3-2.5-16.8-4.4c-23.7-8-42.2-22.6-56.3-43
			c-10.3-14.8-17.5-31-23.1-48c-1.2-3.6-1.2-3.6-4.4-1.4c-18.4,12.5-37.9,22.7-59.4,28.9c-13.5,3.9-27.3,6.1-41.3,5.8
			c-20.3-0.5-39.7-5.1-58.3-13.5c-14.9-6.8-28.8-15.3-41.7-25.4c-2.4-1.9-2.5-1.9-3.6,1.2c-5.6,15.6-12.3,30.7-21.2,44.7
			c-7.5,11.8-16.4,22.4-28.2,30.1c-11.9,7.8-24.9,12.5-39.4,12c-2-0.1-4.1,0-6.1,0c-4.2,0-4.1,0-4.3,4c-0.2,4.3-1.1,8.5-2.8,12.5
			c-3.6,8.5-10.4,13.5-18.8,16.5c-9.5,3.4-19.4,3.5-29.3,2.9C1344,274.3,1335.3,272.7,1326.7,271.1z"/>
		<path class="st7" d="M1373.2,301.9c7.8-0.1,15.6-0.3,23.3-2.5c17.3-4.8,26.8-16.8,26.9-34.7c0-3,0.9-3.4,3.6-3.5
			c17.7-0.3,34.8-3.5,50.5-12.1c21.2-11.6,32.5-30.5,38.1-53.3c0.2-0.7,0.4-1.5,0.6-2.2c0.1-0.2,0.3-0.3,0.5-0.6
			c8.1,6.2,16.4,12,25.3,17c21.8,12.1,45.1,18.8,70.2,18c20.6-0.6,40.2-6.1,58.8-14.9c8.9-4.2,17.5-9,26.2-14.4
			c1.7,4.4,3.3,8.6,5,12.8c14.9,35.1,41.2,57.3,77.4,68.3c2.2,0.7,2.9,1.5,3,3.9c0.5,15.1,8.4,25.5,21,32.8
			c5.6,3.3,11.5,5.9,17.7,7.4c3.4,0.8,4.3,2.5,3.7,5.6c-0.2,1.7-0.3,3.5-2.9,2.9c-1.1-0.2-1.5,1-2,1.8
			c-7.6,14.6-17.7,27.5-29.2,39.1c-14.4,14.7-30.7,27.1-48.7,37.2c-23.5,13.1-48.4,22.5-74.8,28c-13.1,2.8-26.4,4.6-39.8,5.9
			c-16.2,1.6-32.4,1.3-48.5,1.1c-6.7-0.1-13.5-1-20.2-1.8c-11.1-1.3-22.1-3.1-32.9-5.8c-28.2-7.1-54.3-18.8-77.7-36.3
			c-14.5-10.8-27.4-23.4-38.9-37.4c-14.6-17.9-26.1-37.8-35.5-58.8C1373.3,304.5,1372.6,303.3,1373.2,301.9z"/>
		<path class="st8" d="M1483.4,625.4c3.1-20.2,9-39.6,15.8-58.7c7-19.5,15.8-38.2,25.3-56.5c4.2-8.1,8.6-16,12.9-24.1
			c0.2-0.1,0.4-0.3,0.6-0.4c0.9,0.4,1.2,1.5,2.1,1.8c1.2,0.7,2.7,1.2,3.3,2.7c0,0.7-0.6,0.8-1,1.1c0.3-0.1,0.7-0.2,0.9-0.4
			c0.8-0.6,1.6-0.7,2.4-0.4c10.3,4.8,21.4,6.4,32.4,7.7c8.9,1,18,1,27,1.5c11.3,0.6,22.7,0.8,34,2.7c6.7,1.1,10.9,4.6,13.4,10.9
			c4.4,10.9,8.6,22,12.7,33.1c3.7,10.1,7,20.3,10.6,30.4c3,8.5,4.2,17.3,5,26.2c0.5,5.5,0.8,10.9,0,16.4c-1.1,7.3-3.6,13.4-10,17.9
			c-11,7.8-23,13.3-35.9,17c-17,4.9-34.2,7-51.9,6.3c-22.8-1-45.4-3.5-66.7-12.3c-10.7-4.4-20.7-10-29.2-18
			C1485.7,628.7,1484.2,627.4,1483.4,625.4z"/>
		<path class="st9" d="M1373.2,301.9c8.8,21,20.1,40.7,34.1,58.7c7.5,9.7,15.8,18.6,24.9,26.8c11.9,10.8,24.9,20.2,38.9,28.1
			c18.4,10.4,38.1,17.5,58.6,22.5c9.5,2.3,19.3,3.6,29,4.9c18,2.5,36.1,2.5,54.2,1.7c29-1.3,57.5-5.9,85.1-15.4
			c21.1-7.3,41.1-16.6,59.5-29.3c9.4-6.4,18.1-13.6,26.5-21.3c13.3-12.2,24.4-26,33.6-41.5c0.8-1.3,1.4-2.6,2.1-4
			c0.7-1.5,1.1-2.9,3.5-1.7c2,1.1,0.8-1.8,1.9-2.1c-0.6,28-9.2,53.1-26.9,74.8c-19.5,24-44.2,41-72,54.1
			c-12.1,5.7-24.5,10.2-37.3,14.1c-4.8,1.5-9.7,2.5-14.7,3.6c-7.8,1.8-15.5,4-23.5,5c-10,1.3-20,2.3-30.1,2.5
			c-32,0.7-63.7-1.9-94.7-9.8c-37.3-9.5-71.2-26-100.8-50.9c-15.5-13-28.9-27.8-38.9-45.5c-11.2-19.7-16.4-40.9-15.9-63.5
			c0.1-3.5,0.6-7,0.9-10.6C1371,301.8,1371.7,301.4,1373.2,301.9z"/>
		<path class="st10" d="M1326.7,271.1c0.7-1,1.6-0.7,2.6-0.5c11.7,2.5,23.6,4,35.6,3.6c8.4-0.3,16.6-1.8,24-6.2
			c7.4-4.5,11.7-11.1,13.3-19.5c0.5-2.4,0.9-4.9,0.6-7.3c-0.3-2.5,0.9-3,3.2-3c6.1-0.1,12.2,0.4,18.3-0.5c9.6-1.4,18.5-4.8,26.6-9.9
			c13.8-8.5,23.8-20.7,32-34.4c8.2-13.5,14.4-28,19.7-42.9c0.9-2.5,1.6-2.4,3.5-0.9c11.1,8.9,23.1,16.7,35.9,23
			c14.5,7.2,29.7,12.5,45.9,14.7c7.2,1,14.4,2.1,21.7,1.8c11.4-0.4,22.7-1.9,33.8-4.7c13.1-3.3,25.5-8.2,37.4-14.4
			c9.7-5,19.2-10.3,28-17c1.5-1.2,2.3-1.6,3.2,1c6.4,20.7,15.3,40.3,28.9,57.3c11,13.7,24.4,24.5,40.7,31.6
			c9.1,3.9,18.4,6.9,28.1,8.6c2.6,0.4,2.2,1.3,1.7,3.1c-2.9,9.1-2.4,17.8,3.5,25.6c4.5,6,11.1,9.4,17.9,12
			c9.4,3.6,19.2,5.7,29.3,6.6c0.7,0.1,1.3,0.1,1.7,0.7c-3.8,6.1-8.7,11.1-14.2,15.6c-1,0.8-2,0.9-3.3,0.6
			c-5.7-1.3-11.5-1.2-17.2-0.1c-0.7,0.1-1.7,0.2-2.1,0.7c-2.5,2.6-5,1.3-7.5,0.3c-6.1-2.4-12-5.1-17.2-9.2
			c-8.4-6.6-12.8-15.1-12.7-25.8c0.1-5.2-0.5-5.8-5.4-7.1c-20.7-5.7-38.9-15.7-53.8-31.3c-10.7-11.3-18.3-24.5-24-38.9
			c-1-2.5-1.8-5-2.7-7.6c-1.8-5.1-5.6-6.4-10.3-3.5c-13.6,8.4-27.7,15.8-42.9,21c-16.9,5.8-34.4,8.1-52.2,6.7
			c-20.2-1.6-38.9-8-56.3-18.4c-8.6-5.1-16.7-10.9-24.5-17c-3.6-2.9-6-2.1-7.1,2.5c-1.3,5.3-2.4,10.6-4.2,15.8
			c-6.9,19.2-18.8,34-37.8,42.5c-11,4.9-22.5,7.3-34.5,8.3c-4.2,0.4-8.3,0.5-12.5,0.6c-3.9,0-4.9,1-4.8,5.1c0.1,5.4,0,10.7-1.8,15.9
			c-3.2,9.3-10.3,14.2-19.2,17c-7.4,2.3-15,2.1-22.6,2.1c-2.1,0-3.2-2-5-2.7c-6.3-2.2-12.7-3.4-19.2-1.8c-3.9,0.9-6.7-0.5-9.4-2.6
			C1333.5,283.4,1328.7,278.2,1326.7,271.1z"/>
		<path class="st11" d="M1483.4,625.4c5.8,5.2,11.5,10.4,18.3,14.5c12.6,7.4,26.2,12.2,40.4,15.1c11.4,2.4,22.9,3.6,34.6,4.1
			c6.9,0.3,13.7,0.5,20.5,0.4c12.5-0.2,24.8-2.7,36.8-6c14.7-4.1,28.4-10.3,40.1-20.2c4-3.4,5.1-8.5,5.6-13.3
			c1.8-14.9-0.3-29.4-5.1-43.5c-6.7-19.9-13.6-39.7-21.4-59.1c-1.3-3.1-2.4-6.3-4.5-9.2c-1.6-2.1-3.5-3.2-6-3.9
			c-6.1-1.7-12.4-2.1-18.7-2.5c-13.6-1-27.3-1.1-41-2c-11.2-0.7-22.2-2.6-32.9-6.2c-1.8-0.6-3.6-1.3-5.1-2.6
			c-0.4-0.9,0.5-1.1,0.9-1.6c-0.1,0,0.3-0.1,0-0.1c-0.2,0-0.3,0.2-0.5,0.3c-0.7,0.3-1.5,0.8-2.3,0.7c-1.4-0.4-2.3-1.8-3.9-2
			c-0.7-1.4-0.6-2.7,0.7-3.8c7.4,1,14.7,2.5,22.2,3.3c7.6,0.9,15.3,1.8,23,2.3c13,0.8,25.9,1.3,38.9,0.6c14.6-0.7,29.2-2.1,43.5-5.5
			c7.3,15,14,30.4,20.5,45.7c5.8,13.5,11.7,26.9,16.6,40.7c7,19.5,12.9,39.2,17,59.5c1.2,6.1,2.2,12.2,3.6,18.2
			c0.5,2-0.2,2.9-1.9,3.8c-20.9,10.9-42.6,19.7-65.5,25.1c-10.1,2.4-20.3,3.7-30.6,4.9c-10.7,1.2-21.4,1.3-32.1,1
			c-8.3-0.3-16.6-1.4-24.8-2.5c-16.9-2.4-33.4-6.4-49.4-12.2c-13.5-4.9-26.8-10.4-39.6-16.9c-1.2-0.6-2.3-1.3-2-2.9
			C1480.8,641.4,1482.1,633.4,1483.4,625.4z"/>
		<path class="st12" d="M1705.6,553.9c-5.2-10.6-9.3-21.6-14.1-32.3c-5.4-12.1-10.7-24.2-16.1-36.4c-0.3-0.7-0.5-1.4-0.7-2.1
			c3-0.7,6.1-1.2,9-2.2c9-3.2,18.3-3.6,27.7-3.8c20.8-0.4,41.3-3.4,61.5-8.6c0.7-0.2,1.5-0.2,2.2-0.4c4.5,0.9,6.9,4.4,9.1,7.9
			c1.7,2.8,2.4,6.1,1.8,9.3c-1.3,6.9-3.7,13.4-7.9,19.2c-2.4,3.3-5.5,5.6-9.5,6.9c-6.8,2.2-13.8,3.9-21,4.5c-0.4,0,0,0.7-0.1,0.3
			c0-0.2,0.1-0.2,0.3-0.2c1.9,0.1,2.9,1.5,3.6,2.8c3.6,6.1,5.4,12.6,3.7,19.7c-1.3,5.2-4.9,9-9.6,11.1c-11.6,5.2-23.8,6.8-36.4,5.6
			C1707.9,555,1706.6,554.8,1705.6,553.9z"/>
		<path class="st12" d="M1527.3,486.5c3,0.1,1.5,1.7,0.9,2.8c-6,10.9-11.9,21.8-17.3,32.9c-5,10.4-9.5,21-14.1,31.6
			c-3.2,2.7-7.3,2.3-11,2.7c-10.3,0.9-20.3-1.3-29.9-4.7c-2.7-1-5-2.5-7.2-4.2c-3.5-2.9-5.5-6.5-5.5-11.1c0-3.1,0.3-6.2,0.9-9.3
			c0.9-3.9,2.5-7.5,6-10.2c-6.1-0.9-11.8-2.1-17.5-3.6c-6.9-1.9-11.7-6.1-14.9-12.3c-2-3.9-3.5-8.1-4.6-12.3
			c-2.3-8.7,3.1-15.8,9.8-19.8c0.9-0.5,1.8-0.5,2.8-0.2c11.5,4,23,8,34.9,10.8C1482.5,484.7,1504.7,487.4,1527.3,486.5z"/>
		<path class="st13" d="M1425.7,468.7c-7.8,2.8-14.9,11.7-11.3,21.3c1.2,3.2,2.3,6.5,3.6,9.6c3.3,7.7,9.3,11.8,17.4,13.7
			c5.5,1.3,11.1,1.9,16.8,3.4c-6.5,3.7-7.3,10.1-8,16.4c-1.2,10.8,5.2,15.9,15.5,19.1c7.9,2.5,15.9,4.1,24.3,3.6
			c4.4-0.3,8.7-1,12.9-2c-1,3.1-2.1,6.2-3.6,9.1c-3.8-0.5-7.4,0.7-11.2,0.6c-16.9-0.3-33.2-2.8-48.3-10.8
			c-5.9-3.1-11.2-7.1-14.6-13.1c-3.2-5.7-2.5-13,1.7-17.9c0.8-0.9,1.4-1.1,2.6-1c3.4,0.3,6.6,1.6,10.1,1.5c1.8-0.1,3.4-0.3,3.6-2.3
			c0.2-2.2-1.4-3.2-3.4-3.5c-4.8-0.9-9.7-1.6-14.5-2.6c-13.9-2.9-26.7-8.6-37.6-17.8c-5.9-4.9-10-11.1-8.6-19.3
			c0.9-5.6,4.6-9.6,9.4-12.4c1-0.6,2.1-0.1,3.1,0.2c3.8,1.1,7.6,2.1,11.4,3.2c2.3,0.6,4.6,0.5,5.1-2.2c0.5-2.4-1.7-3.3-3.6-3.7
			c-10.8-2.2-21.3-5.5-31.2-10.5c-14.1-7-27.4-15.1-36.2-28.8c-2.5-3.8-4.3-7.9-4.5-12.5c9.9,7.1,19.5,14.7,29.7,21.5
			c21.4,14.3,43.8,26.8,67.8,36.3C1424.7,468.1,1425.2,468.4,1425.7,468.7z"/>
		<path class="st13" d="M1705.6,553.9c4.2,0.6,8.5,0.6,12.8,0.6c9.2,0.1,18.1-1.9,26.4-5.6c7.7-3.5,12.1-10.2,9.6-20.6
			c-1.7-7.3-3.1-9.8-7.8-13c4.9-1.2,9.9-1.2,14.5-2.7c1.2-0.4,2.5-0.7,3.7-0.9c9.4-1.8,14.4-8.3,17.4-16.7c1.4-4,3.3-8,2.9-12.6
			c-0.5-5.8-3.5-9.7-8-12.8c-0.7-0.5-1.4-1-2-1.6c9.3-3.2,18.7-6,27.8-9.8c22-9.2,42.2-21.3,60.7-36.3c0.4-0.3,0.9-0.6,1.3-0.9
			c0.6,2.2-1,3.8-2,5.4c-4.8,7.4-11.4,12.9-18.5,18.1c-14.6,10.6-31.1,16.9-48.6,20.9c-0.5,0.1-1.1,0.1-1.6,0.3
			c-1.6,0.6-2.5,1.8-2.2,3.5c0.3,1.6,1.6,2.2,3.1,2.1c4.6-0.3,9-1.8,13.4-3.2c2.2-0.7,3.7-0.2,5.3,1c9.4,7,10.2,18.4,2,27
			c-10.9,11.4-24.7,17.3-39.8,20.9c-5,1.2-10,2-15.1,2.7c-1.6,0.2-3.2,0.5-3.7,2.5c-0.4,1.4,0.4,2.2,1.3,3.1
			c0.7,0.6,1.4,0.8,2.3,0.6c3.1-0.6,6.3-1.1,9.4-1.6c1.7-0.3,2.9,0.2,4,1.8c4.5,6.7,3.7,15.3-2.4,21.7c-6.5,6.8-14.6,10.8-23.3,13.7
			c-12.4,4-25.1,5.8-38.2,5.3C1708.8,562.5,1707.2,558.2,1705.6,553.9z"/>
		<path class="st12" d="M1391.4,398.3c11.8,14.3,25,27.1,39.8,38.2c25.8,19.4,54.6,32.9,85.5,41.9c2.4,0.7,4.8,1.4,7.2,2.4
			c-23.2,0.4-45.9-2.5-68.2-8.6c-7.4-2-14.8-4.1-21.9-7.2c0.1-1.8,1.6-1.6,2.6-1.9c-4.6-0.3-9-1.8-13.4-3.3
			c-7.2-2.4-14.3-5.4-20.8-9.2c-10.7-6.1-19.1-14.4-22.2-27C1378.1,416.5,1382.2,402,1391.4,398.3z"/>
		<path class="st13" d="M1846.1,386.3c5.2,2.2,10.2,4.8,14.4,8.8c4.6,4.4,6.9,9.7,7.1,15.9c-15.5,13.8-32.5,25.5-51.1,34.8
			c-14.8,7.4-30.2,13.2-46.2,17.4c-1,0.3-2.1,0.4-3.1,0.6c-1.2,0.5-2.3,0.1-3.5-0.1c-1-0.2-2.4-0.4-2.5-1.6
			c-0.1-1.3,1.3-1.5,2.3-1.8c2.5-0.5,5-1.3,7.5-2c11.1-3.4,22.1-7.1,31.3-14.5c6.9-5.5,12.9-11.7,14.7-20.8c1.5-7.4-0.5-14-4.8-20
			c-0.7-1-2-1.7-2.2-3.1c2.9-5.2,6.2-10.2,8.7-15.6c0.4-0.9,0.9-1.7,2.2-1C1828.9,387.5,1837.4,387.4,1846.1,386.3z"/>
		<path class="st13" d="M1391.4,398.3c-0.5,1.5-2,1.8-3,2.8c-9,8.5-10.6,21.8-3.7,32.4c6.5,10,15.9,16.5,26.8,21.1
			c8.2,3.4,16.5,6.3,25.3,8c0.2,0,0.3,0.3,0.5,0.5c-0.9,1.2-2.6,0.7-3.5,1.9c-8.8-2.7-17.2-6.6-25.5-10.5
			c-28.5-13.4-54.6-30.5-79.1-50.1c-0.6-0.5-1.1-1-1.7-1.5c2.5-9.2,9.2-14.7,17.4-18.4c9.8-4.5,20.2-6.8,30.9-7.2
			c0.6,0,1.2-0.4,1.8-0.6C1381.7,384.2,1386.4,391.4,1391.4,398.3z"/>
		<path class="st12" d="M1810,399.8c7.8,6,10.6,19,6.3,28.3c-4.7,10-12.7,16.9-22.2,21.9c-10,5.3-20.6,8.9-31.7,11.2
			c-0.3,0.1-0.5,0.3-1,0.7c2,1,3.8,1.7,5.8,1.8c-8,2.6-16.2,3.7-24.5,4.9c-7.5,1.1-15.1,2.1-22.7,2.2c-1.3-0.1-2.8,1.1-3.9-0.6
			c21.5-8.8,41.8-19.9,60-34.5c12.4-9.9,23.4-21.2,32.5-34.1C1809,400.9,1809.5,400.4,1810,399.8z"/>
		<path class="st7" d="M1324.9,330.2c-2.2-15.4,6.3-26.9,18.3-31.6c6.3-2.5,12.8-2.6,19.3-0.9c1.2,0.3,2.2,0.5,1.9,2.3
			c-1.4,11.1-1.3,22.3-0.4,33.4c-2.7,2.4-6.1,2.5-9.3,3c-8.6,1.2-17.1,1.1-25.2-2.8C1327.8,332.7,1326,332,1324.9,330.2z"/>
		<path class="st7" d="M1828.2,358c1.9-9.4,3.1-19,3.5-28.6c0-1.1,0.1-2.1,0.1-3.2c-0.1-4.7-0.1-4.5,4.7-4.9
			c16.7-1.2,31.7,14.8,30.2,29.6c-6.2,5.3-13.4,8.2-21.2,9.9c-4.2,0.9-8.5,1.1-12.7-0.1C1831.1,360.1,1829.2,359.8,1828.2,358z"/>
		<path class="st14" d="M1301.8,404.3c-11.5-0.8-21.4-4.9-28.4-14.4c-0.7-0.9-1.3-2-1.8-3c-2.7-5.8-0.4-11.3,5.8-13.3
			c5.6-1.9,11.2-1.8,16.8,0.1c8.4,2.8,16,6.8,20.9,14.6c2.9,4.6,2.8,9-0.6,12.7c-2.4,2.6-5.8,2.9-9.1,3.4
			C1304.2,404.5,1303,404.3,1301.8,404.3z"/>
		<path class="st7" d="M1904.6,370.3c-2.7-3.5-2.4-7.5-1.4-11.3c3.2-11.6,17.1-22.7,29.1-23.5c5.6-0.4,10.5,2.2,12,6.1
			c0.6,1.6,0.5,3.1,0.4,4.7c-0.5,1-0.8,2.2-1.6,3.1c-8.8,10-19.3,17.3-32.3,20.7C1908.8,370.7,1906.7,371.4,1904.6,370.3z"/>
		<path class="st9" d="M1828.2,358c8.8,4.3,17.4,2.6,26-0.7c4.4-1.7,8.2-4.6,12.5-6.4c0.7,14.8-12.7,29-27.5,29.1
			c-5.2,0.1-10.3-0.2-15-2.6c-1.3-0.7-2.1-1.2-1.3-2.9C1825.2,369.1,1826.5,363.5,1828.2,358z"/>
		<path class="st9" d="M1324.9,330.2c3.5,1.7,6.9,3.7,10.8,4.7c8.5,2.2,16.9,1.5,25.2-0.7c1-0.3,2.1-0.5,3.1-0.7
			c1,5.7,1.9,11.4,3.5,16.9c0.5,1.5-0.1,2-1.3,2.7c-9.7,4.7-23.3,2.7-31.3-4.5C1329.4,343.6,1325.4,337.9,1324.9,330.2z"/>
		<path class="st9" d="M1904.6,370.3c11.3-1.2,21.1-6,29.6-13.2c3.8-3.2,7-7.1,10.5-10.7c0.4,5.3-2.2,9.6-5.2,13.5
			c-6.7,8.6-15.1,14.3-26.4,14.3C1909.7,374.1,1906.9,372.8,1904.6,370.3z"/>
		<path class="st15" d="M1716.1,470.2c1.2,1.1,2.7,0.1,3.9,0.6c-1.9,0.9-3.9,0.4-6.1,0.6C1714.5,470.5,1715.3,470.4,1716.1,470.2z"
			/>
		<path class="st16" d="M1540.1,484.3c-0.2,1.3-0.9,2.5-0.7,3.8c-0.8-0.6-1.2-1.5-1.3-2.5C1538.5,484.8,1539,484.2,1540.1,484.3z"/>
		<path class="st17" d="M1463.4-55.1c-1.8-8.4,2.3-14.3,8.3-19.2c8.6-7.1,18.9-10.9,29.3-14.2c19.6-6.2,39.7-9.4,60.1-11.3
			c16.1-1.5,32.2-1.5,48.2-0.9c35.2,1.4,69.9,6.1,103.4,17.8c13.9,4.9,27.6,10.3,39.3,19.4c5.3,4.1,9.8,9,11.1,16
			c0.6,2.3,0.2,4.2-2.2,5.3c-15,7-30.2,9.5-45.9,2.3c-1.2-0.5-2.4-1-3.2-2.1c-0.7-1.1-0.6-2.3-0.4-3.4c1-4.9-0.9-8.8-4.1-12.3
			c-6.3-6.7-14.4-10.8-22.7-14.2c-15.4-6.3-31.4-10-47.8-12.5c-4.5-0.7-9.2-0.9-13.7-1.8c-1.4-0.5-2.8-0.4-4.2-0.3
			c-2.1,0-4.2,0.1-6.2-0.3c-6.4-0.7-12.8-0.7-19.1,0c-2.7,0.5-5.3,0.2-8,0.3c-1.4-0.1-2.8-0.2-4.2,0.3c-14.8,1.5-29.5,3.7-43.7,8.7
			c-5.1,1.8-10,3.8-14.4,7c-6.7,4.9-10.5,10.9-7.9,19.6c0.2,0.5,0.1,1.1,0,1.6c-0.5,1.5-1.8,2.1-3.1,2.5
			c-15.3,5.3-30.1,5.3-44.1-3.8C1466.3-51.7,1464.4-53,1463.4-55.1z"/>
		<path class="st18" d="M1463.4-55.1c10,8.6,21.7,12.3,34.7,10.9c5.8-0.6,11.9-1.3,16.8-5.1c0.9-0.1,1.4,0.6,1.8,1.2
			c5.1,7.7,12.8,11.9,20.9,15.5c16.4,7.3,33.7,11.4,51.4,14.1c8.3,1.2,16.6,1.9,25,2.2c6.9,0.4,13.8,0.6,20.7-0.1
			c2.4-0.4,4.9-0.2,7.4-0.3c1.2,0.1,2.5,0.1,3.7-0.3c10.2-1.1,20.4-2.4,30.4-4.9c8.3-2.1,16.6-4.3,24.1-8.8c4.3-2.6,8-5.7,10.3-10.3
			c0.3-0.6,0.6-1.4,1.6-1.2c14.2,7.7,28.7,7.4,43.4,1.5c1.5-0.6,2.9-1.4,4.4-1.8c2.4-0.8,3.4-2.4,3.1-4.8c1.4,6.1-1,11.1-4.9,15.5
			c-6.3,7-14.5,10.9-23.1,14.2c-16.1,6.2-32.9,10-50,12.3c-13,1.8-26.1,3-39.3,3.4c-5.9,0.2-11.8,0.5-17.7,0.4
			C1614-1.6,1600-3,1586-4.5c-19.1-2.1-37.8-5.5-56.3-10.5c-17.2-4.6-34-10.5-49.3-19.8c-5.8-3.5-11.1-7.7-14.7-13.6
			C1464.6-50.6,1463.5-52.7,1463.4-55.1z"/>
		<path class="st7" d="M1340.4,729.1c12.4,8.4,22.3,19,28.2,32.9c0.4,1,0.8,2,1.1,3c1.6,6.1-1.9,9.8-8.1,8.5
			c-7.4-1.6-13.7-5.4-19.5-10c-5.7-5.5-10-12-13.2-19.2c-0.4-1-0.7-2-1-3C1325.6,732.4,1331.5,726.7,1340.4,729.1z"/>
		<path class="st9" d="M1340.4,729.1c-2.7,0-5.3,0.1-7.8,1.3c-3.8,1.9-5.2,4.8-4.3,8.9c1.7,7.7,6.4,13.8,10.9,20c1,1.4,2,2.8,3,4.1
			c-12.1-8.9-22.2-19.5-26.5-34.4c-1.8-6.2,1.1-9.2,7.4-8C1329.6,722.2,1335.2,725.1,1340.4,729.1z"/>
		<path class="st7" d="M1835.9,789.3c-7.6,4.5-15.7,7.1-24.6,7.1c-5.2,0-7.2-2.3-5.8-8.3c1-3.8,3.6-6.8,6.2-9.6
			c8.3-9.3,18.5-16.1,29.9-21c2.7-0.2,5.4,0.2,7.9,1.1c4.6,1.5,6.3,5.2,4.4,9.6c-2,4.7-5.3,8.6-8.7,12.3
			C1842.4,783.6,1839.3,786.6,1835.9,789.3z"/>
		<path class="st9" d="M1835.9,789.3c2-3.3,5.2-5.6,7.8-8.4c3.5-3.9,7-7.7,9.3-12.6c2.1-4.5,0.7-7.6-4-9.1c-2.4-0.8-5.1-0.4-7.3-1.7
			c6.4-3.2,13.2-4.8,20.4-4.4c4.4,0.3,6.2,3.1,4.9,7.3s-3.9,7.6-6.8,10.8C1853.4,779,1845.3,784.9,1835.9,789.3z"/>
		<path class="st0" d="M1607.9,429.9c-18.7-0.3-35.6-5.2-48.8-19.3c-10.4-11-15.7-24.6-19-39.2c-0.9-4.1-1.5-8.2-2.2-12.3
			c-0.8-4.5,1.7-6.6,6.1-4.9c4.9,1.9,9.7,3.9,14.8,5.3c25.4,7.1,50.7,7.1,75.4-2.5c20.5-7.9,36.8-21,46.6-41.2
			c0.8-1.6,1.6-3.1,3.7-3c1.6,0.1,2.7,0.9,3.3,2.6c6.2,16.3,10.6,33.1,10.6,50.7c0,26.8-14.2,46.1-39.9,53.8
			c-9.7,2.9-19.5,5.9-29.5,7.7C1622,429,1615,430.1,1607.9,429.9z"/>
		<path class="st19" d="M1461.2,324.5c-11.4-0.5-21.5-1.9-30.1-8.4c-2.7-2-5-4.3-6.4-7.4c-3.2-7.2,0.7-13.1,6.7-17.1
			s12.8-5.4,20-5.9c8.3-0.5,16.4,0.1,24.1,3.4c5.1,2.3,9.9,5.1,12.9,10.1c3.6,6,2.1,12.7-3.4,17.1
			C1477.7,322.1,1469.1,323.6,1461.2,324.5z"/>
		<path class="st19" d="M1738,325.8c-11.2,0.2-20.8-2.1-29.4-8.2c-9.2-6.4-9.6-16.6-0.7-23.4c5.9-4.5,12.8-6.6,20-7
			c10.3-0.6,20.4,0.5,29.5,5.9c5.8,3.4,10.9,7.5,10.7,15.1c-0.1,4-1.8,7.3-4.9,9.7C1755.6,323.8,1746.8,326.2,1738,325.8z"/>
		<path class="st0" d="M1668.9,273.1c8.4,0,15.5,2.5,22.3,6.2c2,1.1,3.3,2.7,2,4.9c-1.3,2.4-3.2,2.1-5.5,0.8
			c-14.8-8.5-28.8-6.6-40.9,5.6c-1.7,1.7-3.4,2.8-5.5,0.8c-2-1.9-1.1-3.7,0.5-5.3C1649.5,278.5,1658.3,273.2,1668.9,273.1z"/>
		<path class="st0" d="M1529.5,271c12.7-0.2,21.9,3.7,29.9,10.5c0.7,0.6,1.4,1.3,2,2.1c1.1,1.5,1,3-0.4,4.3
			c-1.4,1.3-2.8,1.5-4.3,0.1c-13.1-12-27.9-12.7-43.7-6.5c-2.2,0.9-3.9,0.3-4.8-1.7c-0.9-2,0.3-3.4,2.1-4.4
			C1514.7,273,1524.5,271,1529.5,271z"/>
		<path class="st20" d="M1543.3,490.1c0.7-0.4,1.3-0.9,2-1.3c0.4,0.4,1,0.1,1.3,0.7c-0.4,0.4-0.9,0.9-1.3,1.3
			c-1.3,0.4-2.5,0.9-3.8,1.3c-0.1-0.1-0.1-0.2-0.2-0.3C1541.9,491.2,1542.6,490.6,1543.3,490.1z"/>
		<path class="st21" d="M1536.8,494.1c-0.1-1.3,0.1-2.5,1.1-3.7C1538.3,492,1537.2,493,1536.8,494.1z"/>
		<path class="st22" d="M1546.5,489.4c-0.5,0-1.1-0.1-1.3-0.7c1-0.3,1.7-1.4,2.9-1C1548.3,489.1,1547.1,489,1546.5,489.4z"/>
		<path class="st23" d="M1712.2-42.2c-4.1,9.3-12.3,13.6-21.1,16.8c-12.7,4.6-25.8,7.4-39.2,8.5c-2,0.2-4,0.7-6,0.6
			c-1,0.6-2.3-0.1-3.3,0.6c-2.6,0-5.1,0.1-7.7,0.1c-7.1,0.4-14.3,0.4-21.4,0c-20-0.1-39.4-3.8-58.5-9.6c-10-3.1-19.8-6.7-28.7-12.4
			c-4.7-3-8.5-6.8-11.2-11.6c-4-9.7,1-16.9,7.2-21.3c10.3-7.3,22.4-10.2,34.4-12.7c8.1-1.7,16.3-3,24.6-3.4c1.3-0.5,2.7,0.2,3.9-0.5
			c2.8-0.1,5.5-0.1,8.3-0.2c6.5-0.3,13-0.4,19.4,0c2.1,0,4.3,0.1,6.4,0.1c1.2,0.7,2.7-0.1,3.9,0.5c16.3,1.7,32.5,4.3,48.1,9.3
			c10.4,3.3,20.6,7.1,29.7,13.2c2.7,1.8,5.1,3.9,7.3,6.2C1712.7-53.5,1713.4-48.1,1712.2-42.2z"/>
		<path class="st18" d="M1612.9-87.4c-6.5,0-13,0-19.4,0C1600-88.3,1606.5-88.3,1612.9-87.4z"/>
		<path class="st18" d="M1623.2-86.8c-1.3-0.1-2.7,0.5-3.9-0.5C1620.6-87.2,1622-87.7,1623.2-86.8z"/>
		<path class="st18" d="M1585.2-87.3c-1.2,1-2.6,0.4-3.9,0.5C1582.5-87.7,1583.9-87.3,1585.2-87.3z"/>
		<path class="st24" d="M1613.5-15.7c7.1,0,14.3,0,21.4,0c-2.6,1.2-5.4,0.6-8.1,0.5C1622.3-15.3,1617.8-14.5,1613.5-15.7z"/>
		<path class="st25" d="M1642.5-15.8c0.9-1,2.2-0.5,3.3-0.6C1644.8-15.5,1643.6-15.9,1642.5-15.8z"/>
		<path class="st26" d="M1590.3,421c-8.5-2.4-16.4-6-23.1-12.1c-4.5-4.1-8.2-8.7-11.1-14c-2.2-4-4.6-8-5.7-12.5
			c1.2-1.1,2.6-0.6,4-0.3c12.3,2.2,24.6,3.7,37.1,3.2c25.8-1,50.3-6.8,73-19.5c7.6-4.3,14.8-9.1,21.8-14.2c1-0.7,1.9-1.8,3.4-1.5
			c2.1,2.2,1.4,5.2,1.6,7.7c0.6,8.5,0.5,17-2.2,25.4c-3,9.3-8.2,16.8-16.2,22.4c-8.8-14.6-22.9-16.5-37.9-15.6
			c-10.2,0.6-20.1,3.5-29.1,8.6c-4.5,2.5-8.1,6-11.3,10c-2.1,2.7-3.4,6-3.4,9.5C1591.2,419.1,1591.2,420.2,1590.3,421z"/>
		<path class="st27" d="M1549,378.7c-1.7-5.3-2.8-10.7-3.8-16.6c6.7,2.4,13,4.5,19.6,6c30.2,6.8,59,3.4,86.3-11.4
			c12.9-7.1,23.3-17,31.2-29.5c0.3-0.5,0.7-1.1,1.1-1.6c0-0.1,0.2-0.1,0.5-0.2c2.2,6,3.8,12.2,5.2,18.5c0.5,1.5-0.6,2.1-1.5,2.8
			c-24.4,19.2-51.7,31.4-82.8,34.7c-15.1,1.6-30.2,0.9-45.1-1.6C1556.1,379,1552.5,379.1,1549,378.7z"/>
		<path class="st28" d="M1669.6,407.6c-5.3,4-11.6,5.8-17.9,7.5c-10.3,2.8-20.5,5.8-31.1,7.1c-8.4,1-16.8,1.5-25.1-0.5
			c-1.6-4.1-0.3-7.8,2-11.2c4.1-6.3,10.5-9.6,17.2-12.3c10.7-4.3,21.9-5.4,33.2-4.2c8.2,0.8,15.6,4,20.6,11
			C1669,405.8,1669.9,406.5,1669.6,407.6z"/>
		<path class="st29" d="M1549,378.7c2.3-1.3,4.8-1,7.2-0.6c33.2,6.1,65.3,3.3,96.2-10.9c12.9-5.9,24.8-13.7,35.9-22.4
			c0.3-0.2,0.5-0.7,0.7-1.1c3.3,3.3,3.3,3.9,0.6,6.4c-16.9,13.2-35.3,23.5-56,29.5c-21,6.1-42.4,8-64.2,5.6
			c-6.4-0.7-12.7-1.8-19.1-2.8C1549.6,381.3,1548.8,380.2,1549,378.7z"/>
		<path class="st30" d="M1669.6,407.6c-5.1-7.4-12.3-11.8-21-12.6c-9.2-0.9-18.5-0.8-27.6,2.2c-7.2,2.3-14.2,4.8-19.7,10.2
			c-3.6,3.5-6.4,7.5-5.5,12.9c0.1,0.5-0.2,1-0.4,1.5c-2,1.8-3.7,1.4-5.1-0.7c-1-11.2,6.1-17.7,14.4-22.8c12.2-7.4,25.9-10.2,40-9.2
			c9.5,0.7,18.5,3.5,25.3,11c1.5,1.6,2.7,3.3,2.8,5.6C1672.2,407,1671.1,407.6,1669.6,407.6z"/>
		<path class="st27" d="M1641.7-20.4c-2.3-0.2-4.6,0.3-6.8,0.7c-7.1-0.6-14.1-0.1-21.2-0.3c-2-0.1-4,0.3-6-0.2
			c-14.1-0.8-28-3.1-41.7-6.6c-13.8-3.6-27.5-7.7-39.4-16.1c-3.3-2.3-6.4-5.1-7.7-9.1c-2.2-6.7,1.2-11,7-15.2
			c8.4-6,18.4-8.5,28.2-10.8c9.3-2.2,18.8-3.5,28.4-4.2c1.1-0.4,2.3,0.1,3.4-0.4c2.5-0.1,5-0.1,7.6-0.2c6.2-0.4,12.4-0.3,18.7,0
			c12.3,0.8,24.6,2.1,36.7,4.6c16,3.2,31.6,7.9,46,15.7c4.4,2.4,8.5,5.3,11.2,9.7c3.8,6.2,1.4,11.8-3.5,15.6
			c-7.4,5.8-16.2,8.5-25.1,11.1c-8.6,2.5-17.5,3.8-26.4,5.1c-2,0.3-4.1,0.1-6.1,0.2C1644-20.3,1642.8-20.9,1641.7-20.4z"/>
		<path class="st18" d="M1613.5-20.1c6.5,0,13.1-0.1,19.6-0.1c0.6,0,1.3,0,1.8,0.5c-7.1,0-14.2,0-21.3,0c-0.2-0.1-0.3-0.2-0.2-0.3
			C1613.4-20.1,1613.4-20.1,1613.5-20.1z"/>
		<path class="st31" d="M1612.2-82.9c-6.2,0-12.4,0-18.7,0C1599.8-83.8,1606-83.8,1612.2-82.9z"/>
		<path class="st32" d="M1613.5-20.1c0,0.2,0,0.3,0.1,0.5c-1.9-0.2-4,0.6-5.8-0.5C1609.7-20.2,1611.6-20.2,1613.5-20.1z"/>
		<path class="st18" d="M1586-82.7c-1.1,0.7-2.2,0.4-3.4,0.4C1583.7-83.2,1584.9-82.8,1586-82.7z"/>
		<path class="st18" d="M1641.7-20.4c1.1-0.7,2.3-0.4,3.4-0.5C1644.1-19.9,1642.9-20.4,1641.7-20.4z"/>
	</g>
</g>
</svg>
