<?xml version="1.0" encoding="utf-8"?>
<!-- Generator: Adobe Illustrator 19.0.0, SVG Export Plug-In . SVG Version: 6.00 Build 0)  -->
<svg version="1.1" id="Camada_1" xmlns="http://www.w3.org/2000/svg" xmlns:xlink="http://www.w3.org/1999/xlink" x="0px" y="0px"
	 width="1062.5px" height="1081.3px" viewBox="1084.1 -143.6 1062.5 1081.3"
	 style="enable-background:new 1084.1 -143.6 1062.5 1081.3;" xml:space="preserve">
<style type="text/css">
	.st0{fill:#7E5537;}
	.st1{fill:#ADDEF1;}
	.st2{fill:#F2BF02;}
	.st3{fill:#774E3A;}
	.st4{fill:#7D308D;}
	.st5{fill:#EC8151;}
	.st6{fill:#FEDAAB;}
	.st7{fill:#F6C28D;}
	.st8{fill:#EC6F3A;}
	.st9{fill:#BEEDFE;}
	.st10{fill:#F398A2;}
	.st11{fill:#A35BAA;}
	.st12{fill:#A56DAA;}
	.st13{fill:#D7EDF5;}
	.st14{fill:#7D308E;}
	.st15{fill:#ACD9EC;}
	.st16{fill:#F3F2F0;}
	.st17{fill:#FEE595;}
	.st18{fill:#F2D369;}
	.st19{fill:#F4A29A;}
	.st20{fill:#7F5537;}
	.st21{fill:#f2e3fc;}
</style>
<g>
	<g>
		<path class="st0" d="M1479.8,482c-13.3-10.2-26.3-20.7-37.9-32.8c-21.5-22.3-39.6-46.9-50.2-76.4c-2.5-7-4.5-14.2-5.8-21.6
			c-0.5-2.6-1-3.2-3.8-2.7c-26.4,5.4-50.9-14.9-50.2-41.7c0.5-16.8,8.4-29.3,23.4-36.9c3.2-1.6,3-2.4,0.9-4.9
			c-12-14.6-15.1-31.6-12.1-49.8c3.3-19.3,12.5-34.9,29.8-45c5.7-3.4,11.9-5.2,18.5-6c1.3-0.2,3.5,0.5,2.7-2.6
			c-5.6-20.6-0.8-39.8,9.4-57.6c16.6-28.9,40.9-48.4,73.8-55.9c21.5-4.9,42.4-2.6,62.2,7.6c2,1.1,3.1,1.1,4.7-0.8
			c26.6-31,61.2-47.9,100.8-54.3c47.6-7.7,93-0.4,134.7,24.4c37.4,22.2,63.6,53.8,77,95.6c0.5,1.6,0.6,3.4,3.2,3.4
			c24.1,0.4,44.5,10.5,62.5,25.5c26.1,21.6,43.1,49.1,49.4,82.6c3.6,19.1,2.7,38-8.3,55.1c-0.6,0.9-1.1,1.7,0.2,2.7
			c9.6,7.3,12.4,17.9,13.6,29c3.4,30.5-9.5,53.4-33.7,70.9c-0.9,0.6-1.8,1.2-2.7,1.8c-0.8,0.5-1.6,1.1-2.6,1.8
			c6,5.3,10.3,11.6,12.9,19c5.7,16.5,0,35.4-13.8,46.2c-13.9,11-33.2,12.2-48,2.6c-3.3-2.1-4.5-1.4-6.5,1.4
			c-3.2,4.4-6.8,8.5-10.3,12.6c-0.8,3.4-4,4.8-5.9,7.3c-3.9,3.4-7.7,6.9-11.6,10.2c-18.3,14.6-38.8,25.5-60.7,33.8
			c-19,7.2-38.6,12.3-59,15.9c11,5.2,21.5,10.6,31.4,16.9c9,5.7,17.7,11.6,24.1,20.4c5.7,7.8,7.1,19.5-2.3,27.5
			c-1.7,1.7-3.7,3.1-5.7,4.6c-11.6,6.8-24.4,10.4-37.4,13.4c-2.9,0.8-5.9,0.8-8.9,1.5c-8.3-0.9-15.2,0.5-19.6,8.8
			c-1.9,3.7-5.9,6.4-10.3,7.5c-2.4,0.4-3.7,2-4.7,4.1c-9.4,18.6-23.9,32.4-40.5,44.5c-9.1,6.7-19,12.2-29.1,17.2
			c-3.8,1.9-7,1.7-10.7-0.3c-16.9-9-32.2-20.2-46.4-33c-3.3-3-5.8-6.9-9.1-9.9c-1.3-1.1-2.4-2-4.3-1.7c-11.2,2-19.4-2.7-25.1-11.9
			c-1.8-3-3.8-4.2-7.2-3.9c-10.1,0.7-19.7-1.7-29.1-5c-2.9-1.2-5.7-2.7-8.5-4.2c-7.1-4.4-14.3-8.6-20.7-14.1
			c-5.4-4.6-9.8-9.9-13.7-15.8c-0.4-0.7-0.7-1.4-1.1-2.1c-2.2-4.4-4.4-8.7-5.1-13.7c-1.6-11.1,2.3-20.4,9.6-28.3
			c10.9-12,24.6-20.4,38.5-28.6c9.4-5.5,19.3-10,29.4-14.1c3.2-1,6-2.9,9.2-3.9c0.7-0.3,1.6-0.3,2.4-1.1c-2.9-1.8-6.2-2.6-9.1-4.1
			c-17.3-7.8-33.9-16.8-49.3-27.9C1481.7,484.2,1480.3,483.5,1479.8,482z"/>
		<path class="st1" d="M1539.1,518.9c-3,1.3-6,2.6-9.1,3.9c-9.5-7.7-19.3-14.9-30-20.9c-7.7-4.3-15.6-8.1-24.1-10.8
			c-17.9-6.4-36.4-9.8-55.4-11.3c-16.9-1.3-33.7-1.4-50.4,1.8c-24.3,4.8-47.7,12.3-67.8,27.6c-7.1,5.4-13.8,11.1-18.8,18.5
			c-4.1,6-6.5,12.6-5.8,20c0.9,10.1,7.2,16.4,15.4,21.2c9.3,5.5,19.7,7.8,30.3,9.1c17.2,2,34.5,1.4,51.5-2.3
			c1.6-0.3,3.2-0.7,4.8-0.7c2.7,0,5,0.7,5.5,3.7c0.5,2.9-1.2,4.6-3.7,5.5c-3.7,1.3-7.7,1.9-11.5,2.5c-6,1-7.6,2.4-9,8.2
			c-2,8,0.8,15,7.7,19.4c6.1,3.9,13,5.2,20.1,6.3c17,2.4,33.3-1,49.5-5.3c1.1-0.3,2.1-0.7,3.2-0.8c2.6-0.4,5.1-0.4,5.9,2.7
			c0.8,3-0.6,5-3.3,6.2c-2.4,1-4.9,1.7-7.4,2.4c-4.5,1.2-5.3,2.2-5.2,6.8c0.1,6.6,3.3,11.3,8.9,14.6c4.4,2.6,9.3,4.1,14.3,4.4
			c10,0.5,20.1,0.8,30-2c1.7-0.5,3.4-1.2,5.2-0.2c0.9,3.3,0.2,6.2-2.5,8.5c-10.3,2.1-20.7,3.1-31.1,2.4c-9.9-0.7-19.3-2.9-26.5-10.7
			c-4.4-4.7-7.1-10.2-6.9-16.8c0.2-5,0-5-4.8-4.1c-13.5,2.5-27,2-40.4-1.1c-4.9-1.1-9.6-2.9-13.9-5.7c-10.6-7-14.9-18.9-10.6-30.9
			c1.2-3.3,0-3.2-2.5-3.2c-10.9,0-21.7,0.5-32.5-1.6c-13.3-2.6-26.1-6-37.1-14.7c-12-9.5-15.4-24.7-10.2-38.5
			c4.7-12.6,14.2-21.3,24.5-29.3c20.6-16.1,44.5-24.4,69.8-29.5c16.4-3.3,32.9-3,49.4-3.3c17.5-0.2,34.4,2.6,51.2,7.4
			c4.5,1.3,9.1,2.7,13.6,4.1c11.7,7.8,23.5,15.5,36.1,21.9c5.5,2.8,11.1,5.5,16.7,8.3c1.4,1.3,3.3,1.9,4.7,3.1
			C1538.2,516.2,1539.7,517.1,1539.1,518.9z"/>
		<path class="st2" d="M1821.5,2.1c-36.1,0.1-66.1-3.8-95.8-10.2c-34.6-7.4-68.1-18.2-99.9-33.8c-16.8-8.2-33.2-17.4-47.2-30.1
			c-4.7-4.3-9-9.1-12.2-14.7c-6.9-11.8-5.5-27.7,7.7-36.8c10.8-7.5,23.2-10.4,35.8-12.5c28.5-4.7,57.2-4.6,85.7-1.4
			c49.8,5.4,98,17.7,143.6,38.8c19,8.8,37.3,18.9,53.1,33.1c5.7,5.1,10.6,10.9,14,17.8c5.6,11.5,2.7,24.3-7.3,32.3
			c-8.7,7-19.1,10.1-29.8,12.5C1851.7,1,1833.8,2.2,1821.5,2.1z"/>
		<path class="st1" d="M1867.1,482c2.1-2.2,4.3-4.4,6.4-6.7c6.7,1.9,13.5,3.7,20.2,5.9c18.4,5.9,35.3,14.6,50.1,27.1
			c7.7,6.5,14.2,13.8,18.6,22.8c7.8,16,2.4,34.7-12.9,44c-13.2,8.2-28,11.2-43.2,13.1c-7.7,1-15.4,0.6-23.2,0.7
			c-1.4,0-2.7-0.3-2,2.1c5.9,18.6-4.9,32.5-23.4,37.1c-14.1,3.5-28.5,3.5-42.8,1.3c-2.2-0.3-3.4-0.4-3.3,2.3
			c0.6,17.2-12.1,25.9-25.4,28.3c-9.2,1.7-18.5,2.2-27.9,0.8c-3.1-2.1-3.2-5.1-2.5-8.3c1.5-1.1,3.1-0.6,4.7-0.5
			c8.3,0.5,16.6,1.1,24.8-0.6c4-0.8,7.8-2.3,11.1-4.8c3-2.3,5.1-5.2,6.1-8.9c1.9-7,0.4-9.7-6.5-11.6c-2.4-0.7-4.7-1.3-6.8-2.7
			c-1.8-1.2-3.1-2.8-2.2-5.1c0.9-2.3,2.7-3.4,5.2-3.1c1.6,0.2,3.2,0.6,4.8,1.1c16.5,5.4,33.4,7.3,50.7,5c6.4-0.8,12.5-2.6,18-6.1
			c8.4-5.3,10.7-14.2,6.2-23.1c-1.1-2.3-2.7-3.6-5.2-4c-3.8-0.6-7.5-1.2-11.2-2.1c-1.7-0.4-3.4-0.9-4.8-2.1
			c-1.3-1.2-1.8-2.7-1.3-4.4c0.5-1.8,1.7-2.7,3.5-2.9c2.2-0.2,4.3-0.1,6.5,0.3c12.9,2.9,26,4.2,39.3,3.6c14-0.7,27.6-3.3,40.3-9.2
			c13.2-6.1,19-15.9,17.6-29.1c-0.6-5.5-3.3-10-6.4-14.4c-7.2-10.3-17-17.6-27.5-24c-15.5-9.4-32.3-15.6-50-19.3
			C1870.9,484.1,1868.5,484,1867.1,482z"/>
		<path class="st3" d="M1536,754.2c-2.6,15.5-3.9,31-1,46.6c4,21.7,18.6,34.4,40.6,33.8c10.4-0.3,15.9,4.6,19.8,13.1
			c6.1,13.1,7.6,27.1,7.1,41.3c-0.4,10.8-2.2,21.3-6.9,31.2c-1.4,3-2.9,5.8-5,8.4c-5.4,6.7-14.3,7.2-20.4,1.1c-5-5-8-11.5-9.6-18.2
			c-5.7-23.2-5.4-46,5.5-68.1c-1.3-1.2-3.1-1-4.7-1.4c-20.3-5.1-30.3-19.3-34.4-38.6c-3.7-17.3-1.9-34.6,0.7-51.8
			c-1.5-3.6,0-6.2,2.5-8.6c2.7-1,5.1-0.5,7,1.8C1539,748,1538.4,751.2,1536,754.2z"/>
		<path class="st3" d="M1721.9,752.1c-0.1,9.9-0.5,19.8-3,29.5c-6,22.8-20.7,35.9-43.7,40.1c-1.2,0.2-4.1-0.7-2.4,2.4
			c8.4,15.4,9.2,32.2,8.2,49.1c-0.6,11.2-3.3,22-9.5,31.6c-3,4.7-6.8,8.3-13.1,8.2c-5.6-0.1-9.2-3-12-7.3c-4.8-7.1-7.6-15-8.9-23.4
			c-2.8-18.1-2.7-36,4.5-53.2c1.1-2.7,2.6-5.4,4.2-7.9c3.1-4.7,7.2-7.5,13.2-7.3c6.8,0.3,13.6-0.4,20.1-2.5
			c19.6-6.2,29.2-20.5,32.5-39.9c0.9-5.4,1.2-10.8,0.9-16.2c-1.9-3.3-1.6-6.5,0.1-9.7c1.1-1.2,2.4-1.6,4-1.7
			C1722,745.1,1723.6,747.7,1721.9,752.1z"/>
		<path class="st4" d="M1713.8,745.8c-1.7,3.1-0.5,6.4-0.8,9.5c-11.1,2.9-22.2,6.2-33.5,8.4c-32.5,6.2-65,6.8-97.7,1.5
			c-15.6-2.6-30.8-6.4-45.8-11c0.3-3,2-6,0.6-9.2c1.8-1,3.5,0,5.1,0.5c20.9,6.9,42.4,10.8,64.2,12.8c34.7,3.1,68.6-1.6,101.7-11.8
			C1709.6,745.8,1711.6,744.4,1713.8,745.8z"/>
		<path class="st4" d="M1721.9,752.1c-0.1-3.4-0.3-6.8-4.8-7.3c0.3-2.1,2.3-2.1,3.7-2.6c12.6-4.7,24.8-10.4,36.8-16.6
			c4.7-2.4,4.8-2.5,3.9-7.5c-5.2-29.7-12.6-58.7-23.4-86.9c-0.7-1.7-1.9-3.4-0.7-5.4c3-0.5,5.9-1,8.9-1.5c3,4.1,3.8,9.1,5.7,13.7
			c1.1,5,4.1,9.5,4.1,14.8c0.6,2.8,1.2,5.6,2.4,8.1c3.5,14.5,7.5,28.9,10.4,43.5c1.2,6.1,2.3,12.3,3.6,18.4c0.7,3.6-0.4,5.8-3.7,7.6
			C1753.6,738.6,1738.2,746.3,1721.9,752.1z"/>
		<path class="st4" d="M1530.2,743.4c-1.6,2.4-2.5,5.1-2.6,8c-16.1-6.2-31.8-13.1-47.4-20.4c-3.9-1.8-5.4-4-5-8.5
			c2.2-21.5,6.6-42.6,12.1-63.4c0.1-0.5,0.2-1.1,0.3-1.6c0.8-2.7,1.6-5.5,2.5-8.2c-0.5-3.8,1.2-7.2,2.5-10.6
			c0.3-0.3,0.6-0.6,0.9-0.8c2.7,1.3,5.4,2.7,8,4c0.8,1.5,0.1,2.9-0.4,4.3c-5,15.7-8.8,31.6-11.7,47.8c-1.9,7.7-2.6,15.5-3.8,23.3
			c-0.6,3.4,0.5,5.7,3.8,7.1c10.8,4.8,21.5,9.9,32.5,14.1C1524.8,739.9,1528.2,740.4,1530.2,743.4z"/>
		<path class="st5" d="M1353.1,239.6c-4.1-19.9,0.1-37.9,13.7-53.1c7.7-8.6,17.8-13.8,29.8-14c1.9,0,3.8,0.1,5.7-0.3
			c3.2-0.7,4.5-3.1,3.3-6.1c-8.1-19.6-3.9-38.2,5.4-56c10.1-19.3,25-34.3,44.3-44.3c27.6-14.3,55.8-15.7,84-0.9
			c5.7,3,6.2,2.9,10.2-1.9c18.4-22.1,41.5-37.1,68.6-46.5c24-8.3,48.7-11.2,73.8-9.5c37.2,2.6,71.6,13.9,101.5,36.8
			c27.8,21.3,47.1,48.7,57,82.4c1,3.4,2.1,6.4,6.6,6.3c22.2-0.4,41.4,7.8,58.4,21.6c25.3,20.4,42.1,46.2,48.7,78.2
			c3.1,15,2.9,29.9-3.6,44.2c-1.9,4.2-4.6,8-7.4,11.6c-2,2.6-1.6,5.7,1.4,6.7c10.3,3.2,13,11.9,14.6,20.8
			c2.7,14.8,0.7,29.2-6.4,42.7c-2.9,5.5-7.2,9.8-11.4,14.2c-1.4,0.6-2.7,0.1-4-0.3c-13.5-4-26.5-9.2-37.7-18
			c-2.4-1.9-4.5-3.9-6.4-6.2c-8.5-10.1-8.6-21.3-4.2-33c1.7-4.7,1.9-4.6-2.7-6.4c-32.7-12.5-56.4-34.5-71.6-66
			c-9-18.6-14-38.2-17.2-58.5c-0.7-4.2-0.9-4.4-4.9-2.6c-21.6,9.9-44,17.6-67.6,20.9c-13.2,1.9-26.5,2-39.8,0.7
			c-38.6-3.8-71-20.9-99.6-46.4c-6.2-5.5-12.2-11.3-17.8-17.4c-2.4-2.7-2.7-2.7-4.5,0.5c-8.3,15.1-17.6,29.4-28.8,42.5
			c-14.6,17-31.5,30.8-53.7,36.8c-13.7,3.7-27.5,3.4-41.2,0.3c-2.7-0.6-3.9-0.2-4.5,2.7c-4.1,20.8-17.9,30-38.4,30.5
			c-12.9,0.3-25.4-2.8-37.6-6.6c-4.2-1.3-8.3-2.6-12.3-4.3C1355.4,241.4,1354,240.9,1353.1,239.6z"/>
		<path class="st6" d="M1399.5,284.5c7.8,0.8,15.5,2.3,23.5,2.2c21.3-0.3,36-12.3,40.2-33.3c0.6-3.2,1-5,5.4-4.3
			c16.9,2.6,33.8,2.4,50.5-2.1c24.4-6.4,42.2-21.1,54.6-42.7c2.7-4.8,5-9.9,7.6-15.1c6.3,6.4,12.5,12.9,19.3,18.7
			c19.8,17,41.9,29.5,67.5,35.6c31,7.4,61.2,3.7,91.2-5.6c7.9-2.5,15.6-5.6,23.5-8.7c1.5,6.7,2.8,13.3,4.5,19.8
			c10.8,39.4,35.1,67.8,71.4,86c3.5,1.8,4.3,3.3,3.9,7.3c-1.7,17.3,6.3,30.4,19.5,40.7c4.6,3.6,9.6,6.7,14.8,9.3
			c6,3.1,6,3.1,4.4,9.8c-3.4,0-5.5,2.2-7.5,4.7c-17.3,21.7-38.8,38.3-62.9,51.8c-28.2,15.8-58.6,25.5-90.3,30.7
			c-12.5,2-25,3.5-37.7,3.9c-6.1,0.2-12.2,0.9-18.3,0.7c-36.4-1.2-72.3-5.9-107.3-16.6c-20.1-6.2-39.5-14-57.8-24.4
			c-16.1-9.2-31-20.1-44.7-32.7c-18.5-17-33.8-36.5-46.2-58.2c-11.9-20.8-20.9-42.8-27.1-65.9
			C1400.6,292.2,1398.6,288.6,1399.5,284.5z"/>
		<path class="st7" d="M1399.5,284.5c3,10.1,5.7,20.4,9.2,30.3c9.9,28.4,23.7,54.7,42.6,78.2c17.7,21.9,38.5,40.3,62.6,54.9
			c30.4,18.4,63.4,29.8,98.1,36.6c16.2,3.2,32.4,5.8,49,6.6c10.5,0.6,21.1,1.9,31.6,1.4c14.2-0.6,28.3-1.8,42.4-3.7
			c19.4-2.7,38.2-7.4,56.7-13.9c26.9-9.4,51.5-22.8,73.5-41c11.3-9.3,21.7-19.3,30.2-31.2c2-2.8,3.9-1.4,6-0.8
			c-3.9,17.6-10,34.3-20.2,49.5c-16.8,24.8-39.6,42.4-65.9,55.8c-29,14.8-60,23.1-92.1,27.1c-15.1,1.9-30.3,3-45.5,3
			c-16.6,0-33-2.7-49.3-5.5c-36.5-6.2-71.7-16.9-104.7-33.6c-43.7-22.1-80.1-52.7-106.8-94.1c-17.6-27.3-27.2-57.1-24.8-90
			c0.7-9.3,2-18.6,4.7-27.7C1397.2,285.4,1396.9,283.1,1399.5,284.5z"/>
		<path class="st8" d="M1353.1,239.6c11.2,4,22.5,8,34.2,10.2c10.2,1.9,20.3,3.1,30.6,0.6c15.2-3.7,24.5-14.1,26.4-29.4
			c0.4-2.9,1.1-3.6,4.1-2.8c23.2,5.9,45.1,2.6,65.6-10.1c16.4-10.1,28.8-24.1,40-39.4c7.3-10,13.9-20.4,19.5-31.4
			c1.5-3.1,2.7-1.6,4.1-0.1c14.4,16.7,31.2,30.5,49.9,42c18.3,11.3,38.2,18.7,59.5,22c13.6,2.1,27.2,2.1,40.9,0.9
			c24.6-2.2,47.7-9.6,70.1-19.6c2.1-0.9,4.4-1.6,6.3-2.8c3.3-2.1,4,0,4.3,2.5c1.1,10.1,3.2,20,5.9,29.8c7.8,28.6,21.4,54,44.1,73.6
			c11.5,9.9,24.7,17.2,39,22.4c5.4,2,5.2,1.8,3,6.8c-6.4,15.2-3.3,29.8,12.9,40.9c11,7.6,23.2,12.3,35.8,16.1
			c0.8,0.2,1.5,0.6,2.3,0.9c-5.4,5.8-11.6,10.6-18.4,14.6c-1.3,0.8-2.4,0.7-3.8,0.2c-8.1-2.9-16.3-5.1-25-1.8
			c-0.5,0.2-1.4-0.1-1.9-0.4c-11.3-5.7-21.5-12.7-27.5-24.5c-3.8-7.4-4.2-15.2-2.9-23c0.7-3.9-0.2-6-3.8-7.7
			c-13.6-6.2-26-14-37-24.2c-19.4-18.1-31.4-40.3-37.2-66c-0.9-4.1-1.7-8.2-2.4-12.4c-1.1-6.8-5.2-9.3-11.6-6.5
			c-11.2,4.9-22.7,9-34.6,12c-16.8,4.3-33.8,6.9-51.2,5.6c-30.9-2.3-58.4-13.6-82.6-33.1c-9.9-7.9-19-16.7-27.2-26.3
			c-3.9-4.5-7.5-3.5-9.8,2.6c-3.9,10.4-8.8,20.2-15.7,28.9c-13.1,16.5-30.1,26.2-50.8,29.7c-14.4,2.5-28.6,1.8-42.9-0.7
			c-7-1.2-8.3,0-9.4,7c-3.9,24.2-20.4,32.9-42.4,30.9c-1.2-0.1-2.5-0.1-3.6-0.4c-4.5-1.1-9-1.2-13.1-4.4c-5.7-4.5-12.8-7-20.1-6.8
			c-6.2,0.2-10.3-2-14-6.4C1357.6,253.6,1354.2,247.2,1353.1,239.6z"/>
		<path class="st9" d="M1477,490.2c19,6.8,35.8,17.3,51.4,29.9c0.9,0.7,1.6,1.5,1.6,2.7c-17.8,7.6-34.7,16.6-50.4,28
			c-5.7,4.1-11.4,8.4-16.2,13.6c-10.2,11.1-14.4,25.2-6.1,40.3c0.4,0.7,0.6,1.5,0.9,2.2c-0.8,1.9-2.7,2.2-4.3,2.7
			c-5.7,1.8-11.6,3-17.5,3.9c-6.7,1-12.6-1.2-18.1-4.9c-4.6-3.2-8.7-7-12.1-11.4c-5.8-7.4-4.8-15.2-0.9-23c2.7-5.4,6.6-10,11.3-14.1
			c-12.1,2.4-23.9,4.5-36,3.9c-11.7-0.6-22.8-3.4-32.6-10.3c-10.1-7.1-14.9-19.7-12.1-31.6c2.1-8.6,8.1-14,15.4-18.1
			c11.4-6.4,23.9-9.9,36.7-12c19-3.2,38.2-5.4,57.6-5.4c9.5,0,19,1.1,28.2,3.5C1474.9,490.4,1475.9,491.1,1477,490.2z"/>
		<path class="st10" d="M1595.1,575.1c10.2-0.4,19,2.6,27,7.3c4.3,2.5,7.7,2.5,11.9-0.1c11.9-7,24.9-9.2,38.5-6.4
			c8.2,1.7,15,6.2,21,11.9c1.8,1.7,1.9,2.5-0.1,4.2c-10.9,9.4-14.5,21.4-11.3,35.3c1.3,5.7,4.4,10.6,10,13.2
			c2.7,1.3,2.8,2.4,1.4,4.9c-8.1,14.4-19.5,25.7-32.4,35.6c-9.3,7.1-19.4,13.1-30,18.1c-2.1,1-3.7,1-5.7-0.1
			c-18-10.2-34.8-21.8-48.8-37.1c-2.6-2.9-4.3-4.9-1.7-9.5c8.6-15-0.2-39.9-17.4-44.2c-2.8-0.7-2.8-1.8-2.3-4.2
			c3.2-13.6,16.5-25.7,30.9-28C1589.2,575.4,1592.5,574.8,1595.1,575.1z"/>
		<path class="st11" d="M1530.2,743.4c-14.3-5.8-28.6-11.7-42.5-18.4c-2.6-1.2-3.7-2.7-3.4-5.6c1.1-8.4,1.9-16.9,4.1-25.1
			c2-0.4,3,1,4.1,2.1c12.9,13,28.8,20.6,46,26c15.9,4.9,32.3,7,48.9,8.4c13.2,1.1,26.4,1.5,39.5,0.3c16.6-1.5,32.9-5.5,48.6-11.8
			c8-3.2,15.3-7.6,22.6-12.1c9.3-5.6,12.4-14.2,12.9-24.4c0.6-12.3-1-24.4-3.5-36.4c-0.3-1.4-1-2.9-0.3-4.4
			c6.9-2.5,11.3-7.7,14.8-13.7c1.1-1.9,2.2-2.8,4.4-2.7c3.6,0.1,7.3,0,10.9,0c4,11.7,8.4,23.2,11.9,35c5.9,19.9,10.3,40.1,13.9,60.4
			c0.4,2.5-0.8,3.1-2.4,3.9c-13.9,7.1-27.9,14-42.7,19.1c-0.4,0.1-0.7,0.4-1,0.6c-1.1,0.3-2.2,0.7-3.3,1c-12.9,4-25.9,7.9-39.3,10.1
			c-10.4,1.7-20.8,3.2-31.4,3.9c-7.3,0.5-14.6,0.9-21.9,0.6c-12.7-0.6-25.3-1.8-37.9-3.8c-16-2.6-31.6-6.3-46.8-11.5
			C1534.8,743,1532.5,743.3,1530.2,743.4z"/>
		<path class="st12" d="M1707.3,642.2c3.2,8.4,4,17.4,4.7,26.2c0.6,7,0.8,14.1-0.5,21.1c-1.5,7.7-5.1,13.6-11.7,18.1
			c-18,12.5-38.2,18.6-59.4,22.8c-15.6,3.1-31.4,2.8-47,2.1c-23.4-1.2-46.6-4.4-68.4-13.6c-12.1-5.1-23.4-11.4-32.6-21
			c-1.2-1.3-2.6-2.4-3.9-3.5c1.9-13.3,5-26.3,8.9-39.1c1.3-4.4,2.8-8.8,4.2-13.2c10.5,3.5,21.2,5.8,32.3,4.8c2.4-0.2,3,1.3,3.8,2.9
			c4.9,8.7,12,14.9,22.3,13.2c5.6-0.9,7.9,1.5,10.7,4.6c10.6,12.2,23.4,21.8,36.8,30.6c5.7,3.7,11.7,6.9,17.5,10.3
			c2,1.2,4,1.2,6.2,0.2c17.2-8,33.1-18.1,47-31.1c10.1-9.4,18.8-19.9,24.8-32.4C1703.8,643.2,1705.2,642.3,1707.3,642.2z"/>
		<path class="st13" d="M1477,490.2c-1,1.2-2.2,0.8-3.4,0.6c-15-2.9-30-3.9-45.2-2.4c-14.1,1.4-28.3,2.3-42.2,5
			c-11.9,2.4-23.4,5.9-34.2,11.4c-22.2,11.3-18.5,37.6-2.9,48.1c9.8,6.6,20.7,9.3,32.2,9.8c12.8,0.6,25.3-1.7,38.4-4.7
			c-3.2,4.3-7.3,7.2-10,11.3c-3,4.6-5.6,9.2-6.1,14.8c-0.6,6.8,2.5,11.6,7,16.1c7.1,7,14.6,13.6,25.4,12.2
			c7.6-0.9,15.2-2.6,22.4-5.6c0.3,0.5,0.6,1,0.9,1.5c-0.7,6.3-0.5,12.4,1.6,18.5c3.1,8.6,8.3,12.3,17.6,12.4c3.3,0,6.5-0.1,9.7-0.8
			c1.7-0.4,3.5-1,5.1,0.3c-1.1,3.5-2.1,7.1-3.2,10.6c-10.8,3.1-21.9,3.8-33,3.2c-7.3-0.4-14.1-2.2-20.1-6.8
			c-5.9-4.6-6.9-10.7-6.3-17.4c0.2-2,1.6-3,3.5-3.4c3.2-0.8,6.3-1.7,9.4-2.6c2.7-0.7,3.8-2.5,3.1-5.2c-0.8-2.9-3.2-2.3-5-1.8
			c-10.5,3.3-21.2,5.9-32.1,6.7c-14.6,1-29.4,0.9-42.4-7.6c-8.6-5.6-10.5-18.1-4.4-26.3c2.6-3.5,6.5-2.2,9.7-3
			c2.8-0.7,5.8-1.4,8.7-1.9c2.3-0.4,3.7-1.9,3.5-4.3c-0.3-2.5-2.3-3.3-4.5-3c-5.1,0.8-10.1,1.8-15.2,2.6
			c-13.1,1.9-26.2,2.1-39.3,0.8c-11.3-1.2-22.2-3.5-32.2-9c-9.6-5.3-16.4-12.7-17-24c-0.4-6.4,1.8-12.6,5.4-18
			c7.9-11.7,18.9-20,30.8-27.3c16.9-10.4,35.6-16,54.7-20c17.4-3.6,34.9-3.7,52.6-2.4c13,1,25.8,2.9,38.4,5.9
			C1464.6,486.1,1470.8,488.3,1477,490.2z"/>
		<path class="st9" d="M1789,607.1c9.1-11,8.7-20.5-1.6-31.2c-9.4-9.7-20.9-16.4-32.6-22.8c-6.9-3.7-13.9-7.2-21.6-11.1
			c10.8-2,20.8-3.9,30.7-6.5c33.2-8.6,64.1-22.1,91.4-43.3c0.2-0.2,0.5-0.2,0.7-0.3c1.6-0.3,3.2-0.3,4.8,0.1
			c10,2.3,19.7,5.5,28.7,10.3c8.1,4.2,14.5,10.2,16.3,19.7c2.4,12.7-3.9,25.6-15.7,32.3c-9,5-18.7,7.3-28.9,8
			c-5.9,0.4-11.9,0.2-17.9-0.6c-5.9-0.8-11.8-1.9-18-2.8c4.4,4.5,8.3,9.3,11.1,14.9c4.2,8.5,3.4,16.1-2.9,23.4
			c-4.9,5.6-10.2,10.5-17.2,13.4c-6.7,2.8-13.4,1.5-20-0.3C1793.8,609.6,1790.5,610.2,1789,607.1z"/>
		<path class="st13" d="M1789,607.1c5.6,2.1,11.4,3.5,17.3,3.9c10.8,0.8,18.2-5.6,25.1-12.9c5.7-6,8.5-12.6,5.5-20.7
			c-2.1-5.6-5.4-10.6-9.6-15c-1.5-1.5-3.2-2.9-4.5-4.7c3.9-0.6,7.4,0.6,10.9,1.3c9.1,1.8,18.3,2.8,27.5,2
			c13.5-1.1,26.7-3.7,36.5-14.3c10.5-11.3,11.3-30.1-3.2-40.2c-10.8-7.5-23.1-11-35.7-14c-0.9-0.2-1.8-0.5-2.7-0.8
			c3.7-3.3,7.5-6.6,11.2-9.9c13,2.9,25.8,6.1,38.1,11.5c14.5,6.3,28,14.4,39.4,25.6c5.1,5,9.3,10.6,11.9,17.4
			c4.2,11.2,1.7,24.6-11.6,33c-8.4,5.3-17.8,7.7-27.4,9.9c-11.3,2.6-22.6,2.7-34,2.3c-8.1-0.3-16.1-1.8-24-3.5
			c-1.6-0.4-3.2-0.4-4.8-0.5c-2-0.1-3.9,0.1-4.3,2.6c-0.5,2.6,1.3,3.8,3.3,4.4c3.1,0.9,6.3,1.5,9.5,2c8.5,1.3,10.3,2.6,12,10.3
			c1.5,7.1-0.5,13.4-6.3,17.8c-6.3,4.8-13.6,6.9-21.5,8c-18.4,2.5-36.2-0.4-53.6-6c-2.6-0.8-4.6-0.7-5.7,2c-1.1,2.9,1.2,3.9,3.2,4.7
			c3,1.2,6.1,2.3,9.3,2.9c3,0.6,3.6,2.4,3.8,4.8c0.8,8.4-2.7,14.5-9.9,18.5c-4.7,2.6-9.8,3.9-15.2,4c-7.7,0.1-15.5,0.3-23.2-0.8
			c-2-4.8-3.7-9.7-4.9-14.7c0.9-1.1,2.2-1,3.4-0.9c0.4,0,0.8,0.1,1.2,0.2c17.6,2.2,25.4-4.1,27-21.7c0.2-1.6,0-3.3,1.1-4.7
			C1785.6,609.6,1787.3,608.4,1789,607.1z"/>
		<path class="st12" d="M1680.3,569.3c-16.2-5.6-31.9-3.9-46.9,3.7c-3.8,1.9-6.7,2-10.5,0.1c-16.4-8.2-33.5-9.7-50.2-1.8
			c-13.7,6.5-23.6,16.8-26.2,32.6c-0.5,2.9-1.7,4.8-4.3,6.7c-8.6,6.2-10.6,15.5-9.2,25.4c0.4,3.4-0.5,3.6-3.2,3.6
			c-9,0.1-17.5-1.6-25.8-5c-1.2-1.9-0.2-3.7,0.4-5.4c5-13.6,10.5-27.1,16.5-40.3c7.4-16.2,15.8-31.8,24.6-47.3c1.3-2.2,1.9-5.2,5-6
			c1,0.1,1.9,0.4,2.7,1c13.4,8.3,28.4,10.6,43.7,12c16.2,1.5,32.6,1.8,48.8,2.6c7.5,0.4,14.9,1.6,22.3,2.8c4.8,0.8,8.6,3.4,11.5,7.1
			C1681.3,563.5,1682.4,566.2,1680.3,569.3z"/>
		<path class="st9" d="M1495.8,630.6c-12.3-6.5-23.2-14.6-30.4-26.9c-7.1-12.1-5.8-23.5,3.5-34.1c7.6-8.7,17.3-14.7,26.9-20.9
			c11.4-7.4,23.5-13.5,36-18.8c1.5-0.6,3.1-1,4.6-1.4c3.4-0.7,4.6,1.6,5.7,4.1c-1.2,5.7-4.9,10.2-7.6,15.1
			c-14,25.3-26.1,51.5-36.1,78.6C1497.9,627.9,1497.8,629.9,1495.8,630.6z"/>
		<path class="st9" d="M1711.1,544.3c5.3-1,10.1,0.2,14.9,2.5c17.8,8.6,35.8,17,51.2,29.8c2.6,2.2,5,4.6,7.1,7.3
			c5.9,7.6,4.8,14.7-3.3,20c-6.5,4.2-13.7,7.1-21.2,9.2c-5.3,1.5-10.7,2.8-16.1,4.2c-1.6-0.5-2.1-2-2.7-3.3
			c-9.9-21.5-20.4-42.8-31.7-63.7c-0.3-0.5-0.5-1-0.7-1.5C1706.9,545.2,1707.1,544.9,1711.1,544.3z"/>
		<path class="st11" d="M1680.3,569.3c1.8-7.4-7.1-13.7-13.8-14.5c-9.9-1.1-19.8-2.5-29.8-2.7c-13.9-0.2-27.8-1.1-41.6-2.4
			c-15.9-1.6-31.6-4.4-45.3-13.7c0.9-5.4,4.2-9.6,7.3-13.9c22.4,8,45.4,13.7,68.7,18.2c23.7,4.6,47.6,6.5,71.7,5.3
			c2.3-0.1,2.9,1.8,3.6,3.3c8.2,15.6,16.7,31.1,24.1,47.2c2.7,5.9,5.9,11.7,8.3,17.7c0.6,1.4,2,2.8,0.7,4.5c-8,0.5-8,0.5-8.1-7.5
			c-0.1-9.5-3.3-17.2-12.1-21.8c-0.1-0.1-0.2-0.2-0.4-0.2c-8.9,0.1-13.5-7-19.6-11.8C1689.9,573.8,1685.3,571.1,1680.3,569.3z"/>
		<path class="st6" d="M1340.6,304c1.4-15.9,14.5-28.6,30.3-29.4c5.5-0.3,10.8,0.1,16,2.2c2.6,1.1,3.6,2.3,2.6,5.1
			c-4.1,11.6-5.4,23.8-6.5,36c-2.3,1.7-5.2,1.8-7.8,1.8c-11.3,0.1-22-1.9-31.4-8.7C1341.5,309.3,1339.4,307.4,1340.6,304z"/>
		<path class="st6" d="M1901.4,432c4.7-11.9,8.2-24.2,9.8-36.9c0.4-2.7,2-2.5,3.7-2.4c13.1,1,26,9.6,29.8,25.8c1,4.2,1.5,8.6,0,12.8
			c-0.5,0.7-0.9,1.4-1.7,1.7c-12.3,5.2-24.8,8.1-37.9,2.9C1903.5,435.3,1901.3,434.8,1901.4,432z"/>
		<path class="st14" d="M1557,522c-1.7,5-4.9,9.2-7.3,13.9c-11.4,19.9-22.4,40.1-31.5,61.2c-5.3,12.3-10.8,24.6-14.4,37.5
			c-2.8-1.1-5.8-2-8.1-4.1c12-33.7,27.5-65.8,45.4-96.7c0.2-0.3,0.3-0.8,0.4-1.1c0.4-3,1.8-5.5,4-7.5c2.8-2.5,7.1-2.1,9.9-4.8
			C1556.3,519.7,1556.5,521.4,1557,522z"/>
		<path class="st7" d="M1901.4,432c1.2,2.1,3.4,2.7,5.4,3.4c11.4,4.3,22.3,1.7,33.2-2.1c1.7-0.6,3.3-1.3,4.9-2
			c-0.7,11.9-12.6,24.5-25.4,26.9c-9.2,1.8-17.8,0.4-25.6-4.8c-1.6-1.1-2.6-1.9-1.4-4.2C1895.7,443.7,1898.5,437.8,1901.4,432z"/>
		<path class="st7" d="M1340.6,304c-0.2,2.4,0.8,4.1,2.8,5.5c10.7,7.3,22.3,10.3,35.2,8.6c1.5-0.2,3-0.1,4.5-0.1
			c0.3,6.2-0.4,12.5,0.8,18.7c0.3,1.8-0.4,2.8-2.1,3.2c-18.3,4.2-37.6-6.5-41-27C1340.2,309.9,1339.3,306.9,1340.6,304z"/>
		<path class="st6" d="M1688.6,621.6c-1.1-7.2,1-13.7,5.1-19.6c3.6-5.3,10.3-8.2,15.4-6.8c5.1,1.4,8.9,6.4,9.6,12.9
			c0.4,4.3,0.5,8.7-1.6,12.7C1710.7,628.9,1694.6,630.3,1688.6,621.6z"/>
		<path class="st14" d="M1734.2,618.3c-6.9-16.2-14.6-32-22.8-47.6c-3.9-7.4-7.8-14.9-11.7-22.3c-0.6-1.1-1-2.2-2.2-2.8
			c0.4-2.2,0.6-4.7,3.2-5.5c2.6-0.7,4.6,0.1,5.8,2.8c0.9,2.1,3.1,0.8,4.7,1.3c-1.5,0.5-4-0.1-2.2,3.2c12.3,22.4,23.6,45.4,34.1,68.7
			c0.2,0.4,0.4,0.7,0.6,1C1740.5,617.6,1737.3,617.9,1734.2,618.3z"/>
		<path class="st6" d="M1541.5,639.6c-2.2-5.8-2-11.6,0.4-17.4c3-7.2,12.1-8.9,17.5-5.3c7,4.6,10.6,11,10.8,19.4
			c0.9,2.3,0.2,4.2-1.7,5.7C1559.9,648.9,1548.6,647.2,1541.5,639.6z"/>
		<path class="st9" d="M1783.9,610.9c0.2,7.1-0.7,14-4.6,20.2c-3.4,5.3-8.4,7.3-14.4,7.7c-4.6,0.3-9.2-0.5-13.7-0.8
			c-1.8-4.5-3.8-9-4.8-13.8C1759.4,621.3,1772.1,617.3,1783.9,610.9z"/>
		<path class="st9" d="M1493.1,638.8c-4.7,0.4-9.2,1.8-14,1.7c-14.5-0.1-18.4-7.7-20.8-17.8c-1.1-4.7-2-9.6,0.8-14.2
			c8.6,13.1,21,21.8,34.3,29.6C1493.4,638.3,1493.3,638.6,1493.1,638.8z"/>
		<path class="st7" d="M1541.5,639.6c5,2.5,9.6,6,15.7,5.7c4.6-0.2,8.2-2.4,11.7-5c1.4-1,1.1-2.6,1.3-4.1c2,7.7-1.6,15.8-8.7,19
			c-3.2,1.5-6.5,0.6-9.4-1C1546.3,651,1542.9,646.1,1541.5,639.6z"/>
		<path class="st7" d="M1688.6,621.6c2.7,0.9,4.6,3.2,7.4,4.1c6.4,1.9,12,0.3,17.6-2.8c1.2-0.7,2.3-1.4,3.5-2.1
			c-1.9,7-5.9,12.4-13,14.4C1695.9,637.5,1689,631.1,1688.6,621.6z"/>
		<path class="st15" d="M1545.5,525.2c-1,2.7-2.4,5.2-4,7.5c-1.4-1.9-2.6-3.8-5.2-4.3C1539.3,526.8,1542.2,525.5,1545.5,525.2z"/>
		<path class="st16" d="M1539.1,518.9c-1.5-3-5-3.9-6.6-6.7c3.7,1.5,7.5,3,11.8,4.8C1542.4,518.3,1540.8,518.8,1539.1,518.9z"/>
		<path class="st17" d="M1568.4-100.1c-1.1-8.6,3.5-14.2,9.9-18.8c9.5-6.8,20.7-9.4,32-11.4c19.5-3.4,39.2-3.8,58.9-3.3
			c21.3,0.6,42.5,3.4,63.4,7.4c33.3,6.4,65.7,15.7,96.8,29.3c20,8.7,39.3,18.7,56.1,32.8c5.2,4.4,10,9.2,13.7,15
			c3,4.9,4.8,10,4,15.9c-0.8,1.5-2.2,2.4-3.8,2.8c-15.9,4.1-31.6,4.3-46.6-3.5c-2.9-1.5-5.9-2.9-7.3-6.2c-0.2-0.7-0.3-1.4-0.1-2
			c3.2-11.1-3-18.5-10.4-25.1c-15-13.2-32.9-21.6-51.3-28.7c-17.4-6.7-35.3-12-53.8-14.7c-9.7-1.4-19.3-2.9-29.2-3.2
			c-6.1-0.2-12.2-0.8-18.3-0.6c-12,0.4-23.9,1.5-35.5,4.6c-4.8,1.2-9.3,3.1-13.4,5.9c-5.9,4-8.9,9.4-7.7,16.7
			c0.1,0.9,0.2,1.9-0.2,2.8c-0.6,1.4-2,1.8-3.3,2.1c-18.6,3.4-35.7,0.5-50-12.9C1570.6-96.7,1569.4-98.3,1568.4-100.1z"/>
		<path class="st18" d="M1568.4-100.1c4.5,3.5,8,8,13.2,10.7c10.7,5.7,21.7,8.6,33.9,6.6c3.1-0.5,6.5,0.1,9.4-1.8
			c1-0.1,1.5,0.6,1.8,1.3c4.7,10.8,13.7,17.4,23.2,23.4c25.6,16,53.6,25.7,83,31.5c19.2,3.8,38.7,6.1,58.3,5.5
			c12.3-0.4,24.7-1.3,36.6-5.4c6.5-2.2,12.2-5.2,16.2-11c0.5-0.7,1-1.3,2-1.3c4.2,5.5,10.5,7.8,16.7,9.5c13.6,3.7,27.3,3.5,40.5-2
			c-1.8,9.2-8.1,14.4-16,18.2c-11.6,5.6-24.2,7.9-36.8,9.5c-14.8,1.9-29.8,2.1-44.7,1.7c-16.2-0.4-32.4-2.4-48.5-4.6
			c-11-1.5-21.9-3.7-32.8-5.5c-11.2-1.9-22-5.7-32.9-9c-23.1-6.8-45.6-15.2-67.1-26.1c-14.9-7.6-29.4-15.9-41.8-27.3
			C1575.5-82.6,1569.1-89.7,1568.4-100.1z"/>
		<path class="st6" d="M1567,900.1c-2.4-15.2-2-30.3,3-45c0.9-2.6,2-5,3.6-7.3c4.2-5.8,8.6-5.9,12.3,0.4c4.1,7.1,6.6,14.8,7,23.1
			c1.2,11.8-2.2,22.6-7.6,32.6c-4,7.4-12.2,6.9-16.5-0.3C1568.2,902.5,1567.6,901.3,1567,900.1z"/>
		<path class="st7" d="M1567,900.1c1.9,1,2.5,3.1,3.9,4.6c5.3,5.4,10.4,4.9,14-1.8c3.7-6.8,5.4-14.4,7.2-21.9
			c0.8-3.2,0.7-6.4,0.9-9.7c1.5,6.8,0.9,13.8,0.6,20.6c-0.3,7.9-1.9,15.6-5,22.9c-0.7,1.6-1.4,3.2-2.3,4.7c-4,6.8-8.7,7-13,0.4
			C1569.5,914,1568,907.1,1567,900.1z"/>
		<path class="st6" d="M1645.1,854.3c0.1-8,2.1-15.6,5.1-22.9c0.8-2,2-3.9,3.4-5.5c3.6-4.4,6.6-4.3,10.2,0.2
			c4.9,6.3,6.6,13.9,7.8,21.6c1.7,10.9,1.8,21.9-0.3,32.8c-5.4,8.9-14.3,8.9-19.4-0.1C1647.3,872.3,1645.4,863.5,1645.1,854.3z"/>
		<path class="st7" d="M1645.1,854.3c1.8,4.8,1.9,10,3.3,14.8c1.2,4,2.5,8,4.8,11.6c4.2,6.5,9.9,7.1,15.6,1.9
			c0.8-0.7,1.6-1.4,2.4-2.1c-1.1,7.3-2.9,14.3-7.3,20.4c-3.3,4.6-7.2,4.6-10.5,0c-4.5-6.2-6.5-13.3-7.6-20.8
			C1644.4,871.6,1643.5,863,1645.1,854.3z"/>
		<path class="st19" d="M1519.4,367.8c-15-1.1-29.1-4.3-40-16c-7.8-8.4-7.7-17.7,0.4-24c3.1-2.4,6.8-3.9,10.6-5
			c8.1-2.2,16.2-2,24.4-0.1c10.6,2.5,20.5,6.2,28.2,14.3c6.7,7.1,7.6,15.2,2.2,22c-2.6,3.3-6.4,5-10.3,6.2
			C1530,367,1524.9,368.3,1519.4,367.8z"/>
		<path class="st19" d="M1780.5,416.7c-11.7-0.4-24.8-4.3-36-13.8c-8.1-6.8-9.9-17.6-3.6-24.3c4.2-4.5,9.9-6.4,15.6-7.4
			c15.9-2.7,30.8,1,44,9.9c5.1,3.4,9.7,7.9,11.2,14.5c1.6,7.3-2.6,13.5-8.2,16.6C1798.2,415.2,1791.1,416.7,1780.5,416.7z"/>
		<path class="st20" d="M1663.6,416c-10.5-0.3-20.2-3.6-29.3-8.8c-2.7-1.5-3.9-3.7-2.3-6.4c1.5-2.6,4-2.6,6.4-1.2
			c4.9,2.8,9.9,5.2,15.3,6.4c13.6,3.2,25.5-0.6,35.8-9.7c4.6-4,8.7-8.6,12.2-13.6c1.8-2.6,4-4.6,7.1-2.4c3.1,2.2,1.8,4.9-0.1,7.4
			c-7,9.5-14.8,18-25.6,23.5C1677,414.4,1670.5,416.2,1663.6,416z"/>
		<path class="st20" d="M1568.9,300.1c16.1-0.2,29,5.1,39.3,16.5c0.7,0.8,1.4,1.6,2.1,2.5c1.7,2.4,2.8,5.1,0,7.2
			c-2.6,1.9-4.9,0.8-6.9-1.8c-10.5-13.2-24.6-17-40.8-15.1c-1.9,0.2-3.7,0.6-5.6,0.9c-2.6,0.5-4.7-0.3-5.5-2.9
			c-0.9-2.9,0.8-4.8,3.4-5.5C1559.7,300.5,1564.7,299.9,1568.9,300.1z"/>
		<path class="st20" d="M1728.6,337.5c-8.7-0.1-15.9,3.4-22.7,8.2c-3.3,2.3-6.2,1.8-7.4-1.2c-1-2.6,0.5-4.4,2.4-5.9
			c14.3-11.6,33.2-13.1,49.2-3.6c2.9,1.7,5.7,3.7,8.4,5.8c2.2,1.7,3,4,1,6.4s-4.1,1.8-6.4,0C1745.8,341.3,1738,337.3,1728.6,337.5z"
			/>
		<path class="st2" d="M1845.9-40.6c-3.2,6.3-8.6,10-15,12.4c-9.7,3.6-19.8,5.3-30.2,5.9c-6,0.3-11.9,0.7-17.9,0.6
			c-16.3-0.3-32.4-2.3-48.4-5.1c-22.3-4-43.6-11.1-64.1-20.4c-11.5-5.2-22.5-11.4-32.3-19.6c-5.8-4.8-10.7-10.4-13.2-17.7
			c-1.4-14.5,4.2-21.8,20.6-26.1c17.3-4.6,35-5.2,52.8-4.3c17.9,0.9,35.7,3.2,53,7.7c26.8,6.9,52.6,16.5,75.6,32.3
			c5,3.5,9.8,7.3,13.8,12C1846.2-56.5,1849.2-49.3,1845.9-40.6z"/>
		<path class="st21" d="M1685.9-109.6c43.2,0.4,84.2,10,122.6,30.1c9.6,5,18.9,10.7,26.5,18.8c0.9,1,1.8,2,2.6,3.1
			c6.3,8.9,4.6,16.8-5.1,22c-9.9,5.3-20.9,6.8-31.9,7.4c-44.3,2.6-86.5-6.1-126.9-24c-12.8-5.7-25.1-12.4-35.4-22.2
			c-3.6-3.4-6.6-7.2-7.9-12.1c-1.1-4.2-0.2-7.8,2.6-10.9c3.6-4,8.3-6,13.3-7.5C1659.3-108.7,1672.5-109.8,1685.9-109.6z"/>
	</g>
</g>
</svg>
