<?xml version="1.0" encoding="utf-8"?>
<!-- Generator: Adobe Illustrator 19.0.0, SVG Export Plug-In . SVG Version: 6.00 Build 0)  -->
<svg version="1.1" id="Camada_1" xmlns="http://www.w3.org/2000/svg" xmlns:xlink="http://www.w3.org/1999/xlink" x="0px" y="0px"
	 width="1061.3px" height="1082.2px" viewBox="1085.9 -143.6 1061.3 1082.2"
	 style="enable-background:new 1085.9 -143.6 1061.3 1082.2;" xml:space="preserve">
<style type="text/css">
	.st0{fill:#7F5537;}
	.st1{fill:#7D308D;}
	.st2{fill:#F2BF02;}
	.st3{fill:#774E3A;}
	.st4{fill:#ADDEF1;}
	.st5{fill:#FDFDFD;}
	.st6{fill:#FEE9CF;}
	.st7{fill:#F398A2;}
	.st8{fill:#EC8151;}
	.st9{fill:#FEDAAB;}
	.st10{fill:#F6C28D;}
	.st11{fill:#EC6F3A;}
	.st12{fill:#A35BAA;}
	.st13{fill:#D7EDF5;}
	.st14{fill:#BEEDFE;}
	.st15{fill:#A56DAA;}
	.st16{fill:#FEE595;}
	.st17{fill:#F2D369;}
	.st18{fill:#F4A29A;}
	.st19{fill:#f2e3fc;}
</style>
<g>
	<g>
		<path class="st0" d="M1085.9,137.6c0.3-0.3,0.7-0.5,0.8-0.8c4.1-16,19.4-27.6,40.8-25.5c2.9,0.3,4.8-0.4,6.8-2.5
			c8.7-8.9,19.4-13.3,31.7-11.1c12.7,2.2,21.5,9.9,25.9,22.2c4.7,13,2.6,25.7-2.6,38.1c-6.1,14.4-15.2,26.6-26.5,37.2
			c-1.6,1.5-3.4,2.1-5.6,1.7c-17.8-2.8-34.6-8.4-49.7-18c-9.6-6.1-16.7-14.6-20-25.9c-0.3-1.1-0.4-2.4-1.6-3.1
			C1085.9,145.8,1085.9,141.7,1085.9,137.6z"/>
		<path class="st0" d="M1356.9,525.4c-9.2-4.1-18.3-8.2-27.5-12.3c-1.2-0.5-1.9-0.8-2.9,0.7c-7.3,10.9-18.2,13.7-30.3,12.1
			c-7.2-0.9-13.8-3.5-19.3-8.8c-11.2-10.9-9.8-26.2,3.9-33.8c13.9-7.7,38.3-2.8,46.2,13.5c0.5,1,1.2,2,1.2,3
			c-0.4,4.6,2.7,6.2,6.2,7.7c8,3.4,15.7,7.3,24,10.1c3-0.2,5.4,1.5,8.2,2.3c14.4,5.4,29.2,9.6,44.3,12.7c9.6,1.7,19.2,3.8,29,4.4
			c17.1,1,34.2,1.4,51.2-1.5c11.9-2.1,23.7-4.6,35.7-9.1c-7.7-2.4-14.9-4.8-22.1-7.3c-34.2-12.3-64.8-30.6-92.1-54.4
			c-10-8.8-19.4-18.2-27.5-28.9c-6-8.3-11.8-16.7-16.5-25.8c-0.8-2.3-2.7-4.3-2.7-6.9c-1.5-3.9-3-7.8-4.3-11.8
			c-0.8-2.4-2.1-1.2-3.4-0.8c-11.7,4.2-23.2,4-34.4-1.5c-23.6-11.7-30.3-43.3-13.6-63.6c2.7-3.2,5.4-6.5,9.1-8.7
			c2-1.2,2-1.9,0.1-3.4c-26.5-20.9-27.9-68.6-3.9-93c6.2-6.3,13.5-10.8,22.1-13.3c1.1-0.3,3.6,0.2,2.2-2.8
			c-8.5-18.1-7.5-36.7-1.2-54.8c12.4-36.2,36.3-61.6,73-73.9c10.8-3.6,22.1-4.2,33.4-3.9c6.7,0.7,13.3,1.8,19.7,3.8
			c3.3,1.1,4.5-0.1,6.1-2.6c7-11.5,15.4-22,25.3-31.1c11.3-10.4,24-18.9,37.5-26.1c19.9-10.7,41.3-16.7,63.4-20.4
			c3.7-0.6,7.5-0.8,11.3-1.2c2.2-0.5,4.5,0.3,6.7-0.5c7.5,0,15,0,22.5,0c2.2,0.9,4.5,0,6.6,0.5c25.4,2.4,49.6,8.8,72.2,20.6
			c29.6,15.5,53.1,37.5,69.7,66.7c0.7,1.3,1.7,2.5,2.2,3.9c1.4,4.5,4.2,6,8.6,4.4c4.6-0.3,9.2-0.3,13.8,0
			c26.9,3,50.1,14.2,70.4,31.8c15.2,13.1,27.2,28.7,36,46.8c5.3,10.9,7.9,22.5,9.7,34.3c0.3,4.6,0.4,9.2,0,13.8
			c-1.2,6-2.2,12.1-4.9,17.7c-0.4,0.8-1.5,2.2,0.5,3.2c11.1,5.6,15.8,16.1,18.7,27.1c6.9,25.9,1.1,49-16.8,69
			c-2.2,2.4-4.3,4.8-6.6,7.2c-0.9,1-2,1.8-3.3,2.9c5.8,3.7,10.5,8.4,14.3,14.2c10.4,15.5,8.1,37.5-4.5,50.6
			c-3.2,3.3-7.3,5.9-10.9,8.8c-2.9,3.7-7.5,3.5-11.4,5c-8.3,0.6-16.6,1.1-24.5-2.3c-2.7-1.2-4.3-0.6-5.5,2.1
			c-2.3,5.1-5.1,9.9-8.2,14.5c-16.5,23.9-37.9,42.6-62.2,58c-24.4,15.5-50.7,26.5-78.5,34.3c-0.4,0.1-0.8,0.2-1.3,0.9
			c34.9,15.4,70.8,22.1,108.7,15.9c15.3-2.4,29.9-7.2,43.9-13.9c3-1,5.7-2.8,9-3.3c13.5-6.7,25.5-15.5,37.2-24.8
			c1-0.8,1.4-1.6,1.1-3.1c-2.9-12.2,2.7-21.3,11.2-29.1c4.9-4.5,11.1-6.6,17.6-7.8c3-0.3,5.9-0.3,8.9,0c8.4,1.3,13.5,6.5,16.5,14.1
			c0.4,3.2,0.4,6.5,0,9.7c-2.4,6.6-5.3,12.9-10.8,17.6c-9,7.7-19.1,11.3-30.9,8.5c-0.4-0.1-0.9,0-1.2-0.2c-5.7-5-10.1-2.7-15.2,1.6
			c-10.9,9.2-23.4,16.1-36,22.9c-3.2,3.3-7.6,4-11.5,6.1c-14.7,6-29.9,10.4-45.7,12.3c-32.9,4.8-64.3-1.2-95-13
			c-6.5-2.5-12.9-5.2-19.1-8.2c-3.4-1.1-6.8-1.6-10.3-0.6c-11.5,3-23.2,4.5-34.9,5.6c-12.6,1.3-25.2,0.9-37.8,0.8
			c-24.6-0.1-49-2.7-73.2-7.4c-3.4-0.8-6.8-1.5-10.1-2.3c-6.7,0.4-12.3,4-18.5,6c-16.9,5.4-34.1,8.9-51.7,10.4
			c-20.6,1.8-40.9-0.6-61.1-4.3c-16.2-3.1-32-7.7-47.4-13.3C1362.6,527.9,1359.2,527.8,1356.9,525.4z"/>
		<path class="st1" d="M1544.7,529.6c2.9,1.2,6.1,0.9,8.9,2.5c0.5,1.1,0,2-0.5,3c-15.1,26.8-29.1,54.1-40.2,82.8
			c-9.4,24.3-17.1,49.3-21.1,75.2c-1.5,7.8-2.4,15.6-3.7,23.4c-0.5,3.3,0.4,5.4,3.5,6.9c34.7,16.5,70.6,29,109.2,33
			c14.4,1.5,28.8,1.9,43.2,1.2c21.4-1,42.4-5,62.9-11.4c18.4-5.7,36.1-13,53.1-21.9c4.7-2.4,4.8-2.8,3.9-8
			c-5.5-33-14.7-65-26.8-96.1c-8.3-21.2-17.8-41.8-26.9-62.6c-2.8-6.5-6.2-12.7-8.8-19.3c-0.7-1.7-1.9-3.4-0.8-5.4
			c3.4-1.5,6.6-0.4,9.9,0.6c3.8,5.5,6,11.8,8.7,17.9c8.7,19.7,17.3,39.5,25.6,59.4c1.9,4.9,4.1,9.6,5.9,14.6
			c0.7,2.9,2.3,5.5,2.1,8.7c3.2,10.8,6.6,21.5,9.7,32.3c4.9,17.4,8.9,35,11.9,52.9c1.5,9-0.1,8.1-5.9,11.4
			c-14.1,8-28.8,14.7-44,20.2c-0.3,0.3-0.4,0.8-0.7,0.9c-3.6,1.1-6.3,3.3-7.8,6.8c-0.1-4.8-0.1-4.7-4.7-3.3
			c-13.6,4.2-27.4,7.4-41.6,9.3c-7,0.9-14,1.8-21.1,2.7c-2.4,0.7-5-0.4-7.4,0.6c-7.8,0-15.7,0-23.5,0c-2.4-1-5,0.1-7.4-0.6
			c-10.3-0.4-20.5-1.9-30.6-3.6c-8.3-1.4-16.6-3-24.7-5.6c-5.8-0.2-11.1-2.3-16.6-4c-2.6-1.3-5.8-1.3-8-3.3c-9.4-4-18.9-8-28.3-12.1
			c-6.9-3-13.8-6.4-20.7-9.4c-2.9-1.3-3.9-3.2-3.6-6.4c3.2-30.3,9.8-59.9,19.4-88.8c0.5-1.5,0.9-3.1,1.4-4.7
			c-0.3-3.1,1.1-5.8,2.1-8.7c1.2-2.9,2.4-5.9,3.5-8.8c7.1-18.1,15.3-35.8,24.2-53c4.5-8.7,9.1-17.3,14-25.8
			C1542.8,531.6,1543.5,530.4,1544.7,529.6z"/>
		<path class="st2" d="M1469.5-106.7c10.2-9.4,22.7-14.4,35.3-19.3c24.9-8.1,50.6-12.1,76.6-14.1c2.5-0.7,5.1,0.3,7.5-0.6
			c1.6-0.1,3.1-0.2,4.7-0.3c15.2-0.3,30.4-0.4,45.6,0.1c1.6,0.1,3.1,0.1,4.7,0.2c2.2,0.8,4.5-0.1,6.7,0.6c1.9,0.1,3.7,0.2,5.6,0.2
			c1.3,0.8,2.8,0.1,4.2,0.5c1.6,0.1,3.2,0.2,4.8,0.3c1.3,0.8,2.8,0,4.2,0.6c20.9,3,41.7,6.1,62.1,11.7c22.2,6.1,44,13.4,63.4,26.2
			c7.3,4.8,13.6,10.7,17.4,18.8c4.5,9.6,2.7,20.8-4.6,28.5c-8.6,9.2-19.6,14.4-31.2,18.7c-19.5,7.1-39.6,11.3-60.2,13.9
			c-5.3,0.7-10.6,1.2-15.9,1.8c-1.9,0.7-3.9-0.3-5.8,0.6c-1.9,0.1-3.8,0.2-5.7,0.3c-2.4,0.6-5-0.4-7.4,0.6c-14,0-28.1,0-42.1-0.1
			c-1.7,0-3.4-0.3-5.1-0.5c-1.6,0.4-3.2,0.3-4.8,0c-1.6-0.1-3.3-0.1-4.9-0.2c-1.3-0.9-2.8-0.1-4.1-0.6c-1.4-0.1-2.7-0.2-4.1-0.2
			c-1.3-0.9-2.8,0-4.1-0.6c-3.2-0.4-6.5-0.7-9.7-1.1c-1.3-0.8-2.9,0-4.2-0.6c-22-2.4-43.5-6.9-64.7-13.4
			c-15.4-4.7-30.6-9.8-44.6-17.9c-9.8-5.6-19.3-11.6-25.1-22C1458.9-84.5,1461-99.4,1469.5-106.7z"/>
		<path class="st3" d="M1530.1,750.6c2.9,0.3,5.7,1.1,8.1,2.7c1.3,1.6,0.6,3.3,0.5,5.1c-0.5,9.1-3.6,18-2.7,27.3
			c0.1,1.2-0.3,2.4,0.4,3.6c0.4,12.1,3,23.5,11.4,32.8c6.8,7.4,15.5,10.8,25.5,11.2c2.4,0.1,4.9,0.1,7.3,0.1
			c7.3,0.2,12.2,3.9,15.6,10.2c4.8,8.8,6.6,18.4,8.1,28c0.6,1.9-0.3,3.9,0.6,5.8c0,3.7,0,7.4,0,11.1c-0.8,1.9,0,4-0.5,5.9
			c-1.8,11.1-3.7,22.1-10.6,31.5c-2.1,2.8-4.5,4.9-7.6,6.3c-2.7,0.3-5.4,0.3-8.1,0c-3.4-0.8-6-2.8-7.9-5.7
			c-6.3-9.5-9.5-20-10.3-31.3c-0.6-2.2,0.4-4.5-0.6-6.6c0-3.8,0-7.5,0-11.3c0.9-1.8,0-3.9,0.6-5.7c0.7-9.9,3-19.3,7.7-28.1
			c1.2-2.2,0-2.1-1.5-2.3c-14.1-2.5-24.9-9.8-31.5-22.7C1524.3,796.4,1526.7,773.5,1530.1,750.6z"/>
		<path class="st3" d="M1715.6,758.5c-0.7-6.5,4.9-6.1,8.6-7.7c0,4.3,0,8.6,0,12.9c-0.9,1.6,0,3.4-0.6,5
			c-1.9,11.1-4.4,21.9-11.2,31.1c-8.2,11.1-19.2,17.5-32.5,20.2c-1.7,0.4-3.4,0.6-5.4,1c5.9,11.1,8.2,22.9,9.2,35
			c0.4,4.1,0.4,8.1,0,12.2c-0.1,1.9-0.1,3.8-0.2,5.7c-0.9,1.3,0,2.8-0.6,4.1c-1.9,9.5-4.3,18.7-10,26.8c-6.5,9.4-17.4,9.4-24,0.2
			c-5.3-7.4-7.5-15.8-9.2-24.5c-0.8-4.4-0.8-8.8-1.2-13.2c-0.3-3.8-0.4-7.6,0.1-11.4c0.1-1.9,0.1-3.8,0.2-5.7c0.9-1.3,0-2.8,0.6-4.1
			c1.4-9.9,4-19.2,10-27.5c2.8-3.9,6.2-5.6,10.7-5.9c2.7-0.2,5.4-0.2,8.1-0.3c1.9-0.6,3.9,0.4,5.7-0.6c8.5-0.8,16-4.3,22.7-9.3
			c10.6-7.8,15.6-18.7,17.4-31.5C1714.4,766.9,1715,762.7,1715.6,758.5z"/>
		<path class="st0" d="M2037.8,130.5c-0.7-10.8,3.1-20.3,11.9-27c7.4-5.7,16.1-7.4,25.4-6.2c8.1,1,15.2,4.3,21.3,9.6
			c2.9,2.5,6.2,0.6,9.2,0.2c22-2.9,40.3,10.9,40.5,33.7c0.1,12.2-5.9,22.6-14.9,30.8c-14.3,13-31.4,20.5-50.1,24.4
			c-2.8,0.6-5.2,0.4-7.4-1.6c-12.5-11.8-23-25.1-30.8-40.5C2039.1,146.6,2037.5,138.9,2037.8,130.5z"/>
		<path class="st0" d="M2032.8,282.8c9.8,1.5,16.9,7,22.5,14.9c0.7,1,1.7,1.7,2.6,2.5c1.4,0.7,2.9,0,4.3,0.6
			c9.3,1.7,17.3,5.4,22.8,13.6c2.3,3.4,3.4,7.2,4.4,11.1c0.3,3.5,0.4,7,0,10.5c-6.3,18.7-20.8,27.1-38.9,31
			c-9,1.9-18.2,1.8-27.3,1.7c-1.3-0.9-2.8,0-4.1-0.6c-3.3-0.9-4.3-3.8-5.7-6.3c-5.7-9.9-10.2-20.5-12.6-31.6
			c-3-14.2-2.5-28.2,7.7-40c4.4-5.1,10.6-6.9,17.2-7.4C2027.9,282.4,2030.4,282.3,2032.8,282.8z"/>
		<path class="st0" d="M1955.9,207c1-1.7,0.4-3.6,0.8-5.4c2.4-10.3,9.3-15.4,19-17.6c2.4-0.5,4.9-0.4,7.3-0.1
			c3.9,1.2,7.9,2.1,11.4,4.2c1.9,1.1,3.7,2.2,4.8,4.1c1.8,3.1,4.2,3.7,7.4,2.5c1.8,1,3.9-0.1,5.7,0.7c6.6,2,12.4,5.1,16.3,11.1
			c2.1,3.2,2.4,6.8,3.5,10.3c0.4,1.9,0.3,3.8,0.1,5.6c-3.8,16.2-15.8,24-30.1,29.1c-7.5,2.7-15.4,4.1-23.5,3.6
			c-1.5-0.1-2.8-0.1-3.9-1.5c-8-10-14.3-21-17.8-33.5c-0.5-1.7-0.4-3.5-0.9-5.1C1955.5,212.4,1955.6,209.7,1955.9,207z"/>
		<path class="st4" d="M1752.6,633.9c-1-2.7-1.9-5.5-2.9-8.2c3.5-1.7,7.3-1.8,11.1-1.9c17.6-0.3,34.1-4.9,49.2-14.1
			c4.6-2.8,8.7-6.1,11.2-11c2.9-5.4,3.2-10.9,0.8-16.5c-1.1-2.6-2.9-3.7-5.8-3.2c-2.9,0.5-5.9,1.1-8.9,1.1c-3.9,0.1-6.3-1.5-6.3-4.2
			c-0.1-2.6,2.3-4.6,5.8-5.2c12-1.9,23.8-4.4,35-9.1c10.8-4.5,20.4-10.8,28.5-19.3c3.8-1.7,7.5-3.4,11.3-5.1
			c-1.5,8-7,13.2-12.8,18.1c-11.9,9.9-25.8,16-40.9,20.2c2,3.4,3.8,6.5,4.2,10.2c0.5,3.2,0.5,6.5,0,9.7
			c-3.3,12.7-12.9,19.5-23.7,25.2c-12.1,6.3-25.2,9.2-38.5,11.4c-1.9,0.3-3.8,0.2-5.7,0.2c-2.9,0.9-6-0.4-9,0.7
			C1754.3,633.1,1753.3,633,1752.6,633.9z"/>
		<path class="st4" d="M1902.1,420.7c3.8-1.4,7.6-2.7,11.3-4.1c6.5,3.8,12.4,8.2,16.5,14.7c7.7,12.1,7.5,24.3,0.1,36.3
			c-8.9,14.5-22.4,24-36.8,32.5c-5.6,3.3-11.5,6.1-17.6,8.4c-1.3,0.5-2.9,1.2-1.1,2.8c5,4.4,6.9,10.5,8.7,16.6c-2.5,1.7-5.2,3-8.1,4
			c-1-0.9-0.9-2.2-1.1-3.4c-0.6-4.9-3.1-8.6-6.6-11.8c-2.3-2.1-4.9-2.7-7.9-1.5c-3.4,1.4-7.1,2-10.6,2.9c-1.2,0.3-2.4,0.6-3.6,0.5
			c-2.3-0.3-4.2-1.2-4.5-3.9c-0.3-2.5,0.6-4.3,3.1-5.1c5.3-1.8,10.8-2.9,16.1-4.5c21.5-6.7,40.9-17,56.5-33.6
			c5.1-5.4,9-11.6,9.8-19.3c1.4-12.5-5-20.6-15-26.7C1908.4,423.6,1904.9,422.8,1902.1,420.7z"/>
		<path class="st5" d="M1536.4,789.2c-1.7-10.5,0.2-20.8,1.2-31.1c0.2-1.6,0.4-3.2,0.6-4.8c5.6,1.1,11,3,16.5,4.7
			c-3,0.6-18,14.3-18.1,17.1C1536.3,779.7,1536.5,784.5,1536.4,789.2z"/>
		<path class="st5" d="M1639.3-140.9c-15.2,0-30.4,0-45.6-0.1c0.8-0.7,1.7-0.6,2.7-0.6c13.4,0,26.9,0,40.3,0
			C1637.6-141.6,1638.6-141.7,1639.3-140.9z"/>
		<path class="st5" d="M1926.9,215.9c0-4.6,0-9.2,0-13.8C1927.9,206.7,1928,211.3,1926.9,215.9z"/>
		<path class="st5" d="M1810.7,89.2c-4.6,0-9.2,0-13.8,0C1801.5,88.2,1806.1,88.2,1810.7,89.2z"/>
		<path class="st5" d="M1683.6,868.2c0-4.1,0-8.1,0-12.2C1684.7,860.1,1684.7,864.2,1683.6,868.2z"/>
		<path class="st5" d="M1638.4,856c0,3.8,0,7.6-0.1,11.4C1637.4,863.6,1637.2,859.8,1638.4,856z"/>
		<path class="st5" d="M2089.3,335.9c0-3.5,0-7,0-10.5C2090.4,328.9,2090.4,332.4,2089.3,335.9z"/>
		<path class="st5" d="M1832.1,595.5c0-3.2,0-6.5,0-9.7C1833.2,589.1,1833.3,592.3,1832.1,595.5z"/>
		<path class="st5" d="M1975.8,487c0-3.2,0-6.5,0-9.7C1976.9,480.5,1976.9,483.7,1975.8,487z"/>
		<path class="st5" d="M1755.2,633.1c2.9-1.5,6-0.4,9-0.7C1761.3,634,1758.2,632.7,1755.2,633.1z"/>
		<path class="st5" d="M1959.3,463.1c-3,0-5.9,0-8.9,0C1953.4,462.1,1956.3,462.1,1959.3,463.1z"/>
		<path class="st5" d="M1955.9,207c0,2.7,0,5.4,0,8.1C1954.9,212.4,1954.9,209.7,1955.9,207z"/>
		<path class="st5" d="M1578.2,932.1c2.7,0,5.4,0,8.1,0C1583.5,933.1,1580.9,933.1,1578.2,932.1z"/>
		<path class="st5" d="M1588.9-140.7c-2.5,0.7-5,0.6-7.5,0.6C1583.8-141.4,1586.4-140.5,1588.9-140.7z"/>
		<path class="st5" d="M1640.9,767.8c2.4-0.8,4.9-0.7,7.4-0.6C1645.9,768.5,1643.4,767.6,1640.9,767.8z"/>
		<path class="st5" d="M1983,184c-2.4,0-4.9,0-7.3,0.1C1978.1,182.9,1980.6,183,1983,184z"/>
		<path class="st5" d="M1610,767.2c2.5-0.1,5-0.2,7.4,0.6C1614.9,767.6,1612.4,768.5,1610,767.2z"/>
		<path class="st5" d="M2032.8,282.8c-2.4,0-4.9,0-7.3,0C2028,281.8,2030.4,281.7,2032.8,282.8z"/>
		<path class="st5" d="M1681.7-17.5c2.4-0.8,4.9-0.7,7.4-0.6C1686.7-16.9,1684.2-17.8,1681.7-17.5z"/>
		<path class="st5" d="M1650.7-140.2c-2.3,0.1-4.5,0.2-6.7-0.6C1646.3-140.5,1648.6-141.4,1650.7-140.2z"/>
		<path class="st5" d="M1644.2-6.3c-2.2,0.1-4.5,0.1-6.6-0.5C1639.8-6.7,1642.1-7.5,1644.2-6.3z"/>
		<path class="st6" d="M1978.4,503.6c0.3-1.2,0.5-2.4,0.9-4.1C1979.9,501.4,1979.9,502.6,1978.4,503.6z"/>
		<path class="st5" d="M1615.1-6.8c-2.2,0.7-4.5,0.7-6.7,0.5C1610.5-7.5,1612.8-6.7,1615.1-6.8z"/>
		<path class="st5" d="M1559.4,888.6c0.7,2.2,0.6,4.4,0.6,6.6C1558.7,893,1559.6,890.7,1559.4,888.6z"/>
		<path class="st5" d="M1694.8-18.4c1.8-1,3.8-0.6,5.8-0.6C1698.7-17.7,1696.7-18.6,1694.8-18.4z"/>
		<path class="st5" d="M2032.2,222.5c0-1.9,0-3.8-0.1-5.6C2033.2,218.7,2033.1,220.6,2032.2,222.5z"/>
		<path class="st5" d="M1559.9,871.6c0,1.9,0.1,3.9-0.6,5.7C1559.6,875.4,1558.8,873.4,1559.9,871.6z"/>
		<path class="st5" d="M1605,877.3c-0.6-1.9-0.7-3.8-0.6-5.8C1605.6,873.4,1604.8,875.4,1605,877.3z"/>
		<path class="st5" d="M2012.4,195.4c-1.9-0.2-3.8-0.4-5.7-0.7C2008.6,195,2010.6,194.1,2012.4,195.4z"/>
		<path class="st5" d="M1673.7,811.9c-1.8,1.1-3.8,0.6-5.7,0.6C1669.8,811.3,1671.8,812.1,1673.7,811.9z"/>
		<path class="st5" d="M1604.4,894.3c-0.1-2,0-4,0.5-5.9C1604.9,890.4,1605.6,892.5,1604.4,894.3z"/>
		<path class="st5" d="M1629.6-18.1c1.6,0,3.2,0,4.8,0C1632.8-17.1,1631.2-17.2,1629.6-18.1z"/>
		<path class="st5" d="M1723.6,768.6c0-1.7,0-3.4,0.6-5C1724,765.3,1724.8,767.1,1723.6,768.6z"/>
		<path class="st5" d="M1639.2,846.2c0,1.4,0.1,2.8-0.6,4.1C1638.7,849,1638.1,847.5,1639.2,846.2z"/>
		<path class="st5" d="M1660.5-139.4c-1.4,0.1-2.9,0.1-4.2-0.5C1657.7-139.8,1659.2-140.4,1660.5-139.4z"/>
		<path class="st5" d="M2019,368c1.4-0.1,2.8-0.1,4.1,0.6C2021.7,368.5,2020.2,369.1,2019,368z"/>
		<path class="st5" d="M2062.2,300.7c-1.5,0.1-2.9,0-4.3-0.6C2059.3,300.2,2060.9,299.6,2062.2,300.7z"/>
		<path class="st5" d="M1620.6-18.9c1.4-0.1,2.8-0.2,4.1,0.6C1623.3-18.5,1621.9-17.9,1620.6-18.9z"/>
		<path class="st5" d="M1682.8,878c0-1.4-0.1-2.8,0.6-4.1C1683.3,875.3,1683.9,876.8,1682.8,878z"/>
		<path class="st5" d="M1598.6-21.4c1.4-0.1,2.9-0.1,4.2,0.6C1601.3-20.9,1599.8-20.3,1598.6-21.4z"/>
		<path class="st5" d="M1612.4-19.8c1.4-0.1,2.8-0.2,4.1,0.6C1615.2-19.3,1613.7-18.7,1612.4-19.8z"/>
		<path class="st5" d="M1669.5-138.5c-1.4,0.1-2.9,0.1-4.2-0.6C1666.7-139,1668.2-139.6,1669.5-138.5z"/>
		<path class="st0" d="M1206.7,376c-14.5-0.3-28.7-2.4-41.9-8.9c-9-4.4-15.6-11.3-19.3-20.7c-5.5-14.3,3.3-30.7,19.5-36.4
			c2.3-0.8,4.8-1.9,7.1-1.7c4.5,0.2,6.6-2.2,9.1-5.3c7-8.9,16.3-13.9,27.7-12.2c11.9,1.8,20.1,8.7,24.2,20.4c3.8,10.8,2.9,21.4,0,32
			c-2.7,9.9-7.4,18.9-12.9,27.6c-2.6,4.1-5.5,6.1-10.3,5.3C1208.9,375.8,1207.8,376,1206.7,376z"/>
		<path class="st0" d="M1239.4,200.5c3,0.9,5.8-0.6,8.9-2.7c13.3-8.8,29.1-5.8,36.4,7.1c4.6,8.1,4.6,16.9,1.8,25.7
			c-4.4,13.5-13.5,23.6-24,32.8c-1.2,1.1-2.5,1-3.8,0.7c-13.7-3.3-26.7-8.1-37.5-17.7c-7.3-6.5-11.9-14.4-11-24.3
			c1.1-12.1,11.8-21.2,24.3-21.6C1236,200.4,1237.3,200.5,1239.4,200.5z"/>
		<path class="st4" d="M1501.2,620.9c-1,2.8-1.9,5.5-2.9,8.3c-1.6-1.7-3.3-0.1-5-0.1c-22.4,0.1-44-2.9-64.1-13.6
			c-6.7-3.6-12.5-8.2-16.9-14.4c-5.9-8.3-6.4-17.4-2-26.5c1.3-2.7,0.6-3.5-1.9-4.1c-15.4-4-29.1-11.2-40.8-21.9
			c-6.6-6.1-11.3-13.5-10.8-23.2c2.7,1,5.5,2,8.2,3c6.8,19,23.5,25.6,40.2,32.2c8,3.2,16.5,4.4,25,5.9c1.5,0.3,2.9,0.6,4.4,0.9
			c2.8,0.7,4.3,2.3,3.9,5.2c-0.3,2.7-2.4,4.3-5.6,4c-2.8-0.2-5.7-0.5-8.5-1.3c-3-0.8-4.9,0.4-6.3,3c-3.4,6.2-1.9,14.5,3.7,20.7
			c6.7,7.4,15.5,11.5,24.6,14.7c16.2,5.7,32.9,8.3,50.1,6.2C1498.2,619.7,1499.9,619.6,1501.2,620.9z"/>
		<path class="st4" d="M1365.9,402.8c1.6,2,2.4,4.3,3.3,6.6c-1.5,2.1-3.8,1.7-5.9,1.9c-14.3,1.3-27.8,4.9-39.6,13.6
			c-11.1,8.2-13.8,22.2-6.8,34.1c5.8,10,14.4,17.3,23.8,23.7c15.1,10.3,31.6,17.4,49.5,21.3c1.7,0.4,3.5,0.7,5.1,1.3
			c2.4,0.9,4.1,2.3,3.7,5.1c-0.3,2.5-2.9,4.3-5.8,4c-3.8-0.4-7.4-1.5-11.1-2.6c-6.7-1.9-8.9-1.1-13,4.8c-0.9,1.3-1.7,2.8-3.2,3.6
			c-2.6-0.6-5.1-1.6-7.5-2.9c1.3-2,2.5-4.2,4-6.1c4.3-5.7,4.3-5.6-2.4-8.5c-16-6.8-30.5-16.1-42.4-28.9c-7.2-7.7-12.9-16.4-13-27.7
			c0-12.7,5.6-22.4,15.7-29.6c10.6-7.6,23-10.6,35.6-13C1359.2,403.1,1362.5,402.7,1365.9,402.8z"/>
		<path class="st7" d="M1125.2,119.9c6.6,3.1,12.3-1.6,18.2-7.4c7.1-6.9,16.2-8.8,25.7-5.1c10.6,4.2,15.2,12.9,16.4,23.8
			c1.1,9.7-1.9,18.5-5.9,27c-4.9,10.6-11.9,19.7-19.8,28.2c-1.5,1.6-3,2-5.1,1.5c-14.7-3.5-29.2-7.4-41.9-16.1
			c-6.8-4.7-12.4-10.4-16.1-17.9c-6.2-12.7,0.5-24.1,9.2-29.6C1111.1,121.1,1116.7,119.1,1125.2,119.9z"/>
		<path class="st8" d="M1311.3,287.8c-8.6-21.3-3.8-47.7,11.4-62.5c6.7-6.6,15-10.1,24.2-11.7c5.1-0.9,6.3-3.5,3.6-8
			c-9.5-15.9-9.6-33-4.8-50.1c8.3-29.1,25.9-51.2,52.6-65.5c22-11.8,45.1-12.9,68.6-5.1c5.2,1.7,5.7,1.4,8.4-3.2
			c14-24.1,33.6-42.5,57.8-56c16.2-9.1,33.4-15.9,51.5-19.9c14.2-3.2,28.7-3.9,43.3-3.9c29.5-0.1,57.5,5.8,83.6,19.4
			c31,16.1,54.9,39.6,70.8,71c3.5,6.9,3.5,6.9,10.9,6.2c22.7-2.2,43.7,3.3,63,15.1c23.6,14.4,41.6,33.9,53.4,58.9
			c6,12.7,9.5,26,8.7,40.2c-0.4,8-2.5,15.5-6.5,22.4c-3.1,5.3-2,7.7,3.8,8.6c5,0.8,8.1,4.3,10.8,8.1c4.8,6.7,7.1,14.5,8,22.4
			c1.9,16.6-0.1,32.6-11.2,46.2c-1.3,1-2.7,1.1-4.3,0.8c-12.1-2-24.1-4.2-35.4-9.4c-6.3-2.9-11.8-6.7-16.2-12
			c-6.5-7.9-7.5-17-5.6-26.6c1.1-5.7,1.3-5.7-4.4-6.8c-37.2-7.5-65.1-28.3-85.1-60.2c-9.1-14.6-16.2-30.2-21.4-46.6
			c-1.9-5.8-1.8-5.7-7.1-2.1c-28.3,19.1-58.8,32.9-93.1,37.3c-14.4,1.9-28.7,1.2-43-1c-32.9-5.1-61.3-20-87.6-39.5
			c-6.9-5.1-6.1-5.5-9,2.6c-8.4,23-18.8,44.9-34.9,63.7c-14.5,17-32.6,27.8-54.7,31.3c-5.9,0.9-12,0.2-17.9,0.3
			c-2.3,0-3.9,0.4-4,3.3c-0.8,21.2-13.2,33.4-34.6,36.5c-17.5,2.6-34.7,0.2-51.8-3.2C1312.5,288.6,1311.9,288.2,1311.3,287.8z"/>
		<path class="st9" d="M1376.4,323.9c5.7-0.6,11.3-1.4,16.8-3.2c18.4-6,28.5-19.1,28.8-38.4c0.1-3.7,1.1-4.3,4.6-4.4
			c21-0.6,41.3-4.5,59.7-15.5c22-13.1,33.9-33.4,40.4-57.5c0.4-1.4,0.8-2.8,1.3-4.7c4.1,2.9,7.9,5.7,11.7,8.4
			c19,13.1,39.3,23.1,61.9,28.1c26.1,5.8,51.7,4.2,77.2-3.9c18.5-5.9,35.8-14.2,52.3-24.4c2.7-1.7,3.2-0.8,4,1.6
			c7.7,22.5,19.6,42.3,37.2,58.6c15.9,14.6,34.7,24.2,55.1,30.6c1.8,0.6,3.1,0.9,3.2,3.3c0.8,19.1,11.3,31.6,27.7,40.1
			c6.5,3.4,13.5,5.5,20.4,8.1c0.8,2,0.2,4,0.3,6c0.1,0.9-0.3,1.7-1.2,1.8c-3.1,0.4-4,3-5.3,5.2c-17,30-40.9,53.6-69.1,72.7
			c-37,25.1-78.3,40-122.5,46.8c-13.2,2-26.5,2.8-39.7,4.1s-26.4,1.3-39.5,0.5c-36.3-2.2-71.8-8-105.3-23.3
			c-22.2-10.1-42.7-22.7-61.1-38.7c-20.4-17.7-37.1-38.5-51.1-61.6c-6.9-11.4-13.2-23.1-18.5-35.4c-1.9-4.4-1.6-4.8,3.1-4.9
			C1371.3,324.1,1373.9,324.5,1376.4,323.9z"/>
		<path class="st10" d="M1376.4,323.9c-2.8,1.4-5.9,0.5-8.8,0.6c-2.1,0.1-2.7,0.5-1.8,2.6c8.8,19.8,19.3,38.5,32.1,56.1
			c8.6,11.9,17.9,23.2,28.5,33.3c20.3,19.4,43.3,35,69.1,46.6c19.7,8.8,40.1,15,61.2,18.8c9.8,1.7,19.8,2.6,29.7,3.8
			c14.2,1.7,28.4,1.4,42.7,1.3c12.6-0.1,25-1.9,37.6-3c16.7-1.6,33.2-4.8,49.4-9.2c24.2-6.5,47.2-16,69.1-28.2
			c22.6-12.6,42.4-28.7,60.1-47.5c11.2-11.9,20.6-25.1,28.5-39.4c0.7-1.3,1.2-2.8,3.3-2c1.5,0.5,1.5-0.6,1.5-1.6
			c0.1-1.8,0.1-3.5,0.1-5.3c2.1,4.5,0.1,9.1-0.2,13.5c-1.8,27.2-11.2,51.6-27.5,73.3c-14.5,19.2-32.7,34.4-52.9,47.3
			c-29.3,18.6-61.2,30.4-95,38.6c-29.8,7.2-59.7,8.2-89.8,6.8c-61.1-2.7-118.5-18.1-169.3-53.6c-24.4-17-46-36.9-61.6-62.6
			c-15.3-25-22-52.1-20.3-81.3c0.5-8.9,0.6-8.9,9.7-8.9C1373.2,323.8,1374.8,323.8,1376.4,323.9z"/>
		<path class="st11" d="M1311.3,287.8c6.7,0.9,13.4,1.9,20,2.8c16.1,2.1,32.2,2.8,47.6-3.7c10.4-4.4,16.3-12.7,18.7-23.6
			c0.6-2.9,1.3-5.8,0.9-8.9c-0.4-2.8,1.1-3.4,3.6-3.3c9.7,0,19.5,0.5,29.1-2.3c17.9-5.2,32.4-15.1,44.5-29.3
			c16.9-19.9,27.5-43.1,36-67.4c1.5-4.4,1.6-4.5,5.3-1.6c13.9,10.9,28.8,20.3,44.8,27.9c15.8,7.5,32.3,12.4,49.6,14.9
			c10.1,1.4,20.3,2.2,30.4,1.4c18.8-1.6,37.1-5.7,54.7-12.9c17.3-7.1,33.5-16,48.9-26.6c4.3-3,4.3-2.9,5.8,1.8
			c6.2,19.4,14.4,37.8,26,54.6c20.3,29.3,47.7,48,83.2,54.2c3.6,0.6,4.3,1.9,3.3,5.3c-5.6,19.7,4.6,32.5,20.5,39.8
			c12.5,5.7,25.7,8.3,39.2,9.7c-3.9,6.7-9.6,11.8-15.1,17c-1.5,1.4-3,1.8-5.2,1.2c-6.4-1.7-13.6-2.5-19.2,0.3
			c-6.8,3.5-11.6,0.5-16.9-1.7c-7.9-3.2-14.8-8.1-20.1-14.9c-5.2-6.6-7.7-14.3-7.5-22.7c0.1-5.4-0.8-6.4-5.7-7.8
			c-16-4.4-31-11-44.4-20.8c-18.4-13.4-32.1-30.7-41.2-51.6c-2.3-5.3-4.3-10.8-6.3-16.3c-2.2-6.1-6.9-7.8-12.4-4.3
			c-20.2,13.1-41.9,22.9-65.4,28.5c-31.3,7.5-61.4,3.4-90.5-9.5c-16-7.1-30.5-16.6-44-27.7c-4.4-3.6-8.2-2.2-9.2,3.4
			c-2.5,12.9-6.7,25.1-13.8,36.3c-12.3,19.4-30.2,30.3-52.1,35.6c-11.3,2.7-22.7,4-34.2,4c-5.5,0-6.1,0.7-6.1,6.1
			c-0.1,9.8-1.2,19.2-7.8,27.2c-4.5,5.4-10.5,8-16.9,10c-7.9,2.4-16,2.8-24.2,2.5c-1,0-1.8-0.1-2.7-0.7c-8.1-5.8-17.4-5.6-26.6-4.5
			c-2.8,0.3-5,0.1-7.3-1.4C1320.3,303.8,1314.7,296.8,1311.3,287.8z"/>
		<path class="st12" d="M1700.5,532.8c3.8,10.8,9.3,20.8,13.8,31.3c12,28.2,25.1,55.9,34.3,85.3c7.2,23,13,46.4,17.1,70.1
			c0.4,2.2-0.6,3.3-2.3,4.2c-19,10-38.8,18.3-59.4,24.5c-13.6,4.1-27.5,7.1-41.6,8.8c-17.8,2.2-35.6,2.5-53.6,1.1
			c-24.7-1.9-48.7-7-72.1-14.9c-16.1-5.4-31.5-12.5-46.9-19.5c-2.5-1.2-3.5-2.8-3.1-5.4c1.4-8.5,2.7-17.1,4.1-25.6
			c1.8-0.4,2.8,0.8,3.8,1.9c16.1,16.2,36.2,24.7,58.1,29.7c15.6,3.6,31.4,4.5,47.3,5.9c27,2.4,52.5-2.8,77.5-12.1
			c9.1-3.4,17.4-8.1,25.4-13.7c7.2-5,9.8-12.1,10.4-20.3c1.3-17.3-1.3-34.1-7-50.5c-8-23-16-46-25.2-68.5c-2.7-6.6-7.1-10-14.3-10.9
			c-15.8-2-31.7-2.6-47.6-3.3c-15.3-0.7-30.7-1.4-45.7-5.5c-6.5-1.8-12.6-4.2-18.3-7.8c-1.2-0.8-2.8-1.3-2.5-3.3
			c0.3-0.7,0.5-1.5,0.8-2.2c7.3,1.1,14.7,2,22,3.2c9.1,1.5,18.3,2.1,27.4,3c15,1.4,30.1,1.1,45.2,0.9
			C1665.8,539,1683.3,536.6,1700.5,532.8z"/>
		<path class="st13" d="M1365.9,520.4c1.6-4.3,4.6-7.6,8.3-10.1c1.3-0.9,2.6-0.9,4.2-0.4c4.5,1.3,9.1,2.7,13.7,3.6
			c3.2,0.6,5.3-0.1,6-3.1s-2-3.9-4.3-4.3c-11.5-2.3-22.5-5.8-33.1-10.8c-16-7.5-30.8-16.7-41.6-31c-8.6-11.4-10.5-24.5,0-36.7
			c4.9-5.6,11.7-8.8,18.5-11.4c8.9-3.4,18-5.8,27.6-5.9c1.3,0,2.6-0.5,4-0.8c5.1,8.6,10.6,17,16.3,25.3c-3.7,3.4-7.4,6.7-9.2,11.6
			c-4.8,12.9-1.5,24,7.5,33.8c9.4,10.2,21.4,15.9,34.2,20.5c5,1.8,10.1,3.2,15.2,4.4c1.7,0.4,4.1,0.4,4.3,2.4
			c0.3,2.2-2.3,2.2-3.8,2.8c-4.7,1.8-9.2,3.9-13.3,7c-4.6,3.5-8.2,7.5-8.7,13.6c-0.1,1-0.3,1.9-1,2.6
			C1395.4,530.5,1380.4,526.2,1365.9,520.4z"/>
		<path class="st13" d="M1902.1,420.7c17.9,4.1,32.3,21.1,22.6,40.9c-5.2,10.6-14,17.8-23.3,24.5c-15.9,11.5-33.7,18.9-52.9,23
			c-5.6,1.2-7.7,2.8-6.6,5.7c1.8,4.8,5.5,2.4,8.5,1.7c2.8-0.6,5.5-1.3,8.2-2.2c5.6-1.8,8.7-0.9,12.2,3.9c2.9,4,5.2,8.3,4.4,13.5
			c-14.3,7-29.1,12-44.9,14.1c-1-2.7,0.7-5,1.4-7.4c3.2-10,1.1-16.5-7.2-22.8c-4.5-3.4-9.7-5.5-14.8-7.5c-1.2-0.5-3.1-0.6-2.9-2.2
			c0.1-1.5,2-1.7,3.2-2c12-3,23.8-6.7,34.7-12.8c10.8-6,19.8-13.8,24.4-25.7c3.6-9.3,1.7-17.8-3.6-25.9c-0.9-1.3-2.3-2.4-2.5-4.1
			c3.1-5.7,6.3-11.3,9.4-17c0.7-1.3,1.2-2.3,3-1.3C1883.9,421.8,1893,421.3,1902.1,420.7z"/>
		<path class="st14" d="M1544.7,529.6c-4.6,8.7-9.3,17.5-13.9,26.2c-9,17.1-17.1,34.6-24.4,52.4c-0.5,1.2-1.2,2.4-1.7,3.6
			c-5.5,2.5-11.4,2.6-17.2,2.6c-9.1-0.1-18.1-1.9-26.8-4.9c-8.7-3.1-16-8.3-16.6-18.6c-0.4-7,1.1-13.8,5.5-19.6
			c0.5-0.6,1.3-1.1,1.1-2.3c-7.6-1.3-15.1-2.9-22.4-5.6c-8-2.9-16.3-14.4-15.9-21.9c8.4,1.1,16.8,2.7,25.3,3.6
			c20.7,2,41.1,1.2,61.5-2.9c13.9-2.8,27.3-6.8,40.3-12.4C1541.3,529.2,1542.9,529.3,1544.7,529.6z"/>
		<path class="st14" d="M1863.1,435.6c7.1,5.8,10.8,18.3,8.3,27c-4,13.7-13.5,22.5-25.3,29.3c-11,6.3-23,10.2-35.3,13.2
			c-1.1,0.3-2.2,0.7-3.7,1.2c7.3,2.7,14,5.4,19.9,10c6.3,5,9.2,13,6.7,20.6c-1,3.1-2.1,6.2-3.1,9.2c-14,2.8-28.1,3.2-42.2,2
			c-22.9-1.9-44.8-8.1-65.8-17.4c-1.2-0.5-2.7-0.6-3.4-2.3c18.5-4.9,36.3-11.3,53.4-19.5c35.7-17.1,66.9-39.9,90.1-72.6
			C1862.6,435.9,1862.8,435.8,1863.1,435.6z"/>
		<path class="st14" d="M1410.8,533.4c-0.7-11,6.9-16.2,15-20.7c3.6-2,7.6-3.3,12.2-5.3c-4.6-1.2-8.5-2.1-12.3-3.2
			c-15.9-4.9-31.2-10.9-42.9-23.5c-10.7-11.5-13.2-28-3.8-40.9c1.8-2.4,3.9-4.1,6.7-5c10.9,13.1,22.7,25.2,36,35.9
			c32,25.9,68,44,107.6,55.4C1490.4,540.6,1450.9,542.3,1410.8,533.4z"/>
		<path class="st14" d="M1743.9,611.1c-7.3-16.9-14.8-33.8-22-50.8c-3.8-9-8.5-17.6-11.5-26.9c10.2,4.3,20.3,9,30.9,12.4
			c26.7,8.6,53.8,12.6,81.8,8.9c0.5-0.1,1.1,0,1.6,0c-0.6,4.6-4.3,6-7.7,7.3c-7.5,3-15.3,4.6-23.9,5.6c5.4,4.6,6.8,10.7,7.7,17
			c1.3,8.5-1.8,15.9-9.3,20c-13.5,7.4-28.2,9.4-43.4,7.9C1746.6,612.5,1745,612.2,1743.9,611.1z"/>
		<path class="st13" d="M1412.4,541.7c1.5,3.3,2.9,6.8,4.6,10c3,5.5,7.2,9.6,13.5,11.5c7.5,2.3,15,4.1,23.6,5.2
			c-5.8,4.7-7.4,10.6-8.5,16.9c-1.5,8.3,0.8,14.7,7.7,19.4c8,5.5,17.3,6.4,26.5,8.2c8.4,1.6,16.6-0.4,24.8-0.9c-1.1,3-2.3,6-3.4,9
			c-6.4,0.2-12.7,1.2-19.1,0.8c-18.6-1-36.5-4.9-52.5-14.8c-7.2-4.4-13-10.2-14.3-19.2c-0.8-5.1,1.2-9.2,4-13.1
			c0.9-1.2,2.1-1,3.3-0.8c3.4,0.7,6.9,1.3,10.3,1.9c2.3,0.4,4.1-0.2,4.6-2.7s-0.3-3.9-3.2-4.5c-9.5-1.9-19.2-3.1-28.5-6.4
			c-11.3-4-22.1-9-31.2-17c-5-4.4-9.6-9.3-9.6-16.7C1380.6,533.7,1396.3,538.4,1412.4,541.7z"/>
		<path class="st13" d="M1743.9,611.1c5.6,1.1,11.3,1.1,17,0.8c9.1-0.5,18-2.3,26.3-6.2c11.4-5.3,14.7-12.5,11.8-24.7
			c-1.7-7.1-2.4-8.4-8.1-13.9c4.8-0.9,9.4-1.5,13.9-2.6c7.3-1.8,15.1-2.7,19.8-9.8c8.9-1.5,17.9-3,26.5-5.8
			c6.4-2.1,12.8-4.3,19.2-6.5c-2.6,5.4-7.3,8.6-12.1,11.7c-15.8,10.5-33.6,15.4-52.2,17.7c-2.4,0.3-4.2,1.7-4.2,4.1
			c0,2.6,2,3.3,4.3,3.2c2.8-0.2,5.6-0.5,8.5-0.8c6.5-0.7,9.5,2.1,10,8.8c0.9,10.8-4.9,17.8-13.2,23c-15.9,9.9-33.3,14.8-52.1,14.7
			c-3.3,0-6.4,1.3-9.7,0.8C1747.8,620.9,1745.9,616,1743.9,611.1z"/>
		<path class="st9" d="M1310.2,356.5c-4.2-20.7,13.7-41,36.9-38c7.4,1,7.5,1.2,6.7,8.6c-1.2,10.3-0.7,20.6,0,30.9
			c0.8,2.1-0.6,3.1-2.2,3.5c-13,3.9-25.9,4.2-38.2-2.4C1311.9,358.4,1311.1,357.4,1310.2,356.5z"/>
		<path class="st9" d="M1884.2,386.5c2.2-12.5,3.8-25,3.3-37.7c-0.1-1.5,0.3-2.2,2-2.4c22-2.7,39.5,16.6,37.1,33.5
			c-11.6,8.4-24,14.4-38.9,10.3C1886,389.9,1883.4,389.6,1884.2,386.5z"/>
		<path class="st10" d="M1884.2,386.5c2.2,3.7,6,3.7,9.5,4c7.5,0.7,14.4-1.5,21.1-4.6c4-1.9,7.9-4,11.9-6c0.6,17-14,32.1-31.3,32.6
			c-5.5,0.2-10.8-0.5-15.8-3c-1.3-0.7-2.4-1.2-1.6-3C1880.6,400.2,1881.8,393.2,1884.2,386.5z"/>
		<path class="st9" d="M1277,501.7c0-6,3.3-9.9,8.4-12.4c9.9-4.8,25.4-1.6,32.7,6.6c4.1,4.6,4.3,11.8,0.5,16.3
			c-5.9,2.2-11.8,2.3-17.9,1.3c-7.3-1.2-14.1-3.6-20.1-8.1C1279,504.5,1277.7,503.4,1277,501.7z"/>
		<path class="st9" d="M1928.5,497.6c-1.3-8.8,4.3-17.8,12.2-22.4c4.9-2.8,9.5-4.4,15-4.8c8.7-0.7,15.8,7.2,11.9,17.4
			c-1.2,2-2.9,3.5-4.8,4.8c-8.9,5.8-18.6,8.5-29.2,7.7C1931.4,500.2,1929.6,499.6,1928.5,497.6z"/>
		<path class="st10" d="M1310.2,356.5c8.8,4.9,18.1,7.3,28.3,6.5c4.6-0.4,8.9-1.7,13.4-2.6c1.3-0.2,1.6-1.3,1.8-2.4
			c1.3,7,2.2,14.1,4.2,21c0.5,1.7-0.5,2.1-1.6,2.7C1337.4,391.1,1311.9,377.2,1310.2,356.5z"/>
		<path class="st10" d="M1928.5,497.6c7.9,3.4,15.6,1.6,23.3-0.8c5.9-1.8,10.9-5.4,15.8-9c-3.3,12.5-20.7,22.2-31.9,17.8
			C1931.9,504.2,1929.5,501.5,1928.5,497.6z"/>
		<path class="st10" d="M1277,501.7c9.1,7.6,19.6,11.5,31.5,11.4c3.4,0,6.6-1.3,10-0.8c-10.6,11.3-34.2,7.7-40.8-6.3
			C1277.1,504.6,1276.6,503.2,1277,501.7z"/>
		<path class="st15" d="M1552.8,534.3c5.7,5,12.7,7.7,19.8,9.7c12.2,3.4,24.6,4.6,37.3,5.1c15.1,0.6,30.3,1.5,45.4,2.5
			c5.1,0.3,10.1,1.6,15.2,2.2c6,0.7,9,4.7,11,9.5c6.5,15.1,11.9,30.5,17.5,46c3.5,9.7,6.8,19.5,10,29.2c3.4,10.3,4.9,21,5.6,31.8
			c0.4,5.7,0,11.3-0.5,16.9c-0.9,10.3-7.5,16.6-15.8,21.7c-18,10.9-37.7,16.8-58.2,20.6c-10.6,2-21.2,2.8-31.9,2.3
			c-24.7-1.2-49.4-3-73-11.3c-15.8-5.6-30.1-13.5-41.9-25.7c-0.7-0.8-1.6-1.4-2.5-2.1c1.7-11.8,4.4-23.4,7.7-34.8
			c6.5-22.8,14.5-45.1,24.6-66.7c8.6-18.5,17.9-36.6,27.7-54.4C1551.3,535.8,1551.7,534.8,1552.8,534.3z"/>
		<path class="st16" d="M1467.9-82.8c-2.1-6,0.1-11.3,3.4-16c6.7-9.4,16.7-14.1,27-18.2c21-8.3,42.9-12.7,65.1-15.5
			c25.4-3.3,51-3.4,76.5-2.2c38.9,1.8,77.2,7.6,114.1,20.8c16.1,5.8,32.1,12.1,45.1,23.8c5.6,5,10,10.7,9.9,18.8
			c-0.5,1.2-1.4,2-2.5,2.5c-16.3,8.2-33,10.6-50.4,3.6c-2-0.8-4.1-1.6-5.4-3.5c-0.1-0.3-0.2-0.5-0.2-0.8
			c1.8-11.1-4.6-17.8-12.8-23.5c-11.8-8.2-25.3-12.4-38.9-16.5c-17.5-5.2-35.5-8.5-53.7-9.4c-29.6-1.4-59.3-0.8-88,8.3
			c-8.3,2.6-16.5,5.5-23.4,11.1c-6,4.8-9.1,10.6-7.5,18.5c0.3,1.3,0.6,2.7,0.2,4c-0.6,1.9-2.1,2.8-3.8,3.3
			c-17.9,5.8-35.1,5.7-51.2-5.3C1470-80.1,1468.7-81.2,1467.9-82.8z"/>
		<path class="st17" d="M1467.9-82.8c7.2,5.1,14.7,9.9,23.7,11c10.8,1.3,21.6,0.9,31.9-3.3c1-0.4,1.9-1,2.4-2.1c1.3,0,1.9,1,2.5,1.9
			c5.6,8.6,14.1,13.3,23.1,17.4c21,9.4,43.3,14.4,66,17.2c20.7,2.5,41.4,2.3,62.2,0.3c15.2-1.5,30.2-4,44.6-9.2
			c10.2-3.7,19.9-8.2,25.5-18.4c0.3-0.5,0.8-0.7,1.3-0.9c17.2,9.5,34.6,8.2,52,0.5c2-0.9,3.9-2,5.8-3c-0.1,9-5.4,14.8-12.1,19.6
			c-12.1,8.6-26,13.3-40.2,17.2c-14.8,4.1-29.8,6.7-45,8.6c-6.8,0.9-13.7,1.5-20.6,2c-18.2,1.3-36.4,1.2-54.6,0.7
			c-10.4-0.3-20.7-1.8-31.1-3.1c-16.1-2-32.2-4.4-48-8.2c-19.7-4.7-39.1-10.4-57.4-19.1c-10.9-5.2-21.6-11-28.8-21.3
			C1469.6-77.4,1468-79.8,1467.9-82.8z"/>
		<path class="st9" d="M1569.3,898.4c-2.1-15.5-1.8-30.8,3.7-45.7c1.1-3,2.5-5.7,4.6-8.1c3.2-3.5,6.1-3.5,9.3,0
			c3.6,3.9,5.2,8.9,6.5,13.9c1,3.6,2,7.3,1.9,11.2c1.1,12.3-2.3,23.6-8.5,34.1c-3.2,5.3-8.1,5.6-12.7,1.5
			C1572,903.4,1570.3,901.2,1569.3,898.4z"/>
		<path class="st10" d="M1569.3,898.4c2,2.2,3.9,4.5,6,6.5c3.5,3.3,7.5,2.9,10.3-1.1c5.2-7.4,6.7-16,8.9-24.5
			c0.8-3.2,0.7-6.4,0.9-9.6c1.6,7.1,1,14.3,0.6,21.4c-0.4,8.4-2,16.7-5.7,24.4c-1.7,3.5-3.4,7.8-7.9,7.9c-4.8,0.1-6.5-4.4-8.2-8
			C1571.5,910.2,1569.8,904.5,1569.3,898.4z"/>
		<path class="st9" d="M1647.6,852.7c0.1-8.6,2.4-16.6,5.8-24.3c0.6-1.5,1.7-2.8,2.7-4.1c3.2-3.8,6.9-3.8,9.9,0.2
			c4,5.3,5.9,11.6,7.2,18c2.5,12.4,2.7,24.8,0.3,37.2c-5.8,8.3-14.7,7.9-19.4-0.9c-4-7.5-6.4-15.5-6.2-24.1
			C1647.9,854,1648,853.3,1647.6,852.7z"/>
		<path class="st10" d="M1647.6,852.7c1,4.7,2.1,9.4,3.1,14.1c0.8,4,2.4,7.7,4.2,11.4c3.6,6.9,8.5,8.3,14.9,4.1
			c1.2-0.8,2.4-1.7,3.6-2.6c-0.7,5.1-2,10.1-4.3,14.8c-1.8,3.6-3.2,8.1-8.1,8.2c-4.9,0.1-6.4-4.5-8.2-8c-3.1-5.9-4.3-12.3-5.1-18.8
			C1646.9,868.2,1646,860.5,1647.6,852.7z"/>
		<path class="st7" d="M2071.8,105.5c6.3-0.2,12.9,2.3,18.1,7.3c4,3.9,8,4.7,13.5,3.4c8.6-1.9,17.3-1.5,24.8,4.3
			c7.4,5.7,10.8,15.5,8.7,24.7c-3.1,13.3-12,22-23,28.8c-9.6,6-20.1,10.1-31.2,12.6c-2.2,0.5-3.7,0.2-5.4-1.4
			c-11.1-10.6-20.5-22.5-27-36.5c-4.7-10-6.1-20.7-1-31.1C2053.6,109,2061.1,105.4,2071.8,105.5z"/>
		<path class="st7" d="M2030.5,359.9c-6.6,2.2-10.2-2.1-13.1-8.8c-5.1-12.2-10.3-24.3-9.2-38c0.4-5.7,2.4-10.9,5.6-15.5
			c4.3-6.3,15.1-8.3,23.5-4.8c5.8,2.4,9.9,6.8,12.8,12.1c1.8,3.3,4.1,4.2,7.5,4.2c4.8,0,9.5,1,13.6,3.6c13.3,8.7,13,26.5-0.5,36.2
			C2059.1,357.5,2045.8,359.8,2030.5,359.9z"/>
		<path class="st7" d="M1983.4,246.5c-2,0.5-3.7-0.8-5.4-3.3c-6.1-8.9-11.6-18.1-13.4-28.9c-1.3-7.9,0.9-19.1,11.4-21.4
			c7.4-1.6,13.7,0.7,18.1,6.4c3.2,4.2,6.8,4.8,11.3,4.4s8.6,0.5,12.2,3.4c5.5,4.4,7.4,12,4.6,18.6c-3.3,7.8-9.6,12.2-17,15.4
			C1998.5,244.1,1991.6,245.8,1983.4,246.5z"/>
		<path class="st7" d="M1203.7,367.2c-11-0.2-21.6-2.2-31.8-6.2c-6.3-2.4-11.6-6.3-15.5-12.1c-10.3-15.3,2.8-29.9,14.9-31.7
			c0.3,0,0.5-0.1,0.8-0.1c6.8,0.2,11.6-2.2,15.5-8.4c4.7-7.5,12.5-11,21.5-9.1c10.2,2.1,15.1,9.7,17,19.2c2.4,11.7-1,22.6-5.6,33.2
			c-1.1,2.6-2.4,5.2-3.8,7.7C1212.7,367.4,1212.5,367.5,1203.7,367.2z"/>
		<path class="st7" d="M1236.3,208.9c7.1,2.3,12.3-0.7,18.1-4.7c10.9-7.6,23.9-0.3,24.9,12.9c0.8,10.5-3.6,19.2-10,26.8
			c-11.9,14.2-8.1,12.6-24.5,6.7c-7.8-2.8-14.7-7.1-20.4-13.1c-8.2-8.6-7.3-20.6,1.7-26C1229.4,209.7,1232.8,208.9,1236.3,208.9z"/>
		<path class="st0" d="M1666.7,463.5c-30.2-0.1-48.6-14.4-62.2-36.4c-6.9-11.2-11.6-23.3-15.5-35.8c-0.7-2.2-1.3-4.3,0.7-6
			c2.2-1.9,4.6-1.4,6.8-0.2c8,4.2,16.3,7.4,25.1,9.2c30.3,6.1,57.2-0.8,79.9-21.8c9.1-8.4,15.4-18.9,20.1-30.3
			c1-2.5,2.2-4.4,5.1-4.3c3,0.1,3.5,2.5,4.2,4.8c5.1,17,8.6,34.3,8.3,52.1c-0.4,18.3-5.1,35.2-18.8,48.4
			c-9.1,8.7-20.1,13.9-32.1,16.9C1680.4,461.9,1672.2,463.9,1666.7,463.5z"/>
		<path class="st18" d="M1786.5,359.7c-12-0.7-22.8-2.5-32.6-8.8c-8.6-5.6-12.3-16-7.3-22.9c4.7-6.5,11.6-10,19.2-11.4
			c13.2-2.4,26.4-2.3,39,3.1c5.1,2.2,9.5,5.5,12.7,9.9c5.9,8,2.7,18.1-7.4,23.8C1802.6,357.6,1794.2,358.9,1786.5,359.7z"/>
		<path class="st18" d="M1462,358.1c-12.1-1.1-24.5-3.1-34.1-12.7c-7.3-7.4-6.4-17.9,2.2-23.9c7.2-5,15.3-7,24.1-7.7
			c10.7-0.9,20.7,0.9,30.4,5.1c4.8,2.1,8.9,5.3,11.8,9.7c5.5,8.4,2.1,17.7-8,23.3C1480.3,356.4,1471.6,357.6,1462,358.1z"/>
		<path class="st0" d="M1730.7,313.6c0,2.5-3.4,4.4-6.7,2.6c-4.5-2.4-9-4.5-13.9-5.5c-12.5-2.7-22.9,1.5-32,10c-0.7,0.6-1.3,1.3-2,2
			c-2,2.1-4.2,1.9-6.1,0c-1.7-1.8-1.6-3.7,0.1-5.8c10.9-13.4,28.6-18.9,45.1-13.8c4.3,1.3,8.4,3,12.3,5.2
			C1729.2,309.3,1730.7,310.5,1730.7,313.6z"/>
		<path class="st0" d="M1543.6,303.2c13.1-0.6,23.6,4.4,33.1,12.3c0.6,0.5,1.2,1.1,1.7,1.8c1.6,2,1.8,3.9-0.2,5.8
			c-1.9,1.7-3.8,1.9-5.8,0.1c-14.5-13.3-30.9-14.1-48.5-7.6c-3,1.1-5.5,1.2-6.8-2c-1.3-3.3,1.1-5,3.8-6
			C1528.4,304.9,1536,302.7,1543.6,303.2z"/>
		<path class="st2" d="M1751.3-69c-4.4,11.1-14.3,15.6-24.3,19.6c-14.8,5.8-30.5,8.2-46.3,10c-15.9,1.8-31.8,2.1-47.6,1.2
			c-24.3-1.4-48.1-5.8-71-14.3c-9.4-3.5-18.6-7.4-26.7-13.6c-4-3.1-6.8-6.9-9.4-11.1c-3.1-12.9,0.3-20.2,12.7-27
			c12.8-7,26.8-10.2,41-12.9c21.3-4,42.8-4.3,64.1-3c30.4,1.9,60,7.9,87.5,21.7c5,2.5,9.6,5.6,13.6,9.5
			C1750.7-83.3,1753.3-76.9,1751.3-69z"/>
		<path class="st19" d="M1599.7,396.4c46.7,20,101.7,4.3,125.6-41.2c3.9,9,6.5,34.1,5.1,45.9c-1,8.2-2.7,16.1-6.6,23.4
			c-8.5,15.5-22.1,23.7-38.9,27.5c-9.2,2.1-18.5,3.2-27.9,2c-16.2-2.1-28.9-10.4-39-22.9C1609.8,420.9,1604.3,409.4,1599.7,396.4z"
			/>
		<path class="st19" d="M1621.3-114.8c35.3-0.3,66.5,4.8,96.5,16.5c8.5,3.3,16.8,7.1,23.3,13.8c7,7.2,6.8,14.6-0.9,21.1
			c-8,6.7-17.7,10-27.6,12.5c-38.3,9.5-76.9,9.9-115.6,2.1c-16.4-3.3-32.5-7.7-47.6-15.2c-5.5-2.7-10.7-5.9-14.9-10.5
			c-5.8-6.3-5.6-13.6,0.6-19.5c6.5-6.2,14.7-9.1,23-11.7C1579.8-112.6,1602-115.2,1621.3-114.8z"/>
	</g>
</g>
</svg>
