<?xml version="1.0" encoding="utf-8"?>
<!-- Generator: Adobe Illustrator 19.0.0, SVG Export Plug-In . SVG Version: 6.00 Build 0)  -->
<svg version="1.1" id="Camada_1" xmlns="http://www.w3.org/2000/svg" xmlns:xlink="http://www.w3.org/1999/xlink" x="0px" y="0px"
	 width="1062.1px" height="1082.5px" viewBox="1203.5 -144.8 1062.1 1082.5"
	 style="enable-background:new 1203.5 -144.8 1062.1 1082.5;" xml:space="preserve">
<style type="text/css">
	.st0{fill:#7F5537;}
	.st1{fill:#8F449B;}
	.st2{fill:#ADDEF1;}
	.st3{fill:#F2BF02;}
	.st4{fill:#C1E5F3;}
	.st5{fill:#774E3A;}
	.st6{fill:#C1E6F4;}
	.st7{fill:#D2EBF5;}
	.st8{fill:#A46BAA;}
	.st9{fill:#EC8151;}
	.st10{fill:#FEDAAB;}
	.st11{fill:#F6C28D;}
	.st12{fill:#EC6F3A;}
	.st13{fill:#A35BAA;}
	.st14{fill:#D7EDF5;}
	.st15{fill:#BEEDFE;}
	.st16{fill:#7D308E;}
	.st17{fill:#F6F7F7;}
	.st18{fill:#AAB9CA;}
	.st19{fill:#964CA0;}
	.st20{fill:#FEE595;}
	.st21{fill:#F2D369;}
	.st22{fill:#F4A29A;}
	.st23{fill:#FDFDFD;}
	.st24{fill:#f2e3fc;}
</style>
<g>
	<g>
		<path class="st0" d="M1593.8,481c-13.7-10.5-26.9-21.6-38.9-34.1c-20.9-22-38.4-46.2-48.7-75c-2.2-6.1-4-12.4-5.2-18.8
			c-0.4-2.3-0.7-3.6-4-2.9c-26.7,5.4-51.2-14.6-50.5-41.3c0.5-17.5,8.9-30.1,24.6-37.8c0.6-0.3,1.2-0.6,2-1
			c-8.1-8.5-13.3-18.4-14.9-29.8c-3.8-26.5,3.3-49.1,25.2-65.7c6.7-5.1,14.6-7.8,23-8.8c1.5-0.2,3,0.1,2.3-2.5
			c-6.9-25.1,0.7-47.5,14.8-67.8c16.4-23.6,38.5-40.1,67-46.7c21.5-5,42.4-2.9,62.3,7c2.3,1.1,3.3,1,4.9-1
			c25.1-29.5,57.5-46.2,94.9-54c23.9-5,48-5.7,72.1-1.8c53.1,8.7,96.2,33.8,126.9,78.6c8,11.7,14.1,24.5,18.5,38
			c1.4,4.2,3.1,5.7,7.8,5.9c20.1,0.6,37.7,8.7,53.6,20.5c28.6,21.2,47.3,49.3,55.4,83.9c4.7,19.9,3.7,39.5-7.5,57.5
			c-0.5,0.9-1.3,1.6,0.1,2.7c9,6.8,12.3,16.8,13.8,27.3c4.4,32.3-8.9,56.5-35,74.6c-1,0.7-2,1.3-3.1,2.1c8,7,12.9,15.5,14.9,25.8
			c4.7,25.5-17.8,51-43.6,48.8c-7.6-0.6-15-2.5-21.3-7.3c-1.2-0.9-2.1-1.6-3.2,0.2c-4.6,6.9-10.3,12.9-15.6,19.3
			c-1.1,3.5-4.3,5.2-6.8,7.4c-3.7,3.6-7.8,6.7-11.8,10c-24.8,18.6-52.6,31-82.3,39.4c-11,3.1-22.1,5.6-33.4,7.7
			c13.6,6.2,27,12.6,39.8,20.5c8.7,5.3,17.1,11.2,23.7,19.1c8.6,10.4,8.5,19.4-0.2,29.6c-2.2,1.5-4.1,3.4-6.3,4.9
			c-11.8,6.3-24.4,10.6-37.5,13.3c-2.7,0.9-5.6,0.5-8.3,1.3c-3.1,0.4-6.2,0.3-9.3,0.2c-3-0.2-4.9,0.9-6.5,3.6
			c-3.4,5.8-7.8,10.6-14.6,12.6c-14.7,4.7-27.2-7.9-27.4-21.6c-0.2-10.8,2.6-20.1,9.7-28c4-3.7,8.7-6.1,14.1-7
			c9.5-1.5,19.4,5.4,22.2,15.3c0.9,3,1.3,6.1,1.4,9.3c0,6.4,0.1,6.4,6.7,6.1c3.1-1.1,6.5-0.3,9.7-1c10.9-2.4,21.6-5.3,31.7-10.4
			c2.4-1.2,4.7-2.8,6.7-4.5c4.8-4,5.7-9.3,2.4-14.6c-3-4.9-7.2-8.8-11.9-12.2c-19.2-13.8-39.9-24.7-62.4-32.1
			c-3.1-1-6.4-1.4-9.6-1.1c-15.8,2.5-31.8,2.2-47.6,1.1c-32.3-2.2-63.7-9.6-94.7-18.5c-7.1-3.1-7.1-3.1-11.2,3.7
			c-2.9,4.8-6.4,9.3-9.6,13.9c-1.1,0.8-2,1.8-2.7,3c-9.9,12.5-21.9,22.2-36.6,28.4c-17.2,7.2-34.5,6.6-51.8,0.6
			c-9.6-3.4-18.9-7.8-27.3-13.6c-0.5-0.3-1-0.7-1.6-1.1c-4.5-2.9-8.8-5.9-12.8-9.4c-2.1-1.8-3.9-1.9-6.3-0.6
			c-15.1,8.2-29.2,5.4-41.6-5.1c-9.1-7.7-12-16.4-8.4-26.1c2.9-7.7,9-11.8,16.6-13.7c15.7-4,34.8,5.5,40.9,20.4
			c1.5,3.6,2.5,7.2,1.4,11.1c-0.5,2-0.2,3.7,1.5,5.1c16.2,13,33.6,23.7,54.4,27.3c14.5,2.5,27.7-0.9,40.2-8.3
			c13-7.7,23-18.5,31.6-30.8c2.2-2.6,3.7-5.8,5.7-8.6c1-1.5,0.6-2.5-1.1-3.1c-1.4-0.5-2.8-1-4.2-1.6c-22.6-9-44-20.2-63.8-34.3
			C1595.6,483.3,1594.2,482.6,1593.8,481z"/>
		<path class="st1" d="M1661.9,544c3.7-5.6,8-10.9,11.3-16.8c2.6-4.6,4.7-4.8,9.1-1.2c0.6,1.5-0.3,2.6-1,3.7
			c-2.2,3.2-3.9,6.7-5.7,10.2c-16.9,29.2-32,59.3-43.5,91.1c-7.8,21.7-13.7,43.8-18.1,66.4c-1,8.1-2.7,16.1-3.6,24.2
			c-0.3,3,0.7,4.5,3.2,5.8c28.8,14.4,58.8,25.2,90.5,30.7c12.1,2.1,24.2,3.5,36.5,4c7.6,0.7,15.2,0.7,22.7,0c10-0.7,20-1.7,29.9-3.3
			c14.1-2.3,28-5.7,41.6-10c16.6-5.3,32.4-12.5,48-20.4c3.4-1.7,4.3-3.9,3.6-7.5c-5.3-29.1-12.4-57.7-23.1-85.3
			c-0.8-2.1-2.2-4.2-0.7-6.6c2.6-1.5,5.7-0.2,8.3-1.5c3.4,4.1,4,9.4,6,14.1c1.7,5.1,3.2,10.2,5.3,15.2c0.3,2.5,2.1,4.7,1.1,7.4
			c5.2,19.5,9.8,39.1,13.7,58.9c1.5,7.7,1.3,8-5.8,11.8c-14.2,7.7-28.7,14.5-43.8,20c-0.6,0.2-0.8,0.8-1.2,1.2
			c-2.5,1.4-5.2,2.4-8.1,2.8c-7.3,0.8-14.1,3.7-21.2,5.4c-11.4,2.7-23,4.8-34.6,6.2c-3.1,0.4-6.1,0.8-9.2,0.8c-1.9,0.7-4-0.2-6,0.6
			c-10.3,0.4-20.7,0.4-31,0c-1.9-0.8-4,0.1-5.9-0.6c-3.8,0.1-7.6-0.1-11.3-1c-1.3-0.8-2.9,0.1-4.3-0.6c-13.8-1.3-27.2-4.3-40.5-8.1
			c-4.4-1.2-8.8-2.3-13.2-3.4c-3.3-0.4-6.3-1.5-9.1-3.2c-16-6.4-31.9-13.1-47.5-20.5c-1.5-0.7-3.3-1.4-4-3.2c-0.6-2-0.4-4-0.1-6
			c0.5-13.6,3.5-26.8,6.3-40.1c1.7-7.8,3.6-15.6,5.4-23.4c-0.4-3.2,0.9-6,1.5-9c1.5-3.4,2.3-7,3.4-10.5c8.1-24.9,18.2-48.9,30-72.1
			c3.9-7.6,7.4-15.5,12.5-22.4C1660.3,546.3,1661.1,545.1,1661.9,544z"/>
		<path class="st2" d="M1614.4,652.5c-0.1,3.1-1.1,6-2.2,8.9c-4.3-0.8-8.4,1.2-12.6,1.4c-14.7,0.7-29.5,1.7-42.1-8.1
			c-6-4.6-9.1-11-9.2-18.7c-0.1-5.1-0.4-5.3-5.3-4.5c-15.2,2.3-30.3,2.3-45-2.7c-11.6-4-19.7-11.2-21.1-24.2
			c-0.5-4.8,1.2-9.2,2.3-14.1c-6.9,0-13.5,0.3-20.2-0.1c-15.6-0.7-30.6-3.9-44.7-11c-20.8-10.6-26.7-32.7-13.8-52.3
			c8.3-12.7,19.9-21.7,32.7-29.4c20.9-12.6,43.9-19.1,67.9-22.5c13.5-1.9,27-2.1,40.6-0.9c2.8,0.3,5.7-0.8,8.5-0.6
			c13,0.6,25.8,3.1,38.4,6.5c1.7,0.4,3.4,1.1,5.2,0.8c13.9,9.5,28.1,18.5,43.3,25.8c7.9,3.8,16,7.3,24,10.9c1.9,1.9,4.9,2.7,5.5,5.8
			c-1.6,2.9-3.2,5.9-5.4,8.3c-8.9-8.7-18.5-16.4-29.1-22.8c-9.8-6-20.1-10.8-30.8-14.7c-18.5-6.5-37.6-9.9-57.1-11.4
			c-16.5-1.3-33-1.3-49.2,1.8c-25.3,4.9-49.5,13-70.1,29.4c-7.1,5.6-13.5,11.9-18.1,19.7c-7.6,13-4.8,26.4,7.3,35.3
			c4.1,3,8.6,5.2,13.4,6.9c17.8,6.2,36.2,6.9,54.8,5.5c6.8-0.5,13.5-1.9,20.1-3.1c0.9-0.2,1.9-0.3,2.8-0.3c2.6,0,4.6,0.9,5.3,3.5
			c0.7,2.8-1,4.5-3.3,5.4c-4.2,1.8-8.7,2.4-13.1,2.9c-4.3,0.5-6.5,2.8-7.6,6.8c-2.6,8.9,0,16.1,8,21c8.3,5,17.7,6.3,27.1,6.7
			c13.1,0.6,26-1.7,38.6-5.4c2.5-0.7,4.9-1.6,7.5-1.7c2.1-0.1,4.2,0.2,5,2.6c0.7,2.4-0.4,4.2-2.4,5.6c-1.8,1.2-4,1.8-6,2.4
			c-7.4,2.2-9.7,7.4-6.2,14.4c2,4.1,5.4,6.8,9.4,8.7c5.1,2.5,10.6,3.4,16.2,3.6c9,0.4,18,0,26.8-2.2
			C1611.7,652.1,1613.1,651.6,1614.4,652.5z"/>
		<path class="st3" d="M1765.9-140.6c47.1-0.2,89,7.3,130.3,19.5c29,8.6,57.1,19.4,83.2,34.8c12.2,7.2,24,15.1,33,26.3
			c3.9,4.8,7.1,10,8,16.3c1.9,12.3-3,21.5-13.3,27.9s-21.9,9.6-33.7,11.6c-28.6,4.8-57.3,5.1-86.2,2c-16.1-1.7-32.2-3.5-48-7
			c-40.9-9.1-80.8-21.3-117.7-41.8c-11.7-6.5-23-13.5-32.8-22.6c-5.5-5.1-10.4-10.7-13.3-17.9c-4.7-11.9-1.6-23.5,8.5-31.3
			c10.6-8.1,23.1-11.4,35.8-13.7C1736.4-139.4,1753-141,1765.9-140.6z"/>
		<path class="st4" d="M1883.4,664.1c-0.4-2.5-2-4.7-1.9-7.4c0.2-2.1,1.8-1.8,3-1.6c3,0.4,6,0.2,8.9,0.7c3.3,0.9,6.6,0.8,10,0.1
			c7.7-1.2,15.3-2.7,20.9-8.9c1.4-1.5,2.5-3.2,3.2-5.2c2.5-7.4,1.2-10.1-6.1-12.5c-2.3-0.8-4.8-1.1-6.9-2.5c-2-1.3-3.2-3.1-2.4-5.5
			c0.7-2.5,2.7-3.3,5.1-3.2c2.6,0.1,5,1.1,7.5,1.8c12.9,3.8,25.9,6.1,39.4,5.4c8.1-0.5,15.9-1.8,23.4-5.1
			c10.7-4.8,14.6-14.7,10-24.8c-1.1-2.3-2.5-3.7-5.1-4c-3.9-0.5-7.8-1.5-11.6-2.2c-1.3-0.3-2.7-0.5-3.9-1.2
			c-2.1-1.2-3.1-3.1-2.6-5.5c0.5-2.3,2.3-3.3,4.5-3.4c2.2-0.2,4.3,0.5,6.4,0.9c11.9,2.5,23.9,4.2,36,3.6c15.8-0.7,31.4-3,45.7-10.7
			c10.9-5.9,16.5-15.6,15-26.7c-1-8-5.3-14.5-10.6-20.3c-13.6-15-31-24.2-49.6-31.3c-12.6-4.8-25.8-7.7-39.1-9.9
			c-1.3-0.2-2.8-0.1-3.8-1.2c2.3-2.2,4.7-4.5,7-6.7c15.8,1.9,30.9,6.2,45.6,12.3c17.8,7.4,34,17.3,47,31.7
			c6.7,7.5,11.7,15.9,12.1,26.3c0.6,1.7,0.6,3.4,0,5.1c-0.3,10.7-5.9,18.4-14,24.5c-11.3,8.5-24.6,11.5-38.1,13.9
			c-3.8,0.7-7.7,1.1-11.6,1.6c-5.3-0.9-10.7-0.2-16-0.4c-1.7,0.2-3.6-0.4-5.3,0.4c2.5,7.2,3.4,14.3,0.3,21.7
			c-4,9.3-11.7,14-20.7,16.7c-14.9,4.5-30.1,4.4-45.4,1.9c-2-0.3-2.8,0.2-2.7,2.3c0.2,19.1-15.9,28.7-32.6,29.5
			c-3.9,0.5-7.7,0.5-11.6,0C1889.8,664.1,1886.6,664.1,1883.4,664.1z"/>
		<path class="st5" d="M1652,754.8c3.3,0.3,6.4,1.1,9.1,3.2c-2.9,15.8-4.3,31.6-0.7,47.4c4.4,19.5,16,33,40.5,32.3
			c10-0.3,15.4,4.5,19.3,12.6c6.4,13.2,7.7,27.3,7.3,41.7c-0.3,10.8-2.2,21.3-6.8,31.2c-1.5,3.2-3.3,6.2-5.5,9
			c-5.1,6.3-15.7,6.3-20.8,0c-6.2-7.8-9.3-16.8-10.8-26.5c-2.6-17.6-2.3-35,4.2-51.8c1-2.5,2.3-4.9,3.5-7.7
			c-2.6-0.6-5.3-1.2-7.8-1.9c-18.3-5.5-27.3-19.1-31.4-36.8c-3.6-15.4-2.5-30.8-0.5-46.2C1652,759.1,1652.2,757,1652,754.8z"/>
		<path class="st5" d="M1838.2,758.8c2.3-2.2,5.4-2.3,8.2-3.4c0.8,3,0.5,5.9,0.2,8.9c-0.2,11.3-2.2,22.2-7.1,32.3
			c-8,16.5-21.9,25-39.5,28.1c-2.3,0.4-3.1,0.7-1.8,3.2c8.2,15.3,9,31.9,7.9,48.8c-0.7,10.7-3.2,20.9-8.7,30.2
			c-2.8,4.7-6.3,8.8-12.5,9.3c-6.6,0.5-10.8-3-14-8c-5.4-8.4-7.9-17.8-9.1-27.6c-1.6-13.5-0.9-26.8,2.3-40.1
			c1.2-4.8,3.2-9.2,5.5-13.5c3.7-6.8,9-10.5,17.1-10c7.8,0.5,15.4-1.1,22.7-4.1c15.9-6.6,24-19.3,27.3-35.6
			C1837.9,771.3,1838.6,765.1,1838.2,758.8z"/>
		<path class="st6" d="M2009.8,591.3c5.7,0.4,11.5-1,17.2,0.8c-5.7,0-11.4,0-17.1,0c-0.3-0.2-0.4-0.3-0.3-0.5
			C2009.7,591.4,2009.7,591.3,2009.8,591.3z"/>
		<path class="st7" d="M1893,664.1c3.9,0,7.7,0,11.6,0C1900.7,665.3,1896.9,665.3,1893,664.1z"/>
		<path class="st8" d="M1846.6,764.4c-0.1-3-0.1-6-0.2-8.9c0.4-0.2,0.7-0.4,1.1-0.7C1846.5,757.9,1848,761.3,1846.6,764.4z"/>
		<path class="st8" d="M1600.5,725c0,2,0.1,4,0.1,6C1599.2,729.1,1599.7,727.1,1600.5,725z"/>
		<path class="st8" d="M1730.3,771.1c2,0,4-0.7,5.9,0.6C1734.2,771.8,1732.2,772,1730.3,771.1z"/>
		<path class="st8" d="M1767.3,771.7c1.9-1.3,4-0.6,6-0.6C1771.3,772.1,1769.3,771.8,1767.3,771.7z"/>
		<path class="st6" d="M2090.8,552.2c0-1.7,0-3.4,0-5.1C2091.9,548.8,2091.9,550.5,2090.8,552.2z"/>
		<path class="st7" d="M2009.8,591.3c0,0.3,0,0.5,0,0.8c-1.4,0-2.7,0-4.1,0C2006.8,590.3,2008.5,591.9,2009.8,591.3z"/>
		<path class="st8" d="M1714.8,769.5c1.5-0.1,3-0.6,4.3,0.6C1717.6,770.1,1716.2,770.3,1714.8,769.5z"/>
		<path class="st9" d="M1467.5,241.7c-4.3-19.5-1-37.2,12.2-52.6c8.7-10.2,20-15.1,33.4-15.3c5.5-0.1,7.6-2.6,5.8-6.9
			c-6.7-15.9-5.2-31.9,1.2-47.2c13.5-32,37.3-53,70.9-62.2c21.1-5.8,41.4-3,60.7,7.4c5.9,3.2,6.1,3.3,10.2-1.7
			c14.4-17.6,31.8-31.5,52.5-41c19.4-8.9,39.7-14.2,61.1-16c25.6-2.2,50.7,0.3,75.3,7.6c23.5,7,44.6,18.4,63.3,34.3
			c24.2,20.5,40.8,46,50,76.3c1.1,3.4,2.6,5.4,6.5,5.3c23.9-0.4,44.1,9.2,62.1,24.1c20.5,17,34.8,38.4,43.1,63.6
			c5.2,15.9,6.7,32.1,2.1,48.5c-1.9,6.6-5.2,12.5-9.4,18c-2.9,3.8-2.2,6.6,2.4,8c4.6,1.4,7.4,4.4,9.3,8.4c5.9,12.3,6,25.2,3.8,38.3
			c-2.1,12.1-8.2,22-16.9,30.4c-1.2,0.5-2.4,0.4-3.6,0c-13.4-4.2-26.7-8.8-38-17.4c-13.6-10.3-17.4-23.4-11.4-39.4
			c1.8-4.6,1.8-4.8-2.8-6.5c-17.8-6.4-33.5-16.4-46.9-29.6c-11.6-11.5-20.3-25.1-27.2-39.9c-8-17.2-12.6-35.3-15.7-53.9
			c-0.9-5.3-1-5.3-5.7-3c-23,11.5-47.2,19.2-72.6,22.3c-29.8,3.5-58.5-1.2-85.9-13.6c-24.5-11.2-45.3-27.4-63.7-46.8
			c-4.6-4.9-4.7-4.8-7.9,1.1c-10.5,19.4-22.8,37.5-38.7,52.8c-13.5,13-29.1,22.3-47.6,26.3c-11.4,2.4-22.7,2.2-34-0.5
			c-5-1.2-5.1-1.1-6.2,4c-3.6,17.1-16.1,28.3-34.2,29.2c-19.7,1-38.2-4.3-56.3-11.6C1468.1,242.4,1467.8,242,1467.5,241.7z"/>
		<path class="st10" d="M1514.1,285.9c7.4,0.7,14.8,1.9,22.3,1.8c22.8-0.2,37.1-11.9,41.2-34.3c0.5-2.9,1.1-4.1,4.5-3.6
			c16.8,2.2,33.5,2.1,50.2-2.2c25.7-6.7,44.1-22.2,56.3-45.4c2.2-4.2,4.1-8.6,6.3-13.3c4.6,4.5,9,9,13.6,13.2
			c24.3,22.4,52.3,37.4,85.2,42.4c18.9,2.8,37.7,1.8,56.3-2.3c14.9-3.2,29.4-7.8,43.4-13.8c3.3-1.4,4-0.6,4.5,2.5
			c2.8,16.2,8,31.6,16.1,45.9c14,24.9,34.5,42.8,60,55.3c3.2,1.5,4.4,3.1,4,6.7c-2,18,6.6,31,20.3,41.4c4.4,3.4,9.2,6.2,14.3,8.7
			c6.6,3.3,6.6,3.3,4.5,10.4c-2.5,0.2-4.5,0.9-6.2,3.1c-16.7,21.6-37.6,38.5-61.1,52.2c-33.6,19.7-70.3,30.4-108.7,35.5
			c-19.6,2.6-39.4,2.8-59.1,1.6c-33.3-2-66.2-7-98.1-17.6c-32.6-10.9-62.4-26.8-88.6-49.3c-24.5-21-43.9-46-58.5-74.7
			c-9.9-19.3-17.2-39.7-22.8-60.6C1513.8,288.3,1513.4,287.1,1514.1,285.9z"/>
		<path class="st8" d="M1613,696.7c2-9,3.8-18,6.1-26.9c5.8-22.6,13.4-44.6,22.7-66c9.3-21.6,20.3-42.3,31.8-62.8
			c0.4-0.7,0.9-1.3,1.4-2c1.3-0.5,2.4,0,3.5,0.7c11.3,7.4,24.3,9.3,37.2,11c13.5,1.8,27.1,2,40.6,2.7c11.8,0.6,23.6,1.2,35.3,3.2
			c6.3,1.1,10.7,4,13.3,10c3.7,8.5,7.2,17.1,10.3,25.7c0.6,1.5,1.1,3.1,0.3,4.7c-5.8,7.3-9.5,15.2-9.3,25
			c0.3,17.1,9.6,25.5,26.4,23.1c1.3,0.5,1.8,1.6,2,2.8c3,14.6,5.4,29.2,3.1,44.1c-1.2,7.6-4.6,13.7-10.9,18.4
			c-13.5,9.9-28.7,15.9-44.6,20.5c-22.2,6.3-44.7,6.9-67.5,5.3c-15.9-1.1-31.7-3.2-47.1-7.3c-16.2-4.4-31.3-10.9-44.5-21.5
			C1619.3,704.5,1615.1,701.5,1613,696.7z"/>
		<path class="st11" d="M1514.1,285.9c4.3,14.7,8.8,29.3,14.6,43.5c9.5,23,21.7,44.3,37.4,63.6c18.6,22.9,40.6,41.8,66,56.7
			c27.6,16.2,57.6,26.4,88.8,33c16.4,3.5,33.1,5.3,49.7,7.1c17.2,1.9,34.5,1.7,51.7,0.8c28.7-1.5,56.5-7.4,83.6-17
			c27-9.6,51.7-23,73.9-41.3c11.7-9.6,22.5-20,31.4-32.3c1.9-2.6,3.7-2.1,5.8-0.7c-5.6,30.5-20.4,56-43,76.9
			c-17.5,16.3-37.9,28.1-60,37.2c-25.8,10.6-52.6,17.4-80.3,20.4c-28,3.1-56,3.2-84-1.8c-28.8-5.2-57.2-11.6-84.5-22.2
			c-42.2-16.4-78.8-40.9-109.4-74.2c-18.5-20.1-33.7-42.3-42.3-68.6c-8.4-25.7-9-51.8-2.4-78
			C1511.4,287.9,1510.5,284.5,1514.1,285.9z"/>
		<path class="st12" d="M1467.5,241.7c7.8,1.9,15.1,5.2,22.9,7c10.3,2.4,20.6,4.7,31.3,4.4c19.3-0.6,33.6-10.3,36.5-31
			c0.4-3.1,2.1-3.7,4.9-2.9c6.9,2,14.1,3.1,21.2,2.8c14.9-0.5,28.8-4.7,41.6-12.4c22.8-13.7,38.2-34.2,51.9-56.2
			c3.7-5.9,7-12.2,10.8-18.8c4.9,5.1,9.5,9.9,14.2,14.6c14.2,14.3,30.4,25.9,48.2,34.9c16.6,8.5,34.3,14.2,53,16
			c5.1,0.5,10.2,1.4,15.3,1.5c16.5,0.5,32.6-1.9,48.6-5.8c17.3-4.3,33.9-10.7,49.8-18.7c2.1-1.1,3.4-2.3,4,1.7
			c3.5,22,8.9,43.5,19.3,63.5c6.2,12,13.7,23.2,23.3,32.6c13.3,13.2,28.8,23.4,46.6,29.7c0.3,0.1,0.5,0.1,0.8,0.2
			c5.3,2.1,5.3,2.1,3.2,7.4c-6.9,17.2-0.8,32.4,16.5,42.5c11.1,6.5,23.1,10.6,35.3,14.3c-5.3,6.1-11.9,10.7-18.6,15
			c-1.3,0.9-2.5,0.4-3.8-0.1c-7.9-3.1-15.9-4.6-24.2-2c-0.6,0.2-1.4,0.2-2-0.1c-12.8-6.2-24.4-13.9-29.7-28.1
			c-2.4-6.2-3.3-12.7-1.5-19.2c1.2-4.1-0.5-5.9-4-7.5c-11.5-5.3-22.5-11.5-32.3-19.7c-16.4-13.6-28.9-30.1-36.6-50.1
			c-4-10.6-6.8-21.5-8.8-32.6c-1.2-6.6-5.2-8.7-11.4-5.9c-15.9,7.1-32.4,12.5-49.6,15.6c-32.4,5.9-63.5,2-93-12.9
			c-20.6-10.3-37.7-25.2-53-42.1c-4.3-4.8-8.6-3-10.4,2.4c-5.1,14.7-12.6,28-24,38.8c-11.8,11.2-26.1,17.4-41.9,20.3
			c-15,2.8-30,2.3-44.9-0.6c-4.1-0.8-6.1,0.8-6.7,4.9c-0.8,4.7-1.7,9.3-3.5,13.8c-5.2,12.8-15.2,18.7-28.5,19.5
			c-7.6,0.5-15.2,0.2-22.7-1.5c-0.9-0.2-1.7-0.4-2.5-1.1c-6-5.4-13.3-8.3-21.2-7.9c-6.8,0.3-11.5-2-15.5-7
			C1472.1,255.2,1468.3,249.2,1467.5,241.7z"/>
		<path class="st13" d="M1613,696.7c17.6,18.7,39.9,28.2,64.5,33.6c24.3,5.3,48.9,6.3,73.5,5.4c10.7-0.4,21.4-3,31.8-6
			c13-3.6,25.2-8.8,37-15.5c12-6.9,17.8-16.7,17.7-30.5c0-13.1-1.5-25.9-5-38.5c6.6-2.6,11.2-7.5,14.4-13.6c1.1-2.1,2.4-2.9,4.7-2.8
			c3.6,0.2,7.3,0,11,0c2.3,9.5,6.6,18.4,9.4,27.7c6.6,21.6,11.8,43.6,15.9,65.9c0.5,2.8-0.3,4.6-3.2,6.1c-23.5,12.3-48,22.2-74,27.9
			c-11.2,2.5-22.5,4.5-34,5.6c-4.3,0.4-8.6,0.6-13,0.7c-7.9,0.6-15.8,0.6-23.7,0c-10.4,0-20.7-1.5-31-3
			c-18.4-2.7-36.3-7.4-53.8-13.5c-15.1-5.3-29.8-11.6-44-18.9c-2.1-1.1-2.8-2.2-2.3-4.8C1610.7,714.1,1611.8,705.4,1613,696.7z"/>
		<path class="st14" d="M1614.4,652.5c-13.8,3.9-27.7,4.8-41.8,1.6c-6.2-1.4-11.5-4.6-15.1-10.2c-2.6-4.2-1.7-8.7-1.6-13.1
			c0-1.8,1.8-2.2,3.3-2.7c3-0.9,6-1.7,9-2.7c2.4-0.8,4.8-2.2,3.8-5.3c-1-3.2-3.9-2.2-5.9-1.6c-8.2,2.4-16.4,4.5-24.9,5.7
			c-15.5,2.2-30.8,2.2-45.4-4.6c-6.1-2.9-10.3-7.5-11.4-14.4c-0.8-5.3,0.5-10.4,3.7-14.5c2.2-2.8,6.6-1.7,9.9-2.7
			c2.7-0.8,5.6-1,8.3-1.8c2-0.6,3.9-1.8,3.4-4.3c-0.4-2.4-2.2-3.3-4.6-2.9c-3.2,0.5-6.4,1.2-9.6,1.7c-19.1,3.2-38.1,3.8-57.3-0.6
			c-9.5-2.2-18.5-5.2-26.3-11.2c-11.1-8.5-13.9-23.4-6.7-35.2c8.6-14.1,21.3-23.6,35.3-31.6c17.8-10.1,37.2-15.7,57.1-19.2
			c15.1-2.6,30.4-2.6,45.8-1.3c12.2,1,24.2,2.6,36.1,5.1c7.7,1.6,15.1,4.2,22.6,6.5c-0.8,2.8-3.1,1.7-4.7,1.4
			c-11.1-2.1-22.4-3.3-33.7-2.6c-24.1,1.5-48.4,2.6-71.5,10.7c-6.3,2.2-12.5,4.5-18.1,8.3c-13.7,9.3-15.8,27.1-4.7,39.4
			c6.7,7.5,15.6,10.6,25,12.8c14.6,3.4,28.9,1.1,43.3-1.5c1.9-0.3,3.7-0.7,5.6-0.4c0.3,0.2,0.6,0.4,0.9,0.6c0.3,2.8-2.1,4-3.6,5.5
			c-4.9,4.9-8.7,10.4-10.7,17.1c-1.4,4.5-0.7,8.7,1.8,12.5c4.7,7,10.9,12.4,18.6,16.1c3.4,1.6,7,1.9,10.8,1.3
			c6.7-1.1,13.4-2.4,19.9-4.4c1.3-0.4,2.7-1.1,3.9,0c1.1,1.1,0,2.3-0.3,3.4c-1.9,7.8-0.7,15.3,3.7,21.8c4.8,7,12.2,7.8,20.1,7
			c3.1-0.3,6.3-2.1,9.5-0.3C1617.1,645.6,1616.4,649.3,1614.4,652.5z"/>
		<path class="st15" d="M1914.2,609.9c8.8-10.7,8.4-19.9-1.4-30.3c-9.3-10-21-16.8-32.8-23.3c-10-5.5-20.3-10.3-31.7-15.4
			c6.9-1.4,12.9-2.6,18.9-3.9c35.9-8,69.5-21.4,99.3-43.4c0.2-0.2,0.5-0.2,0.7-0.3c1.6-0.9,3.3-1.1,5.1-0.8c15,2.4,29.5,6.2,43,13.4
			c19.8,10.7,21.7,35.2,3.8,48.8c-7.9,6-16.9,8.4-26.4,9.9c-13.8,2.2-27.3-0.2-40.8-2.8c-0.5-0.1-1-0.5-1.5-0.1
			c4.8,4.8,9.1,10,12,16.3c3.8,8.3,2.5,16-3.9,22.5c-4.5,4.5-8.7,9.3-14.7,12.1c-4.9,2.2-9.7,3.3-15,2.2c-3.9-0.8-7.8-1.3-11.6-2.4
			C1915.9,612,1914,612.1,1914.2,609.9z"/>
		<path class="st15" d="M1543.4,561.3c-19.7,5.3-39.5,7.6-59,0.3c-15-5.6-22.3-14.1-23.2-29.3c-0.6-9.6,4.3-17.5,12.8-22.6
			c11.6-6.8,24.3-10.5,37.4-13.2c14.5-2.9,29.2-3.8,43.9-5c14.7-1.2,29.2-0.6,43.6,2.4c1.2,0.2,2.4,0.5,3.4-0.6
			c20.8,8.2,39.9,19.1,56.2,34.6c1.2,1.1,2.6,2.1,2.7,3.9c-9.7,14.9-22,26.9-38,34.8c-17.9,8.8-35.8,7.2-53.7-0.2
			c-13.6-5.6-25.6-13.7-37-22.8c-1-0.8-2.2-1.4-1.5-3.3c3.7-10.1-3.9-21.8-14.4-28c-7.4-4.4-15.7-6.4-24.3-4.9
			c-8.3,1.4-15,5.6-18,14.1c-3.1,9,0.7,16.3,6.6,22.6c10.4,11,30,15.7,44.2,5.4c1.4-1,2.1-0.5,3.1,0.3
			C1533.2,553.6,1538.3,557.4,1543.4,561.3z"/>
		<path class="st7" d="M1914.2,609.9c16.5,5.7,26.1,7.1,38.7-5.2c0.9-0.9,1.7-1.8,2.6-2.6c10.8-9,9.5-19.1,2.8-29.3
			c-3.1-4.6-7-8.6-11.6-13.3c9.7,2.6,18.5,3.9,27.4,4.5c17,1.2,33.6-0.6,47-12.3c11.6-10.1,14.7-32.6-3.7-43.4
			c-15.4-9-32.3-13.5-50.1-15c3.9-3.2,7.8-6.5,11.7-9.7c11.5,0.5,22.4,3.6,33.3,6.7c13.3,3.8,25.7,9.4,37.5,16.6
			c11.8,7.2,22.6,15.7,29.5,28c8.2,14.7,5,29.3-11.3,38.8c-11.7,6.8-24.8,9-38.1,10.5c-16.7,1.8-32.9-0.5-49.1-3.9
			c-2.5-0.5-5-0.3-5.7,2.4c-0.6,2.7,0.9,4.6,3.8,5.1c5.1,0.9,10.1,2,15.1,2.7c1.5,0.2,2.4,0.6,3.2,2c7.4,12.9,2.2,23.6-9.5,28.9
			c-13.4,6.1-27.6,6-41.9,4.5c-9.1-1-17.7-3.6-26.5-6.1c-2.6-0.8-5.5-1.4-6.6,1.8c-1.2,3.5,1.8,4.7,4.5,5.6c2.7,1,5.4,1.9,8.2,2.4
			c3.2,0.7,4.1,2.9,4.2,5.6c0.4,7.2-3,12.7-8.8,16.4c-5.2,3.3-11,5.2-17.3,5.1c-3.3,0.6-6.5,0.6-9.8,0c-3.4-0.2-6.9,0.5-10.2-0.7
			c-0.8-0.3-1.6,0-2.1,0.8c-2.8-4.6-3.5-9.9-5.5-14.8c0.8-1.9,2.5-1.8,4.1-1.8c1.4,0,2.7,0.4,4,0.6c12.8,1.4,20.5-4.2,22.9-16.8
			c0.6-3.2,0.8-6.4,1.4-9.6C1910.5,612.8,1912.3,611.3,1914.2,609.9z"/>
		<path class="st15" d="M1617.8,642c-5,0.3-9.8,1.8-14.9,1.7c-9.7-0.2-16.3-5.3-18.8-14.8c-2.2-8.8-2.1-12.7,0.5-18.4
			c-2.6-0.3-4.8,0.9-7,1.6c-5.7,2-11.6,2.5-17.4,3.7c-3.5,0.7-7-0.1-10.3-1.5c-7.1-3.2-12.8-8.2-17.6-14.2c-6-7.5-5.4-15.1,0.3-24.4
			c3.2-5.2,8-8.8,11.6-13.6c9.7,5.8,19.6,11.2,30.4,14.5c25.8,8,48.8,2.5,69.4-14.4c5.7-4.7,10.7-10,15.5-15.6
			c0.7-0.2,1.1-0.1,0.7,0.7c-16.8,29.8-31.1,60.8-41.7,93.4C1618.4,641.1,1618.1,641.5,1617.8,642z"/>
		<path class="st13" d="M1815.5,597.2c-3.4-10.6-7.7-20.8-12.1-31c-2.3-5.3-6.4-7.5-11.5-8.3c-9.1-1.4-18.2-2.3-27.4-2.6
			c-14.2-0.5-28.4-1.1-42.5-2.5c-12.5-1.3-25-2.9-36.7-7.9c-3.7-1.6-6.7-4.1-10.3-5.8c1.9-4.7,4.8-8.8,7.3-13.1
			c5.3-0.1,10,2.2,14.9,3.6c16.1,4.4,32.3,8.2,48.7,10.9c24.6,4.1,49.4,5.9,74.4,3.4c1.9-0.2,3.8-0.4,5.6-0.5
			c2.6,2.2,3.3,5.5,4.7,8.5c9.6,21.3,19.1,42.5,27.8,64.2c0.7,1.7,1.8,3.4,1,5.4c-8,0.6-8,0.6-8-7.4c-0.1-7.2-2.2-13.5-7.6-18.6
			c-6.6-6.2-16.5-6.6-24.6-0.7C1818,595.5,1816.8,596.3,1815.5,597.2z"/>
		<path class="st15" d="M1835.9,544.7c5.7,0.7,10.9,3.3,16,5.7c17,7.9,33.8,16.2,48.6,27.9c3.7,3,7.2,6.2,9.8,10.3
			c4.2,6.5,3.3,11.9-2.7,16.8c-7.9,6.5-17.5,9.1-27,12c-3.9,1.2-7.9,2-11.8,3c-1.8-0.8-2.4-2.5-3.1-4.1c-9.7-22.3-19-44.8-29.2-67
			C1836,547.9,1835.1,546.5,1835.9,544.7z"/>
		<path class="st10" d="M1455.3,308.7c0.1-24.7,24.8-38.9,46.5-30.1c2.4,1,2.9,2.3,2.2,4.7c-2.9,9.6-5,19.5-5.6,29.5
			c-0.7,2.1,0.3,4.4-0.6,6.6l0,0c-5,3.1-10.6,2-15.9,1.8c-8.1-0.4-15.7-2.9-22.4-7.6C1457.7,312.2,1456.2,310.8,1455.3,308.7z"/>
		<path class="st10" d="M2017.3,429.6c4.5-12.1,8.1-24.5,9.7-37.3c0.3-2.4,1.5-2.7,3.5-2.7c12.5-0.1,26.2,10.8,29.9,23.9
			c1.3,4.5,1.6,9.1,0.8,13.7c-0.6,1.4-1.6,2.5-3,3.1c-8.6,3.4-17.4,6-26.8,5.3C2026.2,435.1,2020.9,434.2,2017.3,429.6z"/>
		<path class="st11" d="M2017.3,429.6c15.2,8.8,29.6,4.6,43.9-2.4c-2.7,23.8-31.5,37.1-51,23.4c-1.6-1.2-2.4-2.1-1.3-4.3
			C2011.9,440.8,2014.5,435.2,2017.3,429.6z"/>
		<path class="st10" d="M1481.5,524.3c0.9-5.3,4.9-7.6,9.4-9c11-3.4,26.6,3.3,31.9,13.5c3.2,6.1,1.2,12.5-4.7,15.9
			c-2.6,1.1-5.2,0.9-7.9,0.1c-9.7-2.9-18.3-7.5-25.1-15.1C1483.5,528.1,1482.1,526.5,1481.5,524.3z"/>
		<path class="st11" d="M1455.3,308.7c11.7,10.4,25.4,13.1,40.5,10.7c0.7-0.1,1.4,0,2,0c0.3,6,0.3,12,0.9,17.9c0.3,3.1-1,4-3.7,4.7
			C1474.8,346.7,1454.3,329.6,1455.3,308.7z"/>
		<path class="st10" d="M1813.8,624.8c-1.2-9.5,1.8-17.5,9.1-23.5c8.3-6.8,17.6-3.4,20.3,7.1c1.4,5.6,1.5,11.2-1.7,16.4
			C1834,633,1819,632.4,1813.8,624.8z"/>
		<path class="st16" d="M1835.9,544.7c10.7,24.7,21.3,49.3,32,74c0.3,0.6,0.7,1.2,1.1,1.7c-3.1,0.7-6.4-0.1-9.5,0.9
			c-7.3-18.7-15.3-37-23.5-55.3c-3.4-7.5-6.6-15.1-9.9-22.7C1829.4,542.9,1832.8,542.9,1835.9,544.7z"/>
		<path class="st15" d="M1908.6,614.3c1.6,14.4-4.7,27.3-19.4,27.8c-4.4,0.1-8.8-2.3-13.1-0.2c-1.7-4.8-3.3-9.7-5-14.5
			C1884.1,624.6,1896.7,620.5,1908.6,614.3z"/>
		<path class="st11" d="M1481.5,524.3c4.5,4.6,8.4,9.8,14.2,13c7,3.9,14,7.6,22.3,7.3c-5.1,3.6-10.8,3.9-16.6,2.5
			c-8.7-2.2-16.1-6.3-19.8-15.1C1480.4,529.5,1479.7,526.9,1481.5,524.3z"/>
		<path class="st11" d="M1813.8,624.8c2.5,1.3,4.9,3,7.5,3.9c6.2,2.3,11.9,0.5,17.4-2.5c0.9-0.5,1.6-1.4,2.8-1.4
			c-0.8,7.2-9.2,14.4-16.3,14C1819.1,638.4,1813.9,632.1,1813.8,624.8z"/>
		<path class="st17" d="M1666.6,523.5c-1.9-1.8-4.3-3.3-5.5-5.8c1.5,0.5,2.9,1.2,4.5,1.5C1668.9,520,1668.2,521.6,1666.6,523.5z"/>
		<path class="st11" d="M1497.8,319.4c0.1-2.2-0.7-4.5,0.6-6.6C1498.5,315,1498.8,317.3,1497.8,319.4z"/>
		<path class="st18" d="M1660.3,547.2c-0.2-0.2-0.5-0.5-0.7-0.7c0.5-1,1-2.1,2.3-2.5C1661.8,545.3,1661.3,546.4,1660.3,547.2z"/>
		<path class="st19" d="M1740.3,762.9c7.9,0,15.8,0,23.7,0c-4.9,1.7-10,0.6-15.1,0.7C1746.1,763.6,1743.1,764.6,1740.3,762.9z"/>
		<path class="st20" d="M1679.8-105.5c1.2-7,6.1-11.4,11.6-15c10.1-6.6,21.8-8.9,33.5-10.9c18.8-3.3,37.9-3.8,56.9-3.2
			c21.9,0.7,43.6,3.4,65.1,7.5c30.7,5.7,60.5,14.2,89.4,26c22.6,9.2,44.5,19.9,63.1,36c7.7,6.6,14.5,14.1,15.8,24.9
			c0.2,1.5,0.4,3-0.5,4.3c-0.7,1.5-2.1,2.1-3.5,2.5c-17.2,4.4-34,4.9-49.8-5c-1.6-1-3.2-2-4.2-3.7c-0.5-1.2-0.4-2.4,0-3.6
			c2.1-6.2,0.2-11.5-3.5-16.4c-6-8.2-14.3-13.7-22.8-18.8c-31.9-19-66.8-28.6-103.3-33.1c-19.8-2.4-39.6-2.5-59.3,0.9
			c-6,1-12,2.5-17.6,4.9c-10.2,4.3-14.1,10.3-13.7,21.5c0,0.7-0.1,1.4-0.4,2c-4.2,3.4-9.5,3.1-14.4,3.3
			c-15.3,0.7-28.6-4.2-39.8-14.7C1679.7-98.8,1678.9-101.9,1679.8-105.5z"/>
		<path class="st21" d="M1957.5-42.5c17.8,13.3,37.1,13.4,57.2,6.5c-1.1,8.3-6.7,13.1-13.4,16.8c-10.6,5.9-22.3,8.2-34.1,10.1
			c-19.7,3.2-39.5,2.9-59.3,2.4c-14.6-0.4-29.1-2.4-43.6-4.2c-9.5-1.2-19.1-2.6-28.3-4.6c-9.6-2.1-19.1-4.8-28.6-7.5
			c-27.3-8-54-17.3-79.1-30.9c-14.6-7.9-28.8-16.4-40.1-28.9c-4.7-5.2-7.8-11-8.9-17.9c-0.2-1.6-0.6-3.3,0.6-4.7
			c-1.2,6.7,4.2,9.5,8.2,12.4c14.6,10.8,30.9,12.9,48.2,8.1c1,0.2,1.6,1,2.1,1.8c6.4,12.8,18.1,19.8,29.9,26.2
			c31.1,16.9,64.5,26.7,99.7,30.2c10,1,20,2.3,30.1,1.8c14.7-0.8,29.4-1.3,43.4-6.6c5.4-2,10.4-4.8,13.9-9.6
			C1955.7-41.9,1956.4-42.7,1957.5-42.5z"/>
		<path class="st4" d="M1893.9,656.7c3.3,0,6.5,0,9.8,0C1900.4,658,1897.1,658,1893.9,656.7z"/>
		<path class="st10" d="M1692.2,903.3c-3-16.1-2-31.8,3.7-47.2c0.4-1,0.9-2,1.4-2.9c1.8-3,3.5-6.5,7.7-6.4c4,0.1,5.7,3.5,7.2,6.5
			c3.6,7.2,5.9,14.8,6.1,23c0.7,3.9-0.1,7.8-1,11.6c-1.5,6.2-3,12.4-6.1,18c-1.8,3.4-3.8,6.6-8.4,6.7c-4.6,0.1-6.9-3.1-9.2-6.3
			C1693,905.4,1692.7,904.3,1692.2,903.3z"/>
		<path class="st11" d="M1692.2,903.3c1.6,1.8,3.2,3.7,4.9,5.4c4.5,4.6,9.2,3.9,12.4-1.8c4.2-7.5,6-15.9,7.9-24.2
			c0.5-2.1,0.6-4.3,0.9-6.4c1.8,16.2,0.9,32-7,46.6c-3.9,7.2-8.9,7.1-13.1,0.1C1694.7,916.9,1693,910.3,1692.2,903.3z"/>
		<path class="st10" d="M1770.4,855.8c0.4-8.2,2.4-16.1,5.9-23.5c1.5-3.1,3.5-6.3,7.4-6.3c4-0.1,5.7,3.4,7.3,6.4
			c4.6,8.8,6.3,18.4,6.7,28.3c0.3,7.7,0.4,15.5-1.2,23.1c-5.6,8.7-14.7,8.8-19.6-0.3C1772.3,874.9,1770.2,865.6,1770.4,855.8z"/>
		<path class="st11" d="M1770.4,855.8c1.5,8.1,2.6,16.2,5.7,23.9c0.4,0.9,0.6,1.8,1,2.6c4.7,8.6,10.6,9,19.3,1.5
			c-1,6.1-2.4,12-5.5,17.4c-1.6,2.9-3.4,6.3-7.4,6.3s-5.7-3.4-7.3-6.3c-4.5-8.2-6-17.2-6.5-26.3
			C1769.5,868.5,1768.9,862.1,1770.4,855.8z"/>
		<path class="st22" d="M1883.5,430.5c-15.2-1.1-29.4-4.5-40.5-16.2c-8.8-9.2-7-20.4,4.5-26.1c10.2-5.1,20.8-5.4,31.7-2.7
			c6.2,1.5,12.3,3.4,18,6.4c4.8,2.5,8.7,6.1,12,10.3c7.7,9.9,2.5,21.2-9.2,25.4C1894.7,429.5,1889.2,430.7,1883.5,430.5z"/>
		<path class="st22" d="M1649.7,383.1c-15.2-0.6-29-4.4-40-15.8c-7.5-7.8-7.6-20.5,4.2-25.7c8.7-3.8,17.5-4.9,26.9-3.7
			c10,1.3,19.3,4.1,27.5,10.1c3.6,2.6,7,5.7,9.1,9.8c4.1,8,1.5,16.5-6.5,20.8C1664.3,382,1657.2,383.5,1649.7,383.1z"/>
		<path class="st0" d="M1779.5,455.9c-14,0.3-22.4-6.2-29.4-14.7c-5.4-6.6-9.1-14.1-12.4-21.9c-1.1-2.6,0-4.5,1.6-6.3
			c1.7-1.9,3.8-1.2,5.7-0.4c6.4,2.9,12.9,4.8,20,5c10.6,0.3,19.3-3.7,27-10.6c5.5-4.9,10-10.7,13.7-17.2c1.1-2,2.6-2.9,4.9-2.7
			c2.4,0.3,3.1,1.9,3.6,3.9c2.6,12.2,4.1,24.4,1.3,36.7C1811.2,445.4,1797,455.9,1779.5,455.9z"/>
		<path class="st0" d="M1858.1,334.2c4.3,9,1.7,18.9-6.3,23.3c-8.8,4.9-18.6,2.6-23.9-5.6c-5.2-7.9-3.1-18.4,4.8-24.2
			c5.8-4.2,15.2-3.7,21.1,1.3c-1,1.3-2.4,1-3.7,1.2c-3,0.4-4.7,2.2-4.8,5.2c-0.1,2.7,1.1,4.8,3.9,5.5s5.4,0.2,7-2.7
			C1856.9,336.9,1856.7,335.2,1858.1,334.2z"/>
		<path class="st0" d="M1693.9,297.9c-0.3-0.7-0.5-1.2,0.5-1.4c8.2-1.6,16.4,3,19.7,11c3.2,7.6,0.4,16.5-6.6,21.1
			c-7.2,4.7-16.1,4-22-1.9c-6.1-6.1-7.2-15.4-2.6-22.4c0.7-1,1.1-2.2,2.6-2.3c1,0.7,0.9,1.9,1.3,2.9c1.1,2.9,2.8,5,6.2,4.9
			c2.6-0.1,4.4-1.4,5.1-3.9c0.9-3.1-0.1-5.6-3.2-7C1694.4,298.8,1694,298.4,1693.9,297.9z"/>
		<path class="st23" d="M1858.1,334.2c-0.6,6.4-2.3,8.3-7.2,8.1c-4-0.1-6.7-2.7-6.8-6.5c-0.1-3.9,2.8-6.7,6.9-6.8c0.9,0,1.9,0,2.8,0
			C1855.6,330.5,1857.3,331.9,1858.1,334.2z"/>
		<path class="st23" d="M1693.9,297.9c4.1,0.2,5.5,3,5.7,6.6c0.2,3.4-2.4,6.4-5.7,6.8c-3.8,0.5-6.3-1.2-7.5-4.7
			c-0.5-1.4-0.5-2.9-0.7-4.3C1687.6,299.4,1690.1,297.4,1693.9,297.9z"/>
		<path class="st3" d="M1957.5-42.5c-6.4,10.2-16.9,13.2-27.6,15.4c-13.3,2.8-26.9,3.8-40.4,3.2c-38.9-1.7-76.2-9.7-111.5-26.6
			c-11.1-5.3-21.5-11.5-31-19.4c-4.9-4.1-8.3-9.2-10.8-15.1c-2.9-13.9,4.8-20.5,14.3-24.5c10.4-4.4,21.4-5.8,32.5-6.7
			c13.6-1.2,27.2-0.9,40.7,0.4c18,1.7,35.7,5.3,53,10.4c23.6,7,46.1,16.3,66.1,31c4.5,3.3,8.6,7.1,12,11.6
			C1959.6-56.5,1960.5-49.8,1957.5-42.5z"/>
		<path class="st24" d="M1807.3,402.8c1.3,13.5,1.4,25.8-7.9,35.8c-10.2,11-26.5,11.6-37.9,1.9c-5.2-4.5-9-10.1-12.5-16.9
			c11.3,3.2,22,4.4,32.7,0.1C1792.1,419.5,1799.9,412.1,1807.3,402.8z"/>
		<path class="st24" d="M1801-111c45.9,1.4,89.6,11.1,129.4,35c6.8,4.1,13.2,8.6,18.2,14.9c7.4,9.1,6.1,17.1-4.2,22.8
			c-9.5,5.3-20,6.9-30.6,7.6c-51.6,3.4-100.2-7-145.7-31.4c-7.4-4-14.4-8.8-20.2-15c-1.1-1.2-2.2-2.4-3.1-3.8
			c-5.9-8.4-4.3-16.1,4.5-21.3c7.8-4.6,16.5-6.1,25.3-7.3c4.4-0.6,8.9-1.2,13.4-1.5C1792.3-111.2,1796.6-111,1801-111z"/>
	</g>
</g>
</svg>
