<svg xmlns="http://www.w3.org/2000/svg" viewBox="0 0 85.91 86.33"><defs><style>.cls-1{fill:#fff;}</style></defs><title>Ativo 4</title><g id="Camada_2" data-name="Camada 2"><g id="Camada_1-2" data-name="Camada 1"><rect class="cls-1" x="16.56" width="10.84" height="18.35" rx="5.42" ry="5.42"/><rect class="cls-1" x="59.68" y="0.42" width="10.84" height="18.35" rx="5.42" ry="5.42"/><rect class="cls-1" x="61.31" y="38.95" width="9.18" height="8.34"/><rect class="cls-1" x="61.31" y="52.95" width="9.18" height="8.34"/><rect class="cls-1" x="61.31" y="66.95" width="9.18" height="8.34"/><rect class="cls-1" x="47.31" y="38.95" width="9.18" height="8.34"/><rect class="cls-1" x="47.31" y="52.95" width="9.18" height="8.34"/><rect class="cls-1" x="47.31" y="66.95" width="9.18" height="8.34"/><rect class="cls-1" x="31.31" y="38.95" width="9.18" height="8.34"/><rect class="cls-1" x="31.31" y="52.95" width="9.18" height="8.34"/><rect class="cls-1" x="31.31" y="66.95" width="9.18" height="8.34"/><rect class="cls-1" x="16.31" y="52.95" width="9.18" height="8.34" transform="translate(-0.89 0.33) rotate(-0.89)"/><rect class="cls-1" x="16.52" y="66.95" width="9.18" height="8.34" transform="translate(-1.11 0.34) rotate(-0.89)"/><path class="cls-1" d="M74.06,10V15.1a7.19,7.19,0,0,1-7.17,7.17h-3.6a7.19,7.19,0,0,1-7.17-7.17V10H31.06V15.1a7.19,7.19,0,0,1-7.17,7.17h-3.6a7.19,7.19,0,0,1-7.17-7.17V10H0V86.33H85.91V10Zm6,70.9H6.26V31.7H80.07Z"/></g></g></svg>