<?xml version="1.0" encoding="iso-8859-1"?>
<!-- Generator: Adobe Illustrator 16.0.0, SVG Export Plug-In . SVG Version: 6.00 Build 0)  -->
<!DOCTYPE svg PUBLIC "-//W3C//DTD SVG 1.1//EN" "http://www.w3.org/Graphics/SVG/1.1/DTD/svg11.dtd">
<svg xmlns="http://www.w3.org/2000/svg" xmlns:xlink="http://www.w3.org/1999/xlink" version="1.1" id="Capa_1" x="0px" y="0px" width="512px" height="512px" viewBox="0 0 512 512" style="enable-background:new 0 0 512 512;" xml:space="preserve">
<g>
	<path d="M448,160c17.656,0,32,14.344,32,32v256c0,17.656-14.344,32-32,32H64c-17.641,0-32-14.344-32-32V192   c0-17.656,14.359-32,32-32H448 M448,128H64c-35.344,0-64,28.656-64,64v256c0,35.344,28.656,64,64,64h384c35.344,0,64-28.656,64-64   V192C512,156.656,483.344,128,448,128L448,128z M160,96V64c0-17.625,14.359-32,32-32h128c17.656,0,32,14.375,32,32v32h32V64   c0-35.344-28.656-64-64-64H192c-35.344,0-64,28.656-64,64v32H160z M352,288h-64v-64h-64v64h-64v64h64v64h64v-64h64V288z" fill="#FFFFFF"/>
</g>
<g>
</g>
<g>
</g>
<g>
</g>
<g>
</g>
<g>
</g>
<g>
</g>
<g>
</g>
<g>
</g>
<g>
</g>
<g>
</g>
<g>
</g>
<g>
</g>
<g>
</g>
<g>
</g>
<g>
</g>
</svg>
