<svg xmlns="http://www.w3.org/2000/svg" viewBox="0 0 99.79 89.43"><defs><style>.cls-1{fill:#fdfefe;}</style></defs><title>Ativo 1</title><g id="Camada_2" data-name="Camada 2"><g id="Camada_1-2" data-name="Camada 1"><path class="cls-1" d="M36,15.63c-2.67-10.54-11.71-6-13.39-5.07C20.91,9.62,11.86,5.09,9.2,15.63,6.57,26,19.52,32.07,22.32,33.25v.22l.27-.11.27.11v-.22C25.65,32.07,38.6,26,36,15.63Z"/><path class="cls-1" d="M99.3,31.52l-.11-.28-5.71-6-6.71-6.34-.23-.1a7.26,7.26,0,0,0-8.24,1.62L46.88,52.84l-.18.19L36.58,75.56l-1.73,3.31,0,.22a2.63,2.63,0,0,0,.69,2.28,2.82,2.82,0,0,0,2.05.9l.31,0,.21,0,3.76-1.55L66.12,70.14,97.67,39.27A7.27,7.27,0,0,0,99.3,31.52ZM49.1,55,63,68.23,50.81,73.51l-7-6.71Z"/><path class="cls-1" d="M72.19,84.43a3,3,0,0,1-3,3H5a3,3,0,0,1-3-3V5A3,3,0,0,1,5,2H69.19a3,3,0,0,1,3,3V21.65h2V5a5,5,0,0,0-5-5H5A5,5,0,0,0,0,5V84.43a5,5,0,0,0,5,5H69.19a5,5,0,0,0,5-5V69.38h-2Z"/></g></g></svg>