<svg xmlns="http://www.w3.org/2000/svg" viewBox="0 0 107.08 94.2"><defs><style>.cls-1{fill:#fff;}</style></defs><title>Ativo 5</title><g id="Camada_2" data-name="Camada 2"><g id="Camada_1-2" data-name="Camada 1"><path class="cls-1" d="M61.37,6a20.52,20.52,0,0,0-29,0L6,32.39a20.48,20.48,0,0,0,14.5,35,20.35,20.35,0,0,0,14.5-6L61.37,35A20.52,20.52,0,0,0,61.37,6ZM47.05,45.06,22.3,20.32,34.5,8.12A17.5,17.5,0,0,1,59.25,32.87Z"/><path class="cls-1" d="M57.26,10.16a15.31,15.31,0,0,0-21.62,0l-9.38,9.38a1.5,1.5,0,0,0,2.12,2.12l9.38-9.38a12.33,12.33,0,0,1,17.38,0A12.34,12.34,0,0,1,58.56,23a1.5,1.5,0,0,0,1.24,1.72l.25,0a1.5,1.5,0,0,0,1.48-1.26A15.34,15.34,0,0,0,57.26,10.16Z"/><path class="cls-1" d="M101.1,32.81a20.52,20.52,0,0,0-29,0l-26.4,26.4a20.5,20.5,0,0,0,29,29l26.4-26.4a20.56,20.56,0,0,0,0-29ZM72.58,86.08A17.5,17.5,0,0,1,47.83,61.33L60,49.13,84.78,73.88Z"/><path class="cls-1" d="M80.82,72.54a1.5,1.5,0,0,0-2.12,0l-9.38,9.38a12.33,12.33,0,0,1-17.38,0A12.34,12.34,0,0,1,48.52,71.2a1.5,1.5,0,0,0-3-.49A15.34,15.34,0,0,0,49.82,84a15.33,15.33,0,0,0,21.62,0l9.38-9.38A1.5,1.5,0,0,0,80.82,72.54Z"/></g></g></svg>